<svg width="811" height="758" viewBox="0 0 811 758" fill="none" xmlns="http://www.w3.org/2000/svg">
<path d="M176.638 262.22H655.793C665.667 262.222 675.136 266.462 682.118 274.009C689.099 281.556 693.021 291.792 693.021 302.464V467.236H139.4V302.464C139.4 297.179 140.364 291.945 142.235 287.062C144.106 282.18 146.849 277.743 150.307 274.006C153.765 270.269 157.87 267.305 162.388 265.282C166.906 263.26 171.748 262.22 176.638 262.22Z" fill="#F7F0EA"/>
<path d="M162.076 262.22V364.728H138.943" stroke="white" stroke-width="5" stroke-miterlimit="10"/>
<path d="M162.076 364.728H138.943V467.236H162.076V364.728Z" stroke="white" stroke-width="5" stroke-miterlimit="10"/>
<path d="M185.207 262.22H162.074V364.728H185.207V262.22Z" stroke="white" stroke-width="5" stroke-miterlimit="10"/>
<path d="M185.207 364.728H162.074V467.236H185.207V364.728Z" stroke="white" stroke-width="5" stroke-miterlimit="10"/>
<path d="M208.342 262.22H185.209V364.728H208.342V262.22Z" stroke="white" stroke-width="5" stroke-miterlimit="10"/>
<path d="M208.342 364.728H185.209V467.236H208.342V364.728Z" stroke="white" stroke-width="5" stroke-miterlimit="10"/>
<path d="M231.476 262.22H208.344V364.728H231.476V262.22Z" stroke="white" stroke-width="5" stroke-miterlimit="10"/>
<path d="M231.476 364.728H208.344V467.236H231.476V364.728Z" stroke="white" stroke-width="5" stroke-miterlimit="10"/>
<path d="M254.607 262.22H231.475V364.728H254.607V262.22Z" stroke="white" stroke-width="5" stroke-miterlimit="10"/>
<path d="M254.607 364.728H231.475V467.236H254.607V364.728Z" stroke="white" stroke-width="5" stroke-miterlimit="10"/>
<path d="M277.742 262.22H254.609V364.728H277.742V262.22Z" stroke="white" stroke-width="5" stroke-miterlimit="10"/>
<path d="M277.742 364.728H254.609V467.236H277.742V364.728Z" stroke="white" stroke-width="5" stroke-miterlimit="10"/>
<path d="M300.873 262.22H277.74V364.728H300.873V262.22Z" stroke="white" stroke-width="5" stroke-miterlimit="10"/>
<path d="M300.873 364.728H277.74V467.236H300.873V364.728Z" stroke="white" stroke-width="5" stroke-miterlimit="10"/>
<path d="M324.004 262.22H300.871V364.728H324.004V262.22Z" stroke="white" stroke-width="5" stroke-miterlimit="10"/>
<path d="M324.004 364.728H300.871V467.236H324.004V364.728Z" stroke="white" stroke-width="5" stroke-miterlimit="10"/>
<path d="M347.142 262.22H324.01V364.728H347.142V262.22Z" stroke="white" stroke-width="5" stroke-miterlimit="10"/>
<path d="M347.142 364.728H324.01V467.236H347.142V364.728Z" stroke="white" stroke-width="5" stroke-miterlimit="10"/>
<path d="M370.271 262.22H347.139V364.728H370.271V262.22Z" stroke="white" stroke-width="5" stroke-miterlimit="10"/>
<path d="M370.271 364.728H347.139V467.236H370.271V364.728Z" stroke="white" stroke-width="5" stroke-miterlimit="10"/>
<path d="M393.404 262.22H370.271V364.728H393.404V262.22Z" stroke="white" stroke-width="5" stroke-miterlimit="10"/>
<path d="M393.404 364.728H370.271V467.236H393.404V364.728Z" stroke="white" stroke-width="5" stroke-miterlimit="10"/>
<path d="M416.539 262.22H393.406V364.728H416.539V262.22Z" stroke="white" stroke-width="5" stroke-miterlimit="10"/>
<path d="M416.539 364.728H393.406V467.236H416.539V364.728Z" stroke="white" stroke-width="5" stroke-miterlimit="10"/>
<path d="M439.674 262.22H416.541V364.728H439.674V262.22Z" stroke="white" stroke-width="5" stroke-miterlimit="10"/>
<path d="M439.674 364.728H416.541V467.236H439.674V364.728Z" stroke="white" stroke-width="5" stroke-miterlimit="10"/>
<path d="M462.802 262.22H439.67V364.728H462.802V262.22Z" stroke="white" stroke-width="5" stroke-miterlimit="10"/>
<path d="M462.802 364.728H439.67V467.236H462.802V364.728Z" stroke="white" stroke-width="5" stroke-miterlimit="10"/>
<path d="M485.939 262.22H462.807V364.728H485.939V262.22Z" stroke="white" stroke-width="5" stroke-miterlimit="10"/>
<path d="M485.939 364.728H462.807V467.236H485.939V364.728Z" stroke="white" stroke-width="5" stroke-miterlimit="10"/>
<path d="M509.07 262.22H485.938V364.728H509.07V262.22Z" stroke="white" stroke-width="5" stroke-miterlimit="10"/>
<path d="M509.07 364.728H485.938V467.236H509.07V364.728Z" stroke="white" stroke-width="5" stroke-miterlimit="10"/>
<path d="M532.201 262.22H509.068V364.728H532.201V262.22Z" stroke="white" stroke-width="5" stroke-miterlimit="10"/>
<path d="M532.201 364.728H509.068V467.236H532.201V364.728Z" stroke="white" stroke-width="5" stroke-miterlimit="10"/>
<path d="M555.338 262.22H532.205V364.728H555.338V262.22Z" stroke="white" stroke-width="5" stroke-miterlimit="10"/>
<path d="M555.338 364.728H532.205V467.236H555.338V364.728Z" stroke="white" stroke-width="5" stroke-miterlimit="10"/>
<path d="M578.47 262.22H555.338V364.728H578.47V262.22Z" stroke="white" stroke-width="5" stroke-miterlimit="10"/>
<path d="M578.47 364.728H555.338V467.236H578.47V364.728Z" stroke="white" stroke-width="5" stroke-miterlimit="10"/>
<path d="M601.601 262.22H578.469V364.728H601.601V262.22Z" stroke="white" stroke-width="5" stroke-miterlimit="10"/>
<path d="M601.601 364.728H578.469V467.236H601.601V364.728Z" stroke="white" stroke-width="5" stroke-miterlimit="10"/>
<path d="M624.736 262.22H601.604V364.728H624.736V262.22Z" stroke="white" stroke-width="5" stroke-miterlimit="10"/>
<path d="M624.736 364.728H601.604V467.236H624.736V364.728Z" stroke="white" stroke-width="5" stroke-miterlimit="10"/>
<path d="M647.867 262.22H624.734V364.728H647.867V262.22Z" stroke="white" stroke-width="5" stroke-miterlimit="10"/>
<path d="M647.867 364.728H624.734V467.236H647.867V364.728Z" stroke="white" stroke-width="5" stroke-miterlimit="10"/>
<path d="M671.002 262.22H647.869V364.728H671.002V262.22Z" stroke="white" stroke-width="5" stroke-miterlimit="10"/>
<path d="M671.002 364.728H647.869V467.236H671.002V364.728Z" stroke="white" stroke-width="5" stroke-miterlimit="10"/>
<path d="M694.136 364.728H671.004V262.22" stroke="white" stroke-width="5" stroke-miterlimit="10"/>
<path d="M694.136 364.728H671.004V467.236H694.136V364.728Z" stroke="white" stroke-width="5" stroke-miterlimit="10"/>
<path d="M356.759 370.928H410.003C414.95 370.928 419.8 372.307 424.006 374.911C428.212 377.515 431.609 381.24 433.814 385.668L460.5 439.259C466.906 452.131 457.546 467.236 443.172 467.236H323.905C308.411 467.236 298.087 451.237 304.465 437.13L325.166 391.315C327.912 385.238 332.354 380.083 337.957 376.466C343.561 372.85 350.09 370.927 356.759 370.928Z" fill="#B9ABCF"/>
<path d="M362.87 370.72L332.779 467.23H427.149L408.537 370.72H402.491L404.272 390.267C404.467 392.386 404.218 394.522 403.541 396.539C402.864 398.556 401.773 400.409 400.339 401.981C398.905 403.553 397.158 404.809 395.211 405.668C393.264 406.527 391.16 406.97 389.032 406.97H381.286C379.011 406.97 376.765 406.463 374.711 405.486C372.657 404.508 370.846 403.086 369.411 401.321C367.976 399.556 366.953 397.493 366.415 395.283C365.878 393.073 365.841 390.771 366.306 388.544L369.984 370.72H362.87Z" fill="white"/>
<path d="M461.34 440.704L434.372 386.549C433.264 384.324 431.557 382.452 429.443 381.143C427.329 379.834 424.892 379.14 422.406 379.14H412.739C410.134 379.139 407.592 379.936 405.454 381.424C403.317 382.912 401.687 385.019 400.783 387.461L397.371 396.678C397.166 397.233 397.077 397.824 397.11 398.415C397.143 399.006 397.298 399.584 397.564 400.112C397.83 400.641 398.203 401.109 398.658 401.487C399.113 401.866 399.641 402.147 400.209 402.312L408.508 404.719C409.635 405.046 410.838 404.994 411.932 404.572C413.026 404.15 413.952 403.381 414.567 402.382L416.803 398.748C417.109 398.252 417.536 397.843 418.044 397.559C418.553 397.275 419.125 397.126 419.708 397.126H423.04L426.586 450.11C426.898 454.755 428.963 459.108 432.363 462.287C435.764 465.467 440.246 467.236 444.902 467.236C458.54 467.236 467.417 452.905 461.34 440.704Z" fill="#E5D2E0"/>
<path d="M405.443 388.877L402.033 398.095C401.828 398.65 401.739 399.242 401.772 399.833C401.806 400.423 401.96 401.001 402.227 401.53C402.493 402.058 402.866 402.526 403.321 402.904C403.776 403.282 404.305 403.563 404.873 403.728" stroke="#51A9AE" stroke-width="3" stroke-miterlimit="10" stroke-linecap="round"/>
<path d="M409.494 389.888L406.082 399.107C405.877 399.662 405.788 400.253 405.821 400.845C405.855 401.436 406.01 402.014 406.276 402.542C406.543 403.071 406.915 403.539 407.371 403.917C407.826 404.295 408.355 404.576 408.924 404.741" stroke="#51A9AE" stroke-width="3" stroke-miterlimit="10" stroke-linecap="round"/>
<path d="M414.148 390.902L410.738 400.118C410.465 400.855 410.398 401.652 410.545 402.423C410.692 403.194 411.048 403.911 411.573 404.495" stroke="#51A9AE" stroke-width="3" stroke-miterlimit="10" stroke-linecap="round"/>
<path d="M425.536 394.011C425.536 394.998 425.144 395.945 424.446 396.643C423.748 397.341 422.801 397.733 421.814 397.733H419.471" stroke="#51A9AE" stroke-width="3" stroke-miterlimit="10" stroke-linecap="round"/>
<path d="M396.393 415.949C397.004 418.05 403.656 419.708 411.771 419.708C419.887 419.708 426.539 418.052 427.148 415.949L421.422 455.151C420.756 456.643 416.689 457.782 411.771 457.782C406.854 457.782 402.787 456.637 402.119 455.151L396.393 415.949Z" fill="#8DC7CA" stroke="#51A9AE" stroke-width="2" stroke-miterlimit="10" stroke-linecap="round"/>
<path d="M420.739 430.726L420.71 430.992L420.71 430.994L418.335 452.437C418.266 452.578 418.118 452.769 417.826 452.99C417.483 453.25 416.996 453.507 416.369 453.735C415.117 454.189 413.426 454.478 411.537 454.478C409.648 454.478 407.957 454.187 406.704 453.732C406.077 453.505 405.59 453.247 405.246 452.987C404.954 452.767 404.806 452.575 404.737 452.436L402.362 430.994L402.362 430.992L402.333 430.726C402.353 430.626 402.442 430.426 402.79 430.146C403.19 429.824 403.821 429.492 404.683 429.195C406.398 428.604 408.819 428.222 411.537 428.222C414.255 428.222 416.676 428.604 418.39 429.195C419.252 429.492 419.883 429.824 420.283 430.146C420.631 430.426 420.719 430.626 420.739 430.726Z" fill="#F5F0E3" stroke="#51A9AE" stroke-width="2"/>
<path d="M426.472 399.428H420.466C419.011 399.428 417.597 399.907 416.443 400.791C415.29 401.675 414.461 402.914 414.087 404.316L407.363 440.478" stroke="#D89E75" stroke-width="3" stroke-miterlimit="10"/>
<path d="M426.779 415.855L426.779 415.858C426.779 415.884 426.775 415.911 426.768 415.937L426.768 415.937L426.766 415.944C426.714 416.138 426.456 416.519 425.654 416.983C424.891 417.425 423.798 417.847 422.416 418.212C419.66 418.94 415.917 419.396 411.772 419.396C407.628 419.396 403.885 418.94 401.128 418.212C399.746 417.847 398.653 417.425 397.889 416.983C397.088 416.519 396.829 416.138 396.776 415.943L396.776 415.943L396.774 415.937C396.767 415.911 396.764 415.884 396.764 415.858H396.764V415.855C396.764 415.737 396.856 415.4 397.579 414.915C398.266 414.454 399.326 413.999 400.725 413.601C403.51 412.81 407.416 412.308 411.772 412.308C416.128 412.308 420.034 412.811 422.818 413.603C424.218 414 425.277 414.455 425.964 414.917C426.687 415.402 426.779 415.738 426.779 415.855Z" fill="#E7D3A1" stroke="#51A9AE" stroke-width="2"/>
<path d="M411.734 416.086C413.576 416.086 415.069 415.555 415.069 414.9C415.069 414.245 413.576 413.714 411.734 413.714C409.892 413.714 408.398 414.245 408.398 414.9C408.398 415.555 409.892 416.086 411.734 416.086Z" stroke="#51A9AE" stroke-width="2" stroke-miterlimit="10" stroke-linecap="round"/>
<path d="M426.852 399.428H420.764C419.289 399.428 417.855 399.885 416.686 400.727C415.516 401.569 414.677 402.75 414.298 404.086L412.004 415.641" stroke="#D89E75" stroke-width="3" stroke-miterlimit="10"/>
<path d="M320.899 467.236H417.53C418.392 467.236 419.244 467.057 420.033 466.712C420.822 466.366 421.531 465.861 422.116 465.228L425.75 461.285C426.249 460.744 426.628 460.105 426.865 459.408C427.101 458.711 427.188 457.972 427.12 457.24L426.526 450.853H425.095C424.46 450.853 423.841 451.058 423.33 451.437C422.82 451.816 422.445 452.349 422.261 452.957L421.444 455.66C421.279 456.206 420.942 456.684 420.484 457.024C420.026 457.363 419.471 457.547 418.9 457.547H407.65L409.257 457.056C410.308 456.735 411.232 456.094 411.901 455.223C412.57 454.351 412.95 453.293 412.989 452.195L325.361 430.559C313.626 427.663 302.283 436.543 302.283 448.628C302.284 453.563 304.246 458.296 307.737 461.786C311.228 465.275 315.962 467.236 320.899 467.236Z" fill="#E5D2E0"/>
<path d="M420.158 369.979C414.467 362.596 415.65 336.47 414.839 335.223C413.391 332.978 395.705 323.922 389.533 323.964C385.997 323.986 366.799 334.404 366.799 346.601C366.799 354.803 373.075 365.566 388.713 369.361C404.351 373.156 420.158 369.979 420.158 369.979Z" fill="#51A9AE"/>
<path d="M400.188 370.927V357.818L385.492 356.617L375.898 370.927C375.898 370.927 375.989 380.024 388.347 380.024C400.705 380.024 400.188 370.927 400.188 370.927Z" fill="#E5D2E0"/>
<path d="M410.818 348.529C410.372 353.517 408.894 358.631 407.75 362.026C407.374 363.123 406.623 364.034 405.643 364.58C404.663 365.126 403.526 365.269 402.451 364.981L393.736 362.634C391.817 362.12 390.087 361.018 388.765 359.468C387.443 357.918 386.588 355.99 386.309 353.928L381.397 353.174C379.726 352.918 378.219 351.974 377.209 350.549C376.199 349.124 375.768 347.336 376.012 345.577L376.196 344.242C376.316 343.371 376.599 342.534 377.027 341.778C377.455 341.021 378.021 340.361 378.692 339.835C379.363 339.309 380.125 338.927 380.937 338.711C381.748 338.495 382.591 338.45 383.419 338.577L385.586 338.908C386.619 339.064 387.573 339.573 388.303 340.358C389.993 335.417 392.958 330.517 398.042 330.839C398.806 330.889 399.526 330.965 400.206 331.068C400.485 333.415 401.436 337.168 404.613 339.577C407.285 341.599 409.521 341.828 410.849 341.704C411.073 343.974 411.063 346.262 410.818 348.529Z" fill="#E5D2E0"/>
<path d="M381.768 342.318C382.849 342.476 383.824 343.057 384.478 343.934C385.131 344.81 385.41 345.91 385.252 346.992" stroke="#51A9AE" stroke-width="3" stroke-miterlimit="10" stroke-linecap="round"/>
<path d="M391.898 341.58C393.421 339.121 396.848 338.488 399.566 340.16" stroke="#51A9AE" stroke-width="3" stroke-miterlimit="10" stroke-linecap="round"/>
<path d="M410.989 341.861C406.598 341.35 402.789 343.372 402.088 351.411" stroke="#51A9AE" stroke-width="3" stroke-miterlimit="10" stroke-linecap="round"/>
<path d="M408.735 347.607C408.873 346.662 408.51 345.827 407.925 345.741C407.34 345.656 406.754 346.353 406.617 347.298C406.479 348.243 406.842 349.078 407.427 349.164C408.012 349.249 408.598 348.552 408.735 347.607Z" fill="#51A9AE"/>
<path d="M397.6 345.405C397.738 344.46 397.374 343.624 396.788 343.539C396.201 343.453 395.614 344.15 395.476 345.095C395.338 346.04 395.702 346.875 396.289 346.961C396.875 347.046 397.463 346.35 397.6 345.405Z" fill="#51A9AE"/>
<path d="M386.176 353.075C386.176 355.336 386.93 357.534 388.319 359.319C389.708 361.104 391.652 362.376 393.844 362.934L403.032 365.205C404.126 365.484 405.285 365.346 406.282 364.817C407.28 364.289 408.045 363.408 408.428 362.346" stroke="#51A9AE" stroke-width="3" stroke-miterlimit="10" stroke-linecap="round"/>
<path d="M397.521 352.39C397.763 354.451 399.629 355.658 401.688 355.417" stroke="#51A9AE" stroke-width="3" stroke-miterlimit="10" stroke-linecap="round"/>
<path d="M716.043 467.236H694.796C693.589 467.235 692.401 466.937 691.337 466.37C690.272 465.802 689.364 464.98 688.691 463.979C688.019 462.977 687.603 461.825 687.481 460.625C687.359 459.425 687.534 458.213 687.991 457.096L696.576 436.21H714.248L722.834 457.096C723.29 458.212 723.465 459.422 723.344 460.621C723.222 461.82 722.808 462.971 722.137 463.973C721.467 464.974 720.56 465.795 719.498 466.364C718.435 466.933 717.249 467.233 716.043 467.236Z" fill="#B9ABCF"/>
<path d="M705.42 445.156C710.452 445.156 714.53 441.929 714.53 437.948C714.53 433.967 710.452 430.739 705.42 430.739C700.389 430.739 696.311 433.967 696.311 437.948C696.311 441.929 700.389 445.156 705.42 445.156Z" fill="#51A9AE"/>
<path d="M708.141 441.326V372.145" stroke="#E7D3A1" stroke-width="3" stroke-miterlimit="10" stroke-linecap="round"/>
<path d="M716.234 354.519C716.234 360.803 708.142 374.196 708.142 374.196C708.142 374.196 700.049 360.803 700.049 354.519C700.049 348.236 703.672 343.144 708.142 343.144C712.611 343.144 716.234 348.238 716.234 354.519Z" fill="#E7D3A1"/>
<path d="M696.728 380.383C698.889 383.921 698.935 394.248 698.935 394.248C698.935 394.248 689.768 389.491 687.605 385.953C685.442 382.415 685.731 378.298 688.247 376.759C690.763 375.219 694.565 376.845 696.728 380.383Z" fill="#E7D3A1"/>
<path d="M698.887 398.233C701.896 399.827 705.814 407.942 705.814 407.942C705.814 407.942 696.897 409.266 693.888 407.674C690.879 406.081 689.555 402.674 690.936 400.068C692.317 397.463 695.876 396.648 698.887 398.233Z" fill="#E7D3A1"/>
<path d="M721.284 407.866C719.776 411.422 712.835 417.428 712.835 417.428C712.835 417.428 712.325 408.268 713.833 404.712C715.342 401.155 718.233 398.98 720.291 399.854C722.349 400.727 722.793 404.307 721.284 407.866Z" fill="#E7D3A1"/>
<path d="M701.073 419.855C702.817 423.432 701.839 433.34 701.839 433.34C701.839 433.34 693.433 428.007 691.691 424.425C689.95 420.842 690.636 416.924 693.227 415.662C695.819 414.401 699.332 416.278 701.073 419.855Z" fill="#E7D3A1"/>
<path d="M735.066 416.098C732.747 418.231 725.064 419.801 725.064 419.801C725.064 419.801 727.272 412.277 729.587 410.144C731.903 408.01 735.013 407.613 736.525 409.259C738.037 410.905 737.386 413.965 735.066 416.098Z" fill="#E7D3A1"/>
<path d="M719.18 435.106C717.825 436.651 712.953 438.199 712.953 438.199C712.953 438.199 713.86 433.168 715.215 431.625C716.571 430.083 718.557 429.603 719.653 430.572C720.749 431.541 720.536 433.563 719.18 435.106Z" fill="#E7D3A1"/>
<path d="M724.97 384.48C721.273 388.465 708.262 392.204 708.262 392.204C708.262 392.204 711.008 378.953 714.699 374.97C718.391 370.987 723.69 369.887 726.524 372.515C729.358 375.142 728.665 380.497 724.97 384.48Z" fill="#E7D3A1"/>
<path d="M713.232 437.885V416.333" stroke="#E7D3A1" stroke-width="3" stroke-miterlimit="10" stroke-linecap="round"/>
<path d="M713.232 435.011C713.231 432.969 713.713 430.954 714.638 429.133C715.563 427.312 716.905 425.734 718.555 424.53L728.414 417.327" stroke="#E7D3A1" stroke-width="3" stroke-miterlimit="10" stroke-linecap="round"/>
<path d="M708.141 418.047C708.141 414.266 707.242 410.538 705.519 407.172L698.529 393.509" stroke="#E7D3A1" stroke-width="3" stroke-miterlimit="10" stroke-linecap="round"/>
<path d="M698.182 429.871L700.558 431.561C701.331 432.111 701.96 432.838 702.395 433.681C702.83 434.524 703.057 435.458 703.058 436.406V441.449" stroke="#E7D3A1" stroke-width="3" stroke-miterlimit="10" stroke-linecap="round"/>
<path d="M720.223 368.399C721.302 368.399 722.177 367.524 722.177 366.444C722.177 365.365 721.302 364.49 720.223 364.49C719.143 364.49 718.268 365.365 718.268 366.444C718.268 367.524 719.143 368.399 720.223 368.399Z" stroke="#51A9AE" stroke-width="3" stroke-miterlimit="10" stroke-linecap="round"/>
<path d="M722.577 405.949C723.751 405.949 724.703 404.997 724.703 403.823C724.703 402.649 723.751 401.698 722.577 401.698C721.403 401.698 720.451 402.649 720.451 403.823C720.451 404.997 721.403 405.949 722.577 405.949Z" stroke="#51A9AE" stroke-width="3" stroke-miterlimit="10" stroke-linecap="round"/>
<path d="M693.484 435.294C694.564 435.294 695.439 434.419 695.439 433.339C695.439 432.26 694.564 431.385 693.484 431.385C692.405 431.385 691.529 432.26 691.529 433.339C691.529 434.419 692.405 435.294 693.484 435.294Z" stroke="#51A9AE" stroke-width="3" stroke-miterlimit="10" stroke-linecap="round"/>
<path d="M698.09 385.486C699.32 385.486 700.318 384.489 700.318 383.259C700.318 382.029 699.32 381.032 698.09 381.032C696.86 381.032 695.863 382.029 695.863 383.259C695.863 384.489 696.86 385.486 698.09 385.486Z" stroke="#51A9AE" stroke-width="3" stroke-miterlimit="10" stroke-linecap="round"/>
<path d="M716.654 420.597C717.492 420.597 718.171 419.918 718.171 419.08C718.171 418.243 717.492 417.563 716.654 417.563C715.816 417.563 715.137 418.243 715.137 419.08C715.137 419.918 715.816 420.597 716.654 420.597Z" stroke="#51A9AE" stroke-width="3" stroke-miterlimit="10" stroke-linecap="round"/>
<path d="M705.016 345.902C706.095 345.902 706.97 345.027 706.97 343.947C706.97 342.868 706.095 341.993 705.016 341.993C703.936 341.993 703.061 342.868 703.061 343.947C703.061 345.027 703.936 345.902 705.016 345.902Z" stroke="#51A9AE" stroke-width="3" stroke-miterlimit="10" stroke-linecap="round"/>
<path d="M138.945 483.811H693.486V708.766C693.486 714.525 691.198 720.049 687.125 724.121C683.051 728.193 677.527 730.481 671.766 730.481H160.665C154.905 730.481 149.38 728.193 145.307 724.121C141.234 720.049 138.945 714.525 138.945 708.766V483.811Z" fill="#E7D3A1"/>
<path d="M138.945 498.559V483.809H693.488V483.943L138.945 498.559Z" fill="#51A9AE"/>
<path d="M730.027 467.235H98.123V483.809H730.027V467.235Z" fill="white" stroke="#51A9AE" stroke-width="4" stroke-miterlimit="10" stroke-linecap="round"/>
<path d="M663.65 208.861H569.076V348.543H663.65V208.861Z" fill="white" stroke="#51A9AE" stroke-width="4" stroke-miterlimit="10" stroke-linecap="round"/>
<path d="M603.424 235.574H602.162C601.284 235.574 600.415 235.747 599.603 236.083C598.792 236.418 598.055 236.911 597.434 237.531C596.813 238.152 596.321 238.889 595.985 239.7C595.649 240.511 595.476 241.381 595.477 242.259C595.477 242.635 595.626 242.995 595.892 243.261C596.158 243.527 596.519 243.676 596.895 243.676H626.674" stroke="#E7D3A1" stroke-width="4" stroke-miterlimit="10" stroke-linecap="round"/>
<path d="M612.747 231.7H610.879C609.714 231.7 608.56 231.929 607.484 232.375C606.408 232.821 605.43 233.474 604.606 234.297C603.782 235.121 603.129 236.099 602.683 237.175C602.237 238.251 602.008 239.404 602.008 240.569V240.635C602.007 241.035 602.086 241.431 602.238 241.8C602.391 242.17 602.615 242.506 602.898 242.789C603.181 243.071 603.517 243.296 603.886 243.449C604.256 243.602 604.652 243.68 605.052 243.68" stroke="#E7D3A1" stroke-width="4" stroke-miterlimit="10" stroke-linecap="round"/>
<path d="M628.556 234.142C628.024 232.551 627.006 231.168 625.644 230.188C624.283 229.207 622.648 228.68 620.97 228.68H619.118C618.068 228.68 617.029 228.886 616.059 229.288C615.089 229.69 614.207 230.278 613.465 231.02C612.722 231.762 612.134 232.643 611.732 233.613C611.33 234.583 611.123 235.622 611.123 236.672V240.444C611.123 240.869 611.206 241.289 611.368 241.682C611.531 242.075 611.769 242.432 612.069 242.732C612.37 243.033 612.727 243.271 613.12 243.434C613.512 243.597 613.933 243.68 614.358 243.68" stroke="#E7D3A1" stroke-width="4" stroke-miterlimit="10" stroke-linecap="round"/>
<path d="M621.801 241.742V239.873C621.801 238.353 622.406 236.895 623.481 235.82C624.557 234.745 626.015 234.142 627.536 234.142H628.071C629.452 234.142 630.813 234.474 632.039 235.109C633.265 235.745 634.32 236.667 635.115 237.795L636.752 240.122C636.99 240.459 637.131 240.855 637.16 241.267C637.188 241.679 637.103 242.091 636.913 242.458C636.723 242.824 636.436 243.132 636.084 243.347C635.731 243.562 635.326 243.676 634.913 243.676H623.736C623.482 243.676 623.23 243.626 622.995 243.529C622.76 243.432 622.547 243.289 622.368 243.11C622.188 242.93 622.045 242.717 621.948 242.482C621.851 242.247 621.801 241.996 621.801 241.742V241.742Z" stroke="#E7D3A1" stroke-width="4" stroke-miterlimit="10" stroke-linecap="round"/>
<path d="M583.662 263.339H622.888" stroke="#51A9AE" stroke-width="4" stroke-miterlimit="10" stroke-linecap="round"/>
<path d="M583.662 273.622H622.888" stroke="#51A9AE" stroke-width="4" stroke-miterlimit="10" stroke-linecap="round"/>
<path d="M583.662 283.903H610.742" stroke="#51A9AE" stroke-width="4" stroke-miterlimit="10" stroke-linecap="round"/>
<path d="M583.662 304.465H602.645" stroke="#51A9AE" stroke-width="4" stroke-miterlimit="10" stroke-linecap="round"/>
<path d="M583.662 294.184H633.01" stroke="#51A9AE" stroke-width="4" stroke-miterlimit="10" stroke-linecap="round"/>
<path d="M646.332 263.339H653.385" stroke="#E7D3A1" stroke-width="4" stroke-miterlimit="10" stroke-linecap="round"/>
<path d="M646.332 273.622H653.385" stroke="#E7D3A1" stroke-width="4" stroke-miterlimit="10" stroke-linecap="round"/>
<path d="M646.332 283.903H653.385" stroke="#E7D3A1" stroke-width="4" stroke-miterlimit="10" stroke-linecap="round"/>
<path d="M646.332 294.184H653.385" stroke="#E7D3A1" stroke-width="4" stroke-miterlimit="10" stroke-linecap="round"/>
<path d="M646.332 304.465H653.385" stroke="#E7D3A1" stroke-width="4" stroke-miterlimit="10" stroke-linecap="round"/>
<path d="M558.181 208.861H463.607V348.543H558.181V208.861Z" fill="white" stroke="#51A9AE" stroke-width="4" stroke-miterlimit="10" stroke-linecap="round"/>
<path d="M539.043 263.339H546.096" stroke="#E7D3A1" stroke-width="4" stroke-miterlimit="10" stroke-linecap="round"/>
<path d="M539.043 273.622H546.096" stroke="#E7D3A1" stroke-width="4" stroke-miterlimit="10" stroke-linecap="round"/>
<path d="M539.043 283.903H546.096" stroke="#E7D3A1" stroke-width="4" stroke-miterlimit="10" stroke-linecap="round"/>
<path d="M539.043 294.184H546.096" stroke="#E7D3A1" stroke-width="4" stroke-miterlimit="10" stroke-linecap="round"/>
<path d="M539.043 304.465H546.096" stroke="#E7D3A1" stroke-width="4" stroke-miterlimit="10" stroke-linecap="round"/>
<path d="M539.043 314.749H546.096" stroke="#E7D3A1" stroke-width="4" stroke-miterlimit="10" stroke-linecap="round"/>
<path d="M476.371 263.339H515.597" stroke="#51A9AE" stroke-width="4" stroke-miterlimit="10" stroke-linecap="round"/>
<path d="M476.371 273.622H515.597" stroke="#51A9AE" stroke-width="4" stroke-miterlimit="10" stroke-linecap="round"/>
<path d="M476.371 294.184H509.524" stroke="#51A9AE" stroke-width="4" stroke-miterlimit="10" stroke-linecap="round"/>
<path d="M476.371 304.465H509.912" stroke="#51A9AE" stroke-width="4" stroke-miterlimit="10" stroke-linecap="round"/>
<path d="M476.371 314.749H495.354" stroke="#51A9AE" stroke-width="4" stroke-miterlimit="10" stroke-linecap="round"/>
<path d="M476.371 283.903H525.719" stroke="#51A9AE" stroke-width="4" stroke-miterlimit="10" stroke-linecap="round"/>
<path d="M500.197 228.681C500.576 229.868 504.698 230.804 509.726 230.804C514.755 230.804 518.877 229.869 519.254 228.681L515.706 250.824C515.293 251.668 512.773 252.311 509.726 252.311C506.679 252.311 504.159 251.664 503.746 250.824L500.197 228.681Z" stroke="#E7D3A1" stroke-width="3" stroke-miterlimit="10" stroke-linecap="round"/>
<path d="M513.516 240.714C513.902 240.804 514.186 240.899 514.375 240.983L513.143 248.487C513.138 248.489 513.133 248.492 513.127 248.495C512.97 248.575 512.723 248.665 512.381 248.749C511.702 248.915 510.77 249.024 509.721 249.024C508.673 249.024 507.741 248.915 507.061 248.748C506.719 248.664 506.472 248.574 506.315 248.493C506.309 248.491 506.304 248.488 506.299 248.485L505.067 240.983C505.256 240.899 505.54 240.804 505.927 240.714C506.866 240.496 508.207 240.352 509.721 240.352C511.236 240.352 512.577 240.496 513.516 240.714Z" fill="#E7D3A1" stroke="#E7D3A1" stroke-width="2"/>
<path d="M523.825 219.533H519.034C517.873 219.533 516.745 219.88 515.824 220.52C514.904 221.16 514.243 222.058 513.945 223.073L508.58 249.262" stroke="#E7D3A1" stroke-width="3" stroke-miterlimit="10"/>
<path d="M519.02 228.176C519.085 228.223 519.135 228.265 519.175 228.3C519.107 228.362 519.005 228.442 518.852 228.539C518.415 228.816 517.742 229.107 516.833 229.37C515.025 229.892 512.524 230.23 509.723 230.23C506.923 230.23 504.422 229.892 502.614 229.37C501.704 229.107 501.031 228.816 500.594 228.539C500.441 228.442 500.338 228.361 500.271 228.3C500.31 228.264 500.361 228.222 500.426 228.175C500.798 227.901 501.433 227.592 502.352 227.307C504.172 226.742 506.778 226.369 509.723 226.369C512.668 226.369 515.274 226.742 517.094 227.308C518.013 227.594 518.648 227.903 519.02 228.176ZM500.149 228.432C500.146 228.438 500.144 228.441 500.144 228.441C500.144 228.441 500.145 228.438 500.149 228.432ZM519.302 228.442C519.302 228.442 519.3 228.439 519.297 228.433C519.301 228.439 519.302 228.442 519.302 228.442Z" stroke="#E7D3A1" stroke-width="3"/>
<path d="M289.432 540.76H371.313C373.209 540.76 375.028 541.513 376.369 542.854C377.709 544.194 378.462 546.012 378.462 547.908V548.627H282.283V547.908C282.283 546.012 283.036 544.194 284.377 542.854C285.718 541.513 287.536 540.76 289.432 540.76Z" fill="white"/>
<path d="M282.283 753.314V548.627H344.55V753.314" stroke="#51A9AE" stroke-width="4" stroke-miterlimit="10" stroke-linecap="round"/>
<path d="M344.551 753.314V548.627H378.461V753.314" stroke="#51A9AE" stroke-width="4" stroke-miterlimit="10" stroke-linecap="round"/>
<path d="M299.668 499.46C282.472 499.46 272.211 512.599 276.747 528.807L282.294 548.627H344.561L339.013 528.807C334.478 512.599 316.861 499.46 299.668 499.46Z" stroke="#51A9AE" stroke-width="4" stroke-miterlimit="10" stroke-linecap="round"/>
<path d="M307.973 548.627L299.578 499.663" stroke="#51A9AE" stroke-width="4" stroke-miterlimit="10" stroke-linecap="round"/>
<path d="M330.544 514.374C317.974 519.812 310.481 533.668 313.24 548.234" stroke="#51A9AE" stroke-width="4" stroke-miterlimit="10" stroke-linecap="round"/>
<path d="M276.525 515.042C291.26 518.228 302.345 532.055 302.345 548.627" stroke="#51A9AE" stroke-width="4" stroke-miterlimit="10" stroke-linecap="round"/>
<path d="M282.283 703.838C282.283 699.793 285.778 696.501 290.067 696.501H336.766C341.065 696.501 344.55 699.785 344.55 703.838" stroke="#51A9AE" stroke-width="4" stroke-miterlimit="10" stroke-linecap="round"/>
<path d="M344.553 703.838C344.553 699.793 348.038 696.501 352.337 696.501H370.692C374.991 696.501 378.476 699.785 378.476 703.838" stroke="#51A9AE" stroke-width="4" stroke-miterlimit="10" stroke-linecap="round"/>
<path d="M236.468 730.48H163.389L199.828 558.7H200.031L236.468 730.48Z" fill="#51A9AE"/>
<path d="M64.1797 753.313L69.0243 730.478H163.375L158.533 753.313" stroke="#51A9AE" stroke-width="4" stroke-miterlimit="10" stroke-linecap="round"/>
<path d="M235.875 730.478L240.72 753.313" stroke="#51A9AE" stroke-width="4" stroke-miterlimit="10" stroke-linecap="round"/>
<path d="M163.388 730.482H69.0371L105.475 558.7H199.826L163.388 730.482Z" fill="white" stroke="#51A9AE" stroke-width="4" stroke-miterlimit="10" stroke-linecap="round"/>
<path d="M174.728 570.375L166.336 608.058H143.865L152.258 570.375H174.728Z" fill="#F7F0EA"/>
<path d="M105.475 611.484L129.656 599.395" stroke="#51A9AE" stroke-width="4" stroke-miterlimit="10" stroke-linecap="round"/>
<path d="M102.92 622.039L162.503 592.252" stroke="#51A9AE" stroke-width="4" stroke-miterlimit="10" stroke-linecap="round"/>
<path d="M168.098 650.679H101.781L104.719 637.423H171.034L168.098 650.679Z" fill="#B2DDDA"/>
<path d="M98.7422 644.81H158.986" stroke="#51A9AE" stroke-width="4" stroke-miterlimit="10" stroke-linecap="round"/>
<path d="M96.5176 654.931H156.759" stroke="#51A9AE" stroke-width="4" stroke-miterlimit="10" stroke-linecap="round"/>
<path d="M137.106 717.55C148.757 717.55 158.201 708.107 158.201 696.459C158.201 684.812 148.757 675.369 137.106 675.369C125.456 675.369 116.012 684.812 116.012 696.459C116.012 708.107 125.456 717.55 137.106 717.55Z" fill="#E7D3A1"/>
<path d="M129.149 588.825C134.561 588.825 138.949 584.438 138.949 579.027C138.949 573.616 134.561 569.229 129.149 569.229C123.737 569.229 119.35 573.616 119.35 579.027C119.35 584.438 123.737 588.825 129.149 588.825Z" fill="#E5D2E0"/>
<path d="M88.9453 688.787H127.824" stroke="#51A9AE" stroke-width="4" stroke-miterlimit="10" stroke-linecap="round"/>
<path d="M87.1426 697.286H133.73" stroke="#51A9AE" stroke-width="4" stroke-miterlimit="10" stroke-linecap="round"/>
<path d="M113.738 587.271C119.582 579.693 131.596 574.496 145.469 574.496C159.545 574.496 171.71 579.847 177.454 587.607" stroke="#51A9AE" stroke-width="4" stroke-miterlimit="10" stroke-linecap="round"/>
<path d="M497.52 449.507H437.068L457.311 406.975H517.763L497.52 449.507Z" fill="#D89E75"/>
<path d="M494.076 449.507H433.625L453.87 406.975H514.321L494.076 449.507Z" stroke="#51A9AE" stroke-width="4" stroke-miterlimit="10" stroke-linecap="round"/>
<path d="M487.551 467.236H470.624L464.551 438.628H481.478L487.551 467.236Z" stroke="#51A9AE" stroke-width="4" stroke-miterlimit="10" stroke-linecap="round"/>
<path d="M503.438 756H730.029" stroke="#51A9AE" stroke-width="4" stroke-miterlimit="10" stroke-linecap="round"/>
<path d="M678.631 407.512L657.994 481.067L661.353 501.749C661.353 501.749 617.963 520.797 583.975 483.807L583.649 421.701L554.758 421.364L560.399 392.494C561.334 387.777 563.644 383.443 567.038 380.037C570.432 376.63 574.758 374.304 579.472 373.351L605.222 368.141C606.652 367.852 607.966 367.152 609.004 366.127C610.041 365.101 610.756 363.795 611.062 362.369L611.367 360.946H637.334L637.946 362.191C638.637 363.598 639.599 364.853 640.778 365.886C641.958 366.918 643.33 367.706 644.816 368.204L660.623 373.502C667.416 375.778 673.074 380.578 676.426 386.908C679.778 393.239 680.567 400.616 678.631 407.512Z" fill="#D89E75"/>
<path d="M659.743 722.422C659.743 722.422 636.322 728.332 618.856 722.422L611.545 567.908L592.575 607.146C618.1 647.399 617.024 699.73 617.024 699.73C610.578 705.101 580.754 715.438 580.754 715.438L545.992 632.245C539.914 617.702 539.628 601.387 545.192 586.64L583.976 483.812C593.864 494.573 604.549 500.593 614.727 503.714C620.184 505.38 625.832 506.345 631.533 506.586C647.35 507.292 659.458 502.541 661.145 501.84L661.347 611.897C661.347 611.897 683.119 669.236 659.743 722.422Z" fill="#51A9AE"/>
<path d="M617.022 699.73C617.022 699.73 618.096 647.399 592.572 607.146L631.53 526.603H639.547" stroke="#51A9AE" stroke-width="4" stroke-miterlimit="10" stroke-linecap="round"/>
<path d="M626.743 720.506L587.935 755.997H571.449V754.402C571.452 752.321 572.136 750.298 573.397 748.643C576.892 744.046 583.807 733.38 583.27 721.703C583.27 721.703 596.826 718.209 616.02 705.679L626.8 715.96C627.109 716.255 627.353 716.61 627.518 717.003C627.683 717.396 627.766 717.819 627.76 718.246C627.755 718.672 627.662 719.093 627.487 719.482C627.312 719.871 627.059 720.219 626.743 720.506Z" fill="#51A9AE"/>
<path d="M626.792 716.369L586.917 752.762H570.428" stroke="white" stroke-width="4" stroke-miterlimit="10" stroke-linecap="round"/>
<path d="M580.756 715.438L583.263 721.707C583.263 721.707 599.415 717.058 616.013 705.683L615.829 700.615C615.829 700.615 599.741 708.991 580.756 715.438Z" fill="white"/>
<path d="M657.864 730.48L663.126 751.852C663.248 752.345 663.256 752.859 663.149 753.355C663.043 753.852 662.825 754.317 662.512 754.717C662.198 755.117 661.798 755.44 661.342 755.662C660.885 755.885 660.384 756 659.876 756H603.907C603.465 756 603.032 755.866 602.667 755.616C602.301 755.367 602.02 755.012 601.86 754.599C601.7 754.187 601.668 753.736 601.769 753.305C601.869 752.874 602.098 752.483 602.425 752.184L626.161 730.486L657.864 730.48Z" fill="#51A9AE"/>
<path d="M663.927 752.357H601.885" stroke="white" stroke-width="4" stroke-miterlimit="10" stroke-linecap="round"/>
<path d="M659.743 722.422L657.864 730.48C657.864 730.48 636.1 734.421 626.16 730.48V724.305C626.16 724.305 641.384 726.451 659.743 722.422Z" fill="white"/>
<path d="M554.757 421.366L594.388 421.828L583.606 455.943C582.626 459.042 580.684 461.749 578.061 463.671C575.438 465.592 572.272 466.628 569.02 466.629H468.725C468.55 466.629 468.38 466.573 468.239 466.47C468.098 466.366 467.994 466.221 467.942 466.054C467.89 465.888 467.892 465.709 467.948 465.543C468.005 465.378 468.112 465.235 468.256 465.135C474.912 460.52 498.832 445.93 552.678 431.708L554.757 421.366Z" fill="#E7D3A1"/>
<path d="M592.432 422.824L595.731 412.387" stroke="#E7D3A1" stroke-width="5" stroke-miterlimit="10" stroke-linecap="round"/>
<path d="M637.338 360.953H611.371L613.262 351.728H633.01L637.338 360.953Z" fill="#E7D3A1"/>
<path d="M642.67 334.868C644.918 335.553 646.552 337.905 646.552 340.376V342.306C646.552 343.026 646.41 343.739 646.135 344.404C645.859 345.069 645.455 345.673 644.946 346.182C644.437 346.691 643.833 347.095 643.168 347.37C642.502 347.646 641.79 347.788 641.07 347.788H633.286C632.857 349.58 631.836 351.176 630.388 352.318C628.941 353.46 627.151 354.082 625.307 354.082H611.779C611.138 354.082 610.523 353.828 610.07 353.375C609.617 352.922 609.363 352.307 609.363 351.667V342.524L606.621 342.036C606.437 342.003 606.263 341.927 606.112 341.816C605.961 341.705 605.838 341.56 605.751 341.394C605.665 341.228 605.618 341.044 605.614 340.856C605.609 340.669 605.648 340.483 605.727 340.313L613.085 324.53C613.841 324.704 614.615 324.792 615.391 324.792C617.982 324.806 620.478 323.816 622.356 322.03H624.166C625.042 322.03 625.883 322.378 626.503 322.998C627.123 323.618 627.471 324.458 627.471 325.335V332.154C627.471 333.684 628.079 335.152 629.161 336.234C630.243 337.316 631.711 337.924 633.242 337.924C633.236 337.531 633.307 337.142 633.452 336.777C633.598 336.412 633.814 336.08 634.088 335.799C634.363 335.519 634.69 335.295 635.051 335.142C635.412 334.988 635.801 334.908 636.193 334.905L642.67 334.868Z" fill="#E7D3A1"/>
<path d="M636.1 341.999C636.1 340.88 636.544 339.806 637.336 339.015C638.127 338.224 639.201 337.779 640.32 337.779" stroke="#51A9AE" stroke-width="3" stroke-miterlimit="10" stroke-linecap="round"/>
<path d="M613.223 354.662H625.305C627.241 354.662 629.115 353.977 630.595 352.729C632.075 351.481 633.066 349.751 633.393 347.843H639.479" stroke="#51A9AE" stroke-width="3" stroke-miterlimit="10" stroke-linecap="round"/>
<path d="M613.512 328.671L619.012 329.321" stroke="#51A9AE" stroke-width="3" stroke-miterlimit="10" stroke-linecap="round"/>
<path d="M615.834 336.117C616.449 336.117 616.948 335.389 616.948 334.491C616.948 333.593 616.449 332.865 615.834 332.865C615.218 332.865 614.719 333.593 614.719 334.491C614.719 335.389 615.218 336.117 615.834 336.117Z" fill="#51A9AE"/>
<path d="M610.701 345.388C610.701 345.388 613.969 345.676 615.189 343.631" stroke="#51A9AE" stroke-width="3" stroke-linecap="round" stroke-linejoin="round"/>
<path d="M642.894 334.663C642.382 334.51 641.832 334.686 641.275 334.686H637.972C636.99 334.686 636.031 334.971 635.217 335.505C634.403 336.039 633.771 336.798 633.402 337.685H633.357C631.808 337.685 630.322 337.085 629.227 336.018C628.131 334.95 627.516 333.502 627.516 331.993V325.266C627.516 324.402 627.163 323.573 626.536 322.961C625.908 322.35 625.058 322.006 624.17 322.006H622.338C620.438 323.768 617.912 324.744 615.289 324.731C609.822 324.731 605.391 320.635 605.391 315.58C605.391 310.525 609.822 306.432 615.289 306.432C620.262 306.432 624.377 309.818 625.084 314.232C636.668 312.698 638.473 322.006 638.473 322.006C638.473 322.006 644.872 320.304 646.327 325.595C647.288 329.108 645 332.342 642.894 334.663Z" fill="#E5D2E0"/>
<path d="M249.158 427.972C248.926 428.421 248.575 428.799 248.142 429.062C247.71 429.326 247.213 429.465 246.707 429.465H206.756V427.541C206.758 425.635 207.517 423.807 208.865 422.459C210.214 421.11 212.042 420.352 213.949 420.349H215.082C215.951 419.151 217.092 418.175 218.411 417.502C219.729 416.829 221.189 416.478 222.669 416.477H224.417C225.213 415.53 226.207 414.769 227.329 414.246C228.451 413.724 229.674 413.454 230.911 413.454H232.763C234.492 413.453 236.18 413.979 237.602 414.962C239.023 415.946 240.111 417.34 240.72 418.957C242.032 419.081 243.303 419.487 244.443 420.148C245.584 420.81 246.567 421.71 247.327 422.788L248.967 425.112C249.258 425.526 249.43 426.011 249.463 426.515C249.497 427.019 249.392 427.523 249.158 427.972Z" fill="#E7D3A1"/>
<path d="M215.208 420.854H213.946C212.174 420.856 210.475 421.562 209.223 422.816C207.971 424.07 207.269 425.77 207.27 427.542V428.959H235.535" stroke="#51A9AE" stroke-width="3" stroke-miterlimit="10" stroke-linecap="round"/>
<path d="M213.797 428.957V425.849C213.797 423.497 214.731 421.241 216.395 419.578C218.059 417.915 220.315 416.98 222.668 416.98H224.536" stroke="#51A9AE" stroke-width="3" stroke-miterlimit="10" stroke-linecap="round"/>
<path d="M222.916 428.957V421.953C222.916 419.833 223.758 417.8 225.258 416.301C226.757 414.802 228.791 413.959 230.911 413.959H232.763C234.441 413.959 236.076 414.487 237.437 415.467C238.798 416.447 239.817 417.83 240.349 419.421" stroke="#51A9AE" stroke-width="3" stroke-miterlimit="10" stroke-linecap="round"/>
<path d="M233.59 427.023V425.151C233.59 424.398 233.738 423.652 234.026 422.956C234.315 422.261 234.737 421.629 235.27 421.096C235.802 420.564 236.434 420.142 237.13 419.853C237.826 419.565 238.572 419.417 239.325 419.417H239.876C241.258 419.417 242.618 419.749 243.844 420.385C245.07 421.021 246.125 421.942 246.921 423.071L248.558 425.397C248.796 425.735 248.937 426.131 248.965 426.543C248.993 426.955 248.908 427.367 248.718 427.733C248.528 428.1 248.242 428.408 247.889 428.623C247.536 428.838 247.132 428.953 246.719 428.953H235.541C235.286 428.955 235.033 428.907 234.797 428.811C234.561 428.715 234.346 428.573 234.164 428.394C233.983 428.214 233.839 428.001 233.74 427.765C233.642 427.53 233.591 427.278 233.59 427.023Z" stroke="#51A9AE" stroke-width="3" stroke-miterlimit="10" stroke-linecap="round"/>
<path d="M197.94 427.972C197.707 428.421 197.356 428.799 196.923 429.062C196.491 429.326 195.994 429.465 195.488 429.465H155.537V427.541C155.539 425.635 156.298 423.806 157.646 422.458C158.995 421.11 160.823 420.351 162.731 420.349H163.864C164.733 419.151 165.873 418.175 167.192 417.502C168.511 416.829 169.97 416.478 171.451 416.477H173.198C173.994 415.529 174.988 414.768 176.11 414.246C177.232 413.723 178.455 413.453 179.692 413.454H181.544C183.273 413.452 184.961 413.979 186.382 414.962C187.804 415.946 188.891 417.34 189.499 418.957C190.812 419.081 192.083 419.487 193.223 420.148C194.364 420.81 195.348 421.71 196.108 422.788L197.748 425.112C198.039 425.526 198.211 426.011 198.245 426.515C198.278 427.019 198.173 427.523 197.94 427.972Z" fill="#E7D3A1"/>
<path d="M163.989 420.854H162.729C160.955 420.854 159.254 421.558 158 422.812C156.746 424.066 156.041 425.766 156.041 427.54V428.957H184.309" stroke="#51A9AE" stroke-width="3" stroke-miterlimit="10" stroke-linecap="round"/>
<path d="M162.576 428.957V425.849C162.576 424.685 162.805 423.532 163.251 422.456C163.696 421.38 164.35 420.402 165.173 419.578C165.997 418.755 166.975 418.101 168.051 417.656C169.127 417.21 170.28 416.98 171.445 416.98H173.316" stroke="#51A9AE" stroke-width="3" stroke-miterlimit="10" stroke-linecap="round"/>
<path d="M171.697 428.957V421.953C171.697 419.833 172.539 417.8 174.038 416.301C175.537 414.802 177.571 413.96 179.691 413.959H181.545C183.222 413.96 184.857 414.487 186.218 415.467C187.579 416.447 188.598 417.83 189.13 419.421" stroke="#51A9AE" stroke-width="3" stroke-miterlimit="10" stroke-linecap="round"/>
<path d="M182.375 427.023V425.151C182.375 423.63 182.979 422.172 184.055 421.096C185.13 420.021 186.589 419.417 188.11 419.417H188.662C190.042 419.417 191.403 419.75 192.628 420.386C193.854 421.021 194.909 421.942 195.704 423.071L197.343 425.397C197.581 425.735 197.722 426.131 197.75 426.543C197.778 426.955 197.693 427.367 197.503 427.733C197.313 428.1 197.027 428.408 196.674 428.623C196.322 428.838 195.917 428.953 195.504 428.953H184.326C184.071 428.956 183.818 428.907 183.582 428.811C183.345 428.715 183.13 428.574 182.949 428.394C182.767 428.215 182.623 428.001 182.525 427.766C182.426 427.53 182.375 427.278 182.375 427.023V427.023Z" stroke="#51A9AE" stroke-width="3" stroke-miterlimit="10" stroke-linecap="round"/>
<path d="M244.499 450.114C247.244 450.114 249.469 447.889 249.469 445.145C249.469 442.401 247.244 440.176 244.499 440.176C241.754 440.176 239.529 442.401 239.529 445.145C239.529 447.889 241.754 450.114 244.499 450.114Z" fill="#D89E75"/>
<path d="M251.735 442.885C254.48 442.885 256.705 440.661 256.705 437.916C256.705 435.172 254.48 432.948 251.735 432.948C248.991 432.948 246.766 435.172 246.766 437.916C246.766 440.661 248.991 442.885 251.735 442.885Z" fill="#E5D2E0"/>
<path d="M253.78 458.714C253.891 458.691 254.001 458.665 254.111 458.637C254.712 458.473 255.293 458.246 255.846 457.96C256.931 457.415 257.918 456.693 258.766 455.823C260.513 454.024 261.613 451.695 261.893 449.203C261.941 448.776 261.965 448.346 261.965 447.916H240.243C240.186 447.916 240.374 449.654 240.399 449.812C240.704 451.649 241.458 453.383 242.596 454.858C243.325 455.805 244.204 456.626 245.198 457.291C245.806 457.708 246.453 458.065 247.131 458.355C247.782 458.626 248.45 458.657 249.112 458.856C249.662 459.027 250.144 459.368 250.487 459.831C250.83 460.294 251.016 460.854 251.019 461.43V462.815C251.019 465.26 249.101 467.245 246.734 467.245H255.474C253.107 467.245 251.189 465.26 251.189 462.815V461.428C251.19 461.029 251.279 460.636 251.451 460.275C251.622 459.915 251.871 459.597 252.18 459.345C252.644 458.959 253.216 458.843 253.78 458.714Z" stroke="#51A9AE" stroke-width="3" stroke-miterlimit="10" stroke-linecap="round"/>
<path d="M248.818 447.707L262.587 432.946" stroke="#51A9AE" stroke-width="3" stroke-miterlimit="10" stroke-linecap="round"/>
<path d="M256.982 451.723C260.085 451.723 262.6 449.208 262.6 446.107C262.6 443.005 260.085 440.491 256.982 440.491C253.88 440.491 251.365 443.005 251.365 446.107C251.365 449.208 253.88 451.723 256.982 451.723Z" fill="#B9ABCF"/>
<path d="M212.308 450.715C215.22 450.715 217.58 448.355 217.58 445.445C217.58 442.534 215.22 440.174 212.308 440.174C209.397 440.174 207.037 442.534 207.037 445.445C207.037 448.355 209.397 450.715 212.308 450.715Z" fill="#E7D3A1"/>
<path d="M219.142 442.885C221.886 442.885 224.111 440.661 224.111 437.916C224.111 435.172 221.886 432.948 219.142 432.948C216.397 432.948 214.172 435.172 214.172 437.916C214.172 440.661 216.397 442.885 219.142 442.885Z" fill="#D89E75"/>
<path d="M216.227 447.707L229.995 432.946" stroke="#B9ABCF" stroke-width="3" stroke-miterlimit="10" stroke-linecap="round"/>
<path d="M224.393 451.723C227.495 451.723 230.01 449.208 230.01 446.107C230.01 443.005 227.495 440.491 224.393 440.491C221.29 440.491 218.775 443.005 218.775 446.107C218.775 449.208 221.29 451.723 224.393 451.723Z" fill="#51A9AE"/>
<path d="M220.986 458.714C221.096 458.691 221.207 458.665 221.317 458.637C221.918 458.473 222.499 458.247 223.052 457.96C224.137 457.415 225.125 456.693 225.972 455.823C227.719 454.024 228.819 451.695 229.099 449.203C229.147 448.776 229.171 448.346 229.171 447.916H207.453C207.394 447.916 207.582 449.654 207.607 449.812C207.911 451.649 208.666 453.383 209.803 454.858C210.533 455.805 211.412 456.626 212.406 457.291C213.014 457.708 213.661 458.065 214.339 458.355C214.99 458.626 215.658 458.657 216.32 458.856C216.87 459.027 217.351 459.368 217.694 459.831C218.037 460.294 218.224 460.854 218.227 461.43V462.815C218.227 465.26 216.309 467.245 213.942 467.245H222.682C220.315 467.245 218.396 465.26 218.396 462.815V461.428C218.398 461.029 218.487 460.636 218.658 460.275C218.83 459.915 219.079 459.597 219.388 459.345C219.849 458.959 220.421 458.843 220.986 458.714Z" stroke="#51A9AE" stroke-width="3" stroke-miterlimit="10" stroke-linecap="round"/>
<path d="M179.715 450.715C182.794 450.715 185.29 448.219 185.29 445.141C185.29 442.063 182.794 439.567 179.715 439.567C176.637 439.567 174.141 442.063 174.141 445.141C174.141 448.219 176.637 450.715 179.715 450.715Z" fill="#D89E75"/>
<path d="M186.55 442.885C189.294 442.885 191.52 440.661 191.52 437.916C191.52 435.172 189.294 432.948 186.55 432.948C183.805 432.948 181.58 435.172 181.58 437.916C181.58 440.661 183.805 442.885 186.55 442.885Z" fill="#51A9AE"/>
<path d="M183.633 447.707L197.403 432.946" stroke="#E7D3A1" stroke-width="3" stroke-miterlimit="10" stroke-linecap="round"/>
<path d="M188.609 458.714C188.72 458.691 188.83 458.665 188.941 458.637C189.541 458.473 190.122 458.246 190.675 457.96C191.76 457.415 192.747 456.693 193.596 455.823C195.343 454.024 196.442 451.695 196.722 449.203C196.77 448.776 196.794 448.346 196.794 447.916H175.082C175.023 447.916 175.212 449.654 175.238 449.812C175.542 451.649 176.297 453.383 177.434 454.858C178.164 455.804 179.042 456.626 180.035 457.291C180.643 457.708 181.292 458.064 181.97 458.355C182.621 458.626 183.288 458.657 183.951 458.856C184.501 459.027 184.982 459.368 185.325 459.831C185.668 460.294 185.855 460.854 185.858 461.43V462.815C185.858 465.26 183.94 467.245 181.572 467.245H190.311C187.945 467.245 186.025 465.26 186.025 462.815V461.428C186.027 461.029 186.117 460.635 186.288 460.275C186.46 459.915 186.709 459.597 187.018 459.345C187.473 458.959 188.045 458.843 188.609 458.714Z" stroke="#51A9AE" stroke-width="3" stroke-miterlimit="10" stroke-linecap="round"/>
<path d="M191.791 451.71C194.891 451.71 197.403 449.198 197.403 446.099C197.403 443.001 194.891 440.489 191.791 440.489C188.692 440.489 186.18 443.001 186.18 446.099C186.18 449.198 188.692 451.71 191.791 451.71Z" fill="#E5D2E0"/>
<path d="M132.912 454.687L130.109 467.235H119.099L116.41 455.198C117.141 455.522 117.936 455.678 118.735 455.656C120.022 455.656 121.545 455.395 122.213 454.381C122.134 456.286 123.249 458.699 125.927 458.692C127.865 458.692 128.985 456.825 129.27 455.514C129.27 455.514 131.34 455.676 132.912 454.687Z" fill="#E7D3A1"/>
<path d="M118.737 455.656C120.024 455.656 121.547 455.395 122.215 454.382C122.136 456.287 123.25 458.699 125.928 458.692C127.867 458.692 128.987 456.825 129.272 455.514C129.272 455.514 134.319 455.897 134.643 451.719C134.943 447.868 129.655 444.827 124.505 444.827C119.355 444.827 114.389 447.912 114.389 451.719C114.389 453.32 115.194 455.656 118.737 455.656Z" fill="#D89E75"/>
<path d="M118.497 452.32C118.975 452.32 119.362 451.933 119.362 451.456C119.362 450.978 118.975 450.591 118.497 450.591C118.02 450.591 117.633 450.978 117.633 451.456C117.633 451.933 118.02 452.32 118.497 452.32Z" fill="#51A9AE"/>
<path d="M120.624 448.853C121.102 448.853 121.488 448.466 121.488 447.989C121.488 447.512 121.102 447.125 120.624 447.125C120.147 447.125 119.76 447.512 119.76 447.989C119.76 448.466 120.147 448.853 120.624 448.853Z" fill="#51A9AE"/>
<path d="M123.253 450.323C123.73 450.323 124.117 449.936 124.117 449.459C124.117 448.982 123.73 448.595 123.253 448.595C122.776 448.595 122.389 448.982 122.389 449.459C122.389 449.936 122.776 450.323 123.253 450.323Z" fill="#51A9AE"/>
<path d="M126.591 454.952C127.068 454.952 127.455 454.565 127.455 454.087C127.455 453.61 127.068 453.223 126.591 453.223C126.114 453.223 125.727 453.61 125.727 454.087C125.727 454.565 126.114 454.952 126.591 454.952Z" fill="#51A9AE"/>
<path d="M129.023 452.118C129.5 452.118 129.887 451.731 129.887 451.253C129.887 450.776 129.5 450.389 129.023 450.389C128.545 450.389 128.158 450.776 128.158 451.253C128.158 451.731 128.545 452.118 129.023 452.118Z" fill="#51A9AE"/>
<path d="M131.45 447.868C131.928 447.868 132.315 447.481 132.315 447.004C132.315 446.527 131.928 446.14 131.45 446.14C130.973 446.14 130.586 446.527 130.586 447.004C130.586 447.481 130.973 447.868 131.45 447.868Z" fill="#51A9AE"/>
<path d="M126.999 448.272C127.477 448.272 127.863 447.885 127.863 447.408C127.863 446.931 127.477 446.544 126.999 446.544C126.522 446.544 126.135 446.931 126.135 447.408C126.135 447.885 126.522 448.272 126.999 448.272Z" fill="#51A9AE"/>
<path d="M136.165 415.673L133.151 428.755H122.148L119.592 417.633C120.357 418.151 121.265 418.416 122.189 418.391C122.801 418.388 123.402 418.233 123.939 417.94C124.475 417.646 124.93 417.224 125.262 416.71C125.469 417.537 125.947 418.271 126.62 418.796C127.292 419.32 128.121 419.605 128.974 419.604C130.414 419.604 132.744 418.223 132.32 415.618C132.32 415.618 134.681 416.657 136.165 415.673Z" fill="#51A9AE"/>
<path d="M122.188 418.391C122.8 418.388 123.401 418.233 123.938 417.94C124.475 417.646 124.93 417.224 125.262 416.71C125.469 417.537 125.947 418.271 126.619 418.796C127.292 419.32 128.121 419.605 128.973 419.604C130.414 419.604 132.744 418.223 132.319 415.618C132.319 415.618 136.713 417.55 137.285 413.645C137.761 410.371 134.037 406.752 127.559 406.752C122.409 406.752 117.627 409.836 117.627 413.645C117.631 415.246 118.646 418.391 122.188 418.391Z" fill="#B9ABCF"/>
<path d="M135.182 420.23C135.964 420.23 136.598 419.596 136.598 418.814C136.598 418.032 135.964 417.398 135.182 417.398C134.4 417.398 133.766 418.032 133.766 418.814C133.766 419.596 134.4 420.23 135.182 420.23Z" fill="#B9ABCF"/>
<path d="M121.571 412.098C122.049 412.098 122.436 411.711 122.436 411.234C122.436 410.757 122.049 410.37 121.571 410.37C121.094 410.37 120.707 410.757 120.707 411.234C120.707 411.711 121.094 412.098 121.571 412.098Z" fill="#E7D3A1"/>
<path d="M123.948 414.691C124.426 414.691 124.813 414.304 124.813 413.827C124.813 413.349 124.426 412.962 123.948 412.962C123.471 412.962 123.084 413.349 123.084 413.827C123.084 414.304 123.471 414.691 123.948 414.691Z" fill="#E7D3A1"/>
<path d="M126.329 409.937C126.807 409.937 127.194 409.55 127.194 409.073C127.194 408.596 126.807 408.209 126.329 408.209C125.852 408.209 125.465 408.596 125.465 409.073C125.465 409.55 125.852 409.937 126.329 409.937Z" fill="#E7D3A1"/>
<path d="M128.489 416.636C128.967 416.636 129.354 416.249 129.354 415.772C129.354 415.295 128.967 414.908 128.489 414.908C128.012 414.908 127.625 415.295 127.625 415.772C127.625 416.249 128.012 416.636 128.489 416.636Z" fill="#E7D3A1"/>
<path d="M130.651 412.098C131.129 412.098 131.516 411.711 131.516 411.234C131.516 410.757 131.129 410.37 130.651 410.37C130.174 410.37 129.787 410.757 129.787 411.234C129.787 411.711 130.174 412.098 130.651 412.098Z" fill="#E7D3A1"/>
<path d="M132.901 408.779C133.379 408.779 133.766 408.392 133.766 407.914C133.766 407.437 133.379 407.05 132.901 407.05C132.424 407.05 132.037 407.437 132.037 407.914C132.037 408.392 132.424 408.779 132.901 408.779Z" fill="#E7D3A1"/>
<path d="M135.191 414.259C135.668 414.259 136.055 413.872 136.055 413.394C136.055 412.917 135.668 412.53 135.191 412.53C134.713 412.53 134.326 412.917 134.326 413.394C134.326 413.872 134.713 414.259 135.191 414.259Z" fill="#E7D3A1"/>
<path d="M162.109 454.929L159.35 467.235H148.341L145.766 455.755C146.4 456.216 147.25 456.52 148.372 456.52C148.976 456.522 149.571 456.377 150.107 456.097C150.642 455.817 151.102 455.411 151.445 454.915C151.675 455.719 152.163 456.425 152.834 456.923C153.505 457.422 154.323 457.686 155.159 457.673C155.831 457.678 156.494 457.508 157.08 457.178C157.667 456.849 158.157 456.372 158.503 455.795C158.503 455.795 160.701 456.121 162.109 454.929Z" fill="#51A9AE"/>
<path d="M148.391 456.52C148.995 456.522 149.59 456.377 150.126 456.097C150.661 455.817 151.121 455.411 151.464 454.915C151.693 455.719 152.182 456.425 152.853 456.923C153.524 457.422 154.341 457.686 155.178 457.673C155.85 457.678 156.513 457.508 157.099 457.178C157.686 456.849 158.176 456.372 158.521 455.795C158.521 455.795 163.285 456.491 163.285 451.976C163.285 448.114 158.909 445.389 153.761 445.389C148.613 445.389 144.037 448.331 144.037 451.976C144.037 453.513 144.85 456.52 148.391 456.52Z" fill="#E5D2E0"/>
<path d="M147.687 453.622C148.175 453.622 148.57 453.227 148.57 452.74C148.57 452.252 148.175 451.857 147.687 451.857C147.2 451.857 146.805 452.252 146.805 452.74C146.805 453.227 147.2 453.622 147.687 453.622Z" fill="white"/>
<path d="M150.516 449.438C151.003 449.438 151.398 449.043 151.398 448.556C151.398 448.068 151.003 447.673 150.516 447.673C150.028 447.673 149.633 448.068 149.633 448.556C149.633 449.043 150.028 449.438 150.516 449.438Z" fill="white"/>
<path d="M152.59 452.136C153.077 452.136 153.473 451.741 153.473 451.254C153.473 450.766 153.077 450.371 152.59 450.371C152.102 450.371 151.707 450.766 151.707 451.254C151.707 451.741 152.102 452.136 152.59 452.136Z" fill="white"/>
<path d="M156.969 450.341C157.456 450.341 157.851 449.946 157.851 449.459C157.851 448.971 157.456 448.576 156.969 448.576C156.481 448.576 156.086 448.971 156.086 449.459C156.086 449.946 156.481 450.341 156.969 450.341Z" fill="white"/>
<path d="M153.477 446.279C153.964 446.279 154.359 445.884 154.359 445.397C154.359 444.909 153.964 444.514 153.477 444.514C152.989 444.514 152.594 444.909 152.594 445.397C152.594 445.884 152.989 446.279 153.477 446.279Z" fill="white"/>
<path d="M161.197 449.173C161.685 449.173 162.08 448.778 162.08 448.291C162.08 447.803 161.685 447.408 161.197 447.408C160.71 447.408 160.314 447.803 160.314 448.291C160.314 448.778 160.71 449.173 161.197 449.173Z" fill="white"/>
<path d="M158.734 454.718C159.222 454.718 159.617 454.323 159.617 453.835C159.617 453.348 159.222 452.953 158.734 452.953C158.247 452.953 157.852 453.348 157.852 453.835C157.852 454.323 158.247 454.718 158.734 454.718Z" fill="white"/>
<path d="M285.031 467.236H106.281V378.995H196.141C211.662 378.995 226.835 383.601 239.735 392.23C252.636 400.859 262.685 413.122 268.608 427.466L285.031 467.236Z" stroke="#51A9AE" stroke-width="4" stroke-miterlimit="10" stroke-linecap="round"/>
<path d="M106.406 428.957H268.794" stroke="#51A9AE" stroke-width="4" stroke-miterlimit="10" stroke-linecap="round"/>
<path d="M177.537 467.236H106.281V379.131C129.535 383.015 149.532 399.423 158.732 421.701L177.537 467.236Z" stroke="#51A9AE" stroke-width="4" stroke-miterlimit="10" stroke-linecap="round"/>
<path d="M328.001 298.112C327.977 299.757 327.492 301.324 326.651 302.476C325.81 303.628 324.679 304.273 323.501 304.273C322.323 304.273 321.193 303.628 320.351 302.476C319.51 301.324 319.026 299.757 319.002 298.112" stroke="#51A9AE" stroke-width="4" stroke-miterlimit="10"/>
<path d="M323.352 125.012L323.796 278.819" stroke="#51A9AE" stroke-width="4" stroke-miterlimit="10" stroke-linecap="round"/>
<path d="M359.378 298.05H288.219C288.658 295.461 289.709 293.155 291.202 291.504C292.696 289.854 294.544 288.955 296.448 288.954H304.752C305.264 288.955 305.769 288.798 306.233 288.496C306.697 288.193 307.107 287.752 307.435 287.204L310.706 281.742C311.253 280.83 311.936 280.096 312.707 279.593C313.479 279.09 314.32 278.829 315.171 278.83H332.416C333.268 278.829 334.108 279.09 334.88 279.593C335.651 280.096 336.334 280.83 336.88 281.742L340.16 287.216C340.488 287.764 340.898 288.204 341.361 288.506C341.824 288.808 342.329 288.964 342.84 288.964H351.14C353.045 288.962 354.894 289.858 356.389 291.507C357.884 293.155 358.937 295.461 359.378 298.05Z" fill="#E5D2E0"/>
<path d="M214.348 111.291L214.277 278.819" stroke="#51A9AE" stroke-width="4" stroke-miterlimit="10" stroke-linecap="round"/>
<path d="M249.852 298.05H178.701C179.14 295.461 180.192 293.155 181.685 291.504C183.178 289.854 185.026 288.955 186.93 288.954H195.227C195.739 288.955 196.244 288.798 196.708 288.496C197.172 288.193 197.582 287.752 197.911 287.204L201.188 281.742C201.735 280.83 202.418 280.096 203.19 279.593C203.961 279.09 204.802 278.829 205.654 278.83H222.906C223.756 278.831 224.596 279.092 225.365 279.595C226.135 280.099 226.817 280.831 227.363 281.742L230.642 287.216C230.97 287.764 231.38 288.204 231.843 288.506C232.306 288.808 232.811 288.964 233.322 288.964H241.623C243.526 288.965 245.373 289.862 246.866 291.51C248.359 293.159 249.411 295.463 249.852 298.05Z" fill="#D89E75"/>
<path d="M218.887 298.112C218.863 299.757 218.379 301.324 217.538 302.476C216.697 303.628 215.566 304.273 214.388 304.273C213.21 304.273 212.079 303.628 211.238 302.476C210.397 301.324 209.912 299.757 209.889 298.112" stroke="#51A9AE" stroke-width="4" stroke-miterlimit="10"/>
<path fill-rule="evenodd" clip-rule="evenodd" d="M411.798 0H750.612L783.023 108.181C783.023 124.951 761.588 138.535 735.191 138.535C708.794 138.535 687.389 124.951 687.389 108.181C687.389 124.943 665.985 138.535 639.587 138.535C613.19 138.535 591.785 124.951 591.785 108.181C591.785 124.943 570.381 138.535 543.984 138.535C517.586 138.535 496.182 124.951 496.182 108.181C496.182 124.951 474.777 138.535 448.38 138.535C424.417 138.535 404.568 127.34 401.111 112.73C397.655 127.34 377.806 138.535 353.842 138.535C327.445 138.535 306.041 124.951 306.041 108.181C306.041 124.951 284.636 138.535 258.239 138.535C231.841 138.535 210.437 124.943 210.437 108.181C210.437 124.951 189.033 138.535 162.635 138.535C136.238 138.535 114.833 124.943 114.833 108.181C114.833 124.951 93.4289 138.535 67.0315 138.535C40.6342 138.535 19.1992 124.951 19.1992 108.181L51.6109 0H390.425H411.798Z" fill="#D89E75"/>
<path d="M31.3984 100.619H770.798" stroke="#F3E9C3" stroke-width="6" stroke-miterlimit="10" stroke-linecap="round"/>
<g filter="url(#filter0_i_223_6401)">
<path d="M353.902 42.7657V21.3438H357.326V42.7657H353.902ZM359.785 34.7691L357.763 25.144H356.844L356.996 21.3438H359.184L361.054 30.7723H361.176L361.553 34.7691H359.785ZM360.661 34.7691L361.112 30.7723H361.292L363.165 21.3438H365.353L365.502 25.144H364.583L362.561 34.7691H360.661ZM365.02 42.7657V21.3438H368.444V42.7657H365.02Z" fill="#F3E9C3"/>
<path d="M372.609 24.6315V21.3438H385.946V24.6315H372.609ZM372.609 42.7657V39.4613H385.946V42.7657H372.609ZM377.434 42.7657V21.3438H381.085V42.7657H377.434Z" fill="#F3E9C3"/>
<path d="M390.592 42.7657V21.3438H394.229V42.7657H390.592ZM390.592 42.7657V39.4169H405.075V42.7657H390.592Z" fill="#F3E9C3"/>
<path d="M408.543 42.7657V21.3438H412.18V42.7657H408.543ZM410.595 35.9463L410.867 32.3566C412.346 32.3566 413.623 32.0464 414.698 31.4287C415.772 30.8111 416.661 29.9801 417.359 28.9386C418.057 27.8972 418.575 26.72 418.913 25.4099C419.251 24.097 419.417 22.7425 419.417 21.3438H423.085C423.085 23.2439 422.805 25.0692 422.248 26.8197C421.691 28.5703 420.874 30.1324 419.805 31.5035C418.733 32.8773 417.423 33.9604 415.875 34.7553C414.326 35.5502 412.565 35.9463 410.595 35.9463ZM419.705 42.7657L414.952 32.8995L418.257 31.3595L424.109 42.7629H419.705V42.7657Z" fill="#F3E9C3"/>
<path d="M432.014 36.0682L424.76 21.3438H428.757L433.449 31.6032H433.72L438.412 21.3438H442.409L435.152 36.0682H432.014ZM431.759 42.7657V32.2043H435.41V42.7657H431.759Z" fill="#F3E9C3"/>
<path d="M365.623 65.7551C362.74 64.6333 356.752 66.309 352.489 68.1316C340.235 73.3693 338.285 62.8412 345.539 60.027C349.237 58.5923 353.483 58.7141 357.123 60.1295C360.341 61.3787 363.017 63.5503 365.623 65.7551Z" fill="#F3E9C3"/>
<path d="M356.464 57.2654C353.362 55.731 349.047 55.7116 345.756 54.7975C333.904 51.507 339.158 40.6575 345.15 43.696C350.266 46.2886 351.099 51.6648 356.464 57.2654Z" fill="#F3E9C3"/>
<path d="M345.065 57.4677C343.422 56.6007 338.907 54.4208 335.564 54.8862C327.95 55.9498 330.933 64.3646 336.37 62.2235C339.234 61.0961 341.323 58.0438 345.065 57.4677Z" fill="#F3E9C3"/>
<path d="M339.736 63.5556C340.387 64.0846 340.486 65.0429 339.957 65.6937C339.428 66.3446 338.47 66.4443 337.819 65.9153C337.168 65.3863 337.069 64.4281 337.598 63.7772C338.127 63.1264 339.082 63.0267 339.736 63.5556Z" fill="#F3E9C3"/>
<path d="M337.418 50.6153C337.809 50.9338 337.87 51.5071 337.551 51.8976C337.233 52.2881 336.659 52.349 336.269 52.0305C335.878 51.712 335.818 51.1388 336.136 50.7483C336.452 50.3577 337.025 50.2996 337.418 50.6153Z" fill="#F3E9C3"/>
<path d="M425.143 65.7551C428.026 64.6333 434.014 66.309 438.277 68.1316C450.531 73.3693 452.481 62.8412 445.227 60.027C441.529 58.5923 437.283 58.7141 433.643 60.1295C430.425 61.3787 427.749 63.5503 425.143 65.7551Z" fill="#F3E9C3"/>
<path d="M434.301 57.2654C437.403 55.731 441.718 55.7116 445.009 54.7975C456.858 51.507 451.607 40.6575 445.613 43.696C440.5 46.2886 439.666 51.6648 434.301 57.2654Z" fill="#F3E9C3"/>
<path d="M445.701 57.4677C447.344 56.6007 451.859 54.4208 455.202 54.8862C462.816 55.9498 459.833 64.3646 454.396 62.2235C451.532 61.0961 449.443 58.0438 445.701 57.4677Z" fill="#F3E9C3"/>
<path d="M451.028 63.5556C450.377 64.0846 450.278 65.0429 450.807 65.6937C451.336 66.3446 452.294 66.4443 452.945 65.9153C453.596 65.3863 453.695 64.4281 453.166 63.7772C452.637 63.1264 451.682 63.0267 451.028 63.5556Z" fill="#F3E9C3"/>
<path d="M453.349 50.6153C452.959 50.9338 452.898 51.5071 453.216 51.8976C453.535 52.2881 454.108 52.349 454.498 52.0305C454.889 51.712 454.95 51.1388 454.631 50.7483C454.316 50.3577 453.742 50.2996 453.349 50.6153Z" fill="#F3E9C3"/>
<path d="M370.832 67.9707V46.5488H374.469V67.9707H370.832ZM373.231 57.4398V55.9607H379.266V57.4398H373.231ZM374.256 56.4898V54.9802H377.408C378.424 54.9802 379.2 54.7558 379.737 54.3099C380.274 53.864 380.543 53.2103 380.543 52.3572C380.543 51.5539 380.258 50.9418 379.69 50.5235C379.122 50.1053 378.288 49.8976 377.194 49.8976H374.314L373.954 46.5488H377.347C379.568 46.5488 381.285 47.0114 382.499 47.9365C383.712 48.8616 384.316 50.1856 384.316 51.9029C384.316 53.3709 383.806 54.5038 382.784 55.296C381.762 56.0909 380.313 56.487 378.432 56.487H374.256V56.4898ZM374.256 67.9707V64.622H378.313C379.499 64.622 380.421 64.3478 381.075 63.7994C381.729 63.2509 382.055 62.4782 382.055 61.4838C382.055 60.4783 381.712 59.7028 381.031 59.1543C380.346 58.6059 379.371 58.3317 378.103 58.3317H374.316L373.954 56.8221H379.61C381.59 56.8221 383.122 57.2792 384.202 58.196C385.282 59.11 385.825 60.4091 385.825 62.0876C385.825 63.9572 385.249 65.4059 384.097 66.4335C382.945 67.4583 381.308 67.9735 379.186 67.9735H374.256V67.9707Z" fill="#F3E9C3"/>
<path d="M387.197 67.9707L393.382 46.5488H398.058L404.243 67.9707H400.396L395.856 50.7285H395.584L391.045 67.9707H387.197ZM390.214 63.4448V60.0961H401.074V63.4448H390.214Z" fill="#F3E9C3"/>
<path d="M406.734 67.9707V46.5488H410.371V67.9707H406.734ZM410.158 60.0047V56.656H414.246C415.282 56.656 416.085 56.3651 416.659 55.7807C417.232 55.1963 417.517 54.3819 417.517 53.3377C417.517 52.2408 417.229 51.3933 416.659 50.795C416.088 50.1967 415.282 49.8976 414.246 49.8976H410.219L409.856 46.5488H414.246C416.52 46.5488 418.274 47.1111 419.512 48.2384C420.75 49.3658 421.367 50.9639 421.367 53.0358C421.367 55.2378 420.75 56.9496 419.512 58.1711C418.274 59.3926 416.52 60.0047 414.246 60.0047H410.158ZM417.852 67.9707L413.507 57.8941H417.354L422.151 67.9707H417.852Z" fill="#F3E9C3"/>
</g>
<path d="M62.4054 327.003L61.8779 326.954C61.7821 326.928 61.1144 326.857 61.6314 326.925C62.1484 326.994 61.4077 326.893 61.2826 326.875C61.0374 326.842 60.7884 326.802 60.5459 326.759C59.6085 326.605 58.6805 326.416 57.757 326.19C56.6375 325.915 55.531 325.592 54.4376 325.22C53.9124 325.041 53.3861 324.846 52.874 324.638C52.7378 324.602 52.5965 324.564 52.4725 324.482C52.9879 324.718 52.6339 324.525 52.5179 324.494C52.1796 324.344 51.84 324.199 51.5044 324.039C49.223 322.956 47.0585 321.642 45.0447 320.118L44.313 319.56C43.8414 319.201 44.673 319.851 44.4017 319.632L43.9581 319.27C43.3807 318.802 42.8124 318.32 42.2595 317.82C41.5982 317.221 40.9634 316.597 40.3553 315.947C40.069 315.644 39.7854 315.33 39.5247 315.011C39.2431 314.608 38.9338 314.225 38.5989 313.865C38.674 313.848 38.9506 314.349 38.6523 313.928L38.4505 313.653C38.3007 313.445 38.1573 313.233 38.0207 312.997C37.7341 312.56 37.4591 312.113 37.1957 311.657C36.9556 311.241 36.7334 310.819 36.5176 310.393C36.3988 310.151 36.2827 309.898 36.1767 309.648C36.1388 309.567 35.9791 309.195 36.1203 309.535C36.2615 309.876 36.0707 309.398 36.0415 309.325C35.6204 308.239 35.2909 307.12 35.0564 305.979C35.0086 305.734 34.9608 305.489 34.9244 305.241L34.8736 304.946C34.8035 304.522 34.901 305.126 34.9016 305.164C34.8797 304.661 34.7831 304.154 34.7648 303.657C34.6911 302.664 34.6694 301.667 34.6998 300.671C34.7165 300.205 34.7446 299.737 34.7828 299.272C34.8193 299.135 34.8118 298.982 34.8295 298.835L34.8511 298.755L34.8065 298.921L34.8438 298.661C34.8884 298.494 34.8927 298.317 34.9235 298.141C35.0922 297.168 35.3483 296.213 35.6886 295.286C35.7384 295.189 35.7767 295.087 35.8026 294.981C35.7837 295.355 35.5918 295.466 35.7459 295.193C35.8999 294.921 35.9196 294.807 36.0177 294.623C36.243 294.186 36.5243 293.801 36.7822 293.384C36.9555 293.1 36.4049 293.823 36.641 293.568C36.7094 293.494 36.7677 293.418 36.831 293.343C36.9833 293.178 37.1379 293.025 37.2962 292.878C37.3683 292.811 37.444 292.75 37.5148 292.688C37.7205 292.505 37.6994 292.705 37.3312 292.828C37.5536 292.721 37.7674 292.598 37.9709 292.459L38.2341 292.324C38.6239 292.12 38.0847 292.397 38.0837 292.381C38.0827 292.364 38.81 292.132 38.8864 292.109C39.197 292.019 39.51 291.941 39.8239 291.879C39.904 291.863 40.3522 291.805 40.012 291.843C39.6719 291.882 40.3468 291.825 40.4178 291.822C40.645 291.803 40.873 291.793 41.1011 291.794C41.7225 291.755 41.272 291.802 41.1011 291.794C41.241 291.804 41.3795 291.828 41.5141 291.867C41.7815 291.939 42.0489 292.01 42.3163 292.082C42.8782 292.265 42.2456 292.063 42.2456 292.063C42.4423 292.142 42.6294 292.243 42.8031 292.364C42.9103 292.418 43.0105 292.484 43.1012 292.563C43.0788 292.465 42.7218 292.223 42.9923 292.485L43.249 292.738C43.2877 292.775 43.7131 293.165 43.4036 292.887C43.0941 292.61 43.4036 292.887 43.4691 292.986L43.6615 293.297C43.7045 293.379 43.8842 293.616 43.8676 293.698C43.9122 293.532 43.6979 293.242 43.8373 293.69C43.8879 293.844 44.0906 294.299 44.0281 294.471C44.0281 294.471 44.006 293.827 43.99 294.331C43.9616 294.437 43.986 294.568 43.9879 294.682C43.9936 294.943 43.851 294.91 44.0338 294.51C43.9938 294.62 43.9635 294.733 43.9433 294.848C43.9514 294.818 43.8527 295.186 43.8527 295.186C44.0105 294.839 44.0423 294.761 43.9492 294.947C43.9276 295.028 43.8693 295.104 43.8211 295.183C43.7653 295.301 43.694 295.411 43.6091 295.51C44.0253 295.168 43.7566 295.323 43.6334 295.42C43.5102 295.516 43.4391 295.6 43.3501 295.69C43.6595 295.524 42.9274 296.117 43.3501 295.69C43.0408 295.856 42.902 295.97 42.6644 296.09C42.5191 296.175 42.3675 296.248 42.2109 296.309C42.5334 296.195 42.4368 296.213 42.1706 296.298C41.5997 296.494 41.0158 296.65 40.4233 296.766C40.2517 296.801 39.4478 296.915 39.967 296.854C39.5875 296.898 39.2106 296.933 38.8264 296.954C38.1794 296.986 37.531 296.98 36.8846 296.937L36.4291 296.901C36.3534 296.881 35.8704 296.827 36.2091 296.875L35.8782 296.818L35.3188 296.706C34.6837 296.577 34.057 296.409 33.4422 296.203C33.1496 296.125 32.8718 295.991 32.5924 295.884C33.082 296.075 32.7337 295.922 32.6227 295.892L32.0319 295.615C30.9693 295.091 29.9573 294.471 29.0087 293.761C28.9324 293.703 28.6124 293.444 28.8998 293.683C29.1871 293.922 28.7687 293.567 28.7374 293.542C28.5512 293.39 28.3701 293.239 28.1916 293.077C27.8159 292.744 27.4479 292.402 27.0955 292.043C26.5108 291.453 25.9544 290.839 25.4263 290.2L24.8432 289.471C24.7791 289.395 24.7191 289.316 24.6635 289.234C24.9596 289.702 24.7874 289.397 24.7118 289.295C24.5187 289.027 24.3141 288.762 24.1476 288.495C23.5277 287.574 22.9667 286.615 22.4679 285.623C22.2313 285.154 22.0125 284.679 21.8001 284.2C21.5877 283.722 21.826 284.245 21.8414 284.309C21.8028 284.194 21.7569 284.083 21.7038 283.975C21.5945 283.696 21.4865 283.413 21.3886 283.133C21.0417 282.168 20.7423 281.186 20.4905 280.189C20.2481 279.237 20.0514 278.276 19.885 277.323L19.7869 276.681C19.7051 276.118 19.8421 277.16 19.8039 276.799C19.7892 276.692 19.7745 276.585 19.7649 276.48C19.7056 276.015 19.6563 275.553 19.5984 275.084C19.3595 272.252 19.4091 269.402 19.7465 266.58C19.7722 266.485 19.774 266.377 19.7845 266.277C19.8287 265.91 19.6732 267.096 19.7407 266.622C19.7867 266.451 19.7859 266.272 19.8103 266.1C20.0091 264.753 19.4544 263.231 17.9638 262.902C16.713 262.626 14.9799 263.303 14.7656 264.748C13.7147 271.939 14.1589 279.422 16.9818 286.181C18.6783 290.306 21.2993 293.986 24.6428 296.938C26.8445 298.864 29.3989 300.343 32.1644 301.295C35.2591 302.308 38.5649 302.492 41.7532 301.831C44.8369 301.219 47.933 299.573 48.9077 296.379C49.8396 293.325 48.3091 290.017 45.8402 288.193C43.3714 286.369 39.7328 286.226 36.8569 287.213C34.491 287.997 32.5205 289.666 31.3588 291.871C29.1969 295.904 28.9257 300.952 29.535 305.397C30.2405 310.392 32.4081 315.067 35.765 318.832C38.2963 321.653 41.2 324.115 44.396 326.152C48.9186 329.065 54.0028 330.997 59.3193 331.821C60.3553 331.99 61.4008 332.125 62.4543 332.228C63.8177 332.367 65.113 330.902 65.0463 329.598C64.9707 328.064 63.8788 327.155 62.4155 327.006L62.4054 327.003Z" fill="#EAA8B5"/>
<path d="M805.322 607.688L805.41 608.21C805.41 608.309 805.515 608.973 805.447 608.456C805.379 607.939 805.473 608.68 805.489 608.806C805.52 609.051 805.546 609.302 805.567 609.547C805.661 610.493 805.718 611.438 805.739 612.388C805.764 613.541 805.738 614.693 805.661 615.846C805.624 616.399 805.572 616.958 805.504 617.507C805.504 617.648 805.504 617.794 805.457 617.935C805.551 617.376 805.457 617.768 805.457 617.888C805.4 618.254 805.348 618.619 805.28 618.985C804.824 621.469 804.115 623.899 803.165 626.239L802.815 627.09C802.59 627.639 803.003 626.667 802.862 626.986L802.627 627.508C802.324 628.187 802.005 628.861 801.666 629.524C801.258 630.318 800.82 631.093 800.349 631.848C800.13 632.203 799.9 632.559 799.66 632.893C799.344 633.269 799.054 633.667 798.793 634.084C798.757 634.016 799.169 633.619 798.84 634.016L798.626 634.282C798.464 634.48 798.297 634.674 798.104 634.867C797.756 635.257 797.395 635.638 797.023 636.011C796.683 636.35 796.333 636.674 795.978 636.993C795.774 637.17 795.56 637.348 795.346 637.515C795.278 637.572 794.96 637.823 795.252 637.598C795.545 637.374 795.132 637.682 795.069 637.729C794.129 638.417 793.134 639.025 792.092 639.546C791.868 639.656 791.643 639.766 791.413 639.865L791.142 639.99C790.75 640.168 791.309 639.917 791.346 639.907C790.865 640.058 790.4 640.283 789.925 640.429C788.984 640.757 788.027 641.036 787.058 641.265C786.603 641.369 786.144 641.463 785.684 641.547C785.543 641.547 785.397 641.594 785.251 641.615L785.167 641.615L785.339 641.615L785.078 641.646C784.906 641.646 784.734 641.688 784.556 641.703C783.573 641.792 782.583 641.792 781.6 641.703C781.494 641.68 781.385 641.67 781.276 641.672C781.642 641.594 781.798 641.75 781.496 641.672C781.193 641.594 781.078 641.604 780.874 641.557C780.394 641.453 779.95 641.28 779.48 641.139C779.161 641.045 780.002 641.39 779.694 641.228C779.605 641.181 779.516 641.145 779.427 641.103C779.229 640.998 779.041 640.889 778.858 640.774C778.775 640.722 778.696 640.664 778.618 640.612C778.388 640.46 778.587 640.429 778.801 640.753C778.64 640.566 778.466 640.391 778.278 640.231L778.08 640.011C777.782 639.687 778.19 640.137 778.174 640.142C778.158 640.147 777.746 639.505 777.704 639.437C777.537 639.16 777.38 638.878 777.239 638.591C777.202 638.518 777.03 638.1 777.155 638.418C777.281 638.737 777.051 638.1 777.03 638.032C776.952 637.817 776.885 637.6 776.826 637.379C776.79 637.212 776.628 636.789 776.826 637.379C776.799 637.242 776.787 637.101 776.79 636.961C776.79 636.684 776.79 636.408 776.79 636.131C776.821 635.541 776.79 636.204 776.79 636.204C776.815 635.994 776.864 635.787 776.936 635.588C776.96 635.47 776.999 635.356 777.051 635.248C776.962 635.295 776.821 635.703 777.004 635.374L777.182 635.06C777.208 635.013 777.474 634.501 777.286 634.872C777.098 635.243 777.286 634.872 777.364 634.783L777.615 634.517C777.683 634.454 777.866 634.219 777.949 634.214C777.777 634.214 777.552 634.496 777.949 634.245C778.085 634.157 778.472 633.843 778.654 633.859C778.654 633.859 778.038 634.047 778.529 633.932C778.639 633.932 778.759 633.875 778.869 633.843C779.119 633.77 779.124 633.916 778.691 633.843C778.807 633.854 778.924 633.854 779.041 633.843C779.01 633.843 779.391 633.843 779.391 633.843C779.015 633.781 778.931 633.77 779.135 633.812C779.218 633.812 779.307 633.849 779.396 633.875C779.524 633.898 779.649 633.938 779.767 633.995C779.328 633.681 779.547 633.901 779.673 633.995C779.798 634.089 779.897 634.136 780.007 634.198C780.529 634.496 779.767 633.943 780.007 634.198C780.247 634.454 780.394 634.559 780.571 634.757C780.691 634.876 780.801 635.003 780.9 635.139C780.707 634.856 780.749 634.945 780.9 635.18C781.237 635.681 781.539 636.205 781.804 636.747C781.882 636.904 782.201 637.651 782.007 637.165C782.148 637.52 782.279 637.875 782.399 638.241C782.598 638.857 782.76 639.485 782.885 640.121L782.968 640.57C782.968 640.648 783.041 641.129 783 640.789L783.031 641.124L783.068 641.693C783.107 642.34 783.107 642.989 783.068 643.636C783.068 643.939 783.01 644.242 782.979 644.539C783.036 644.017 782.979 644.393 782.979 644.508L782.864 645.15C782.633 646.312 782.296 647.45 781.856 648.55C781.819 648.639 781.652 649.015 781.809 648.676C781.966 648.336 781.731 648.832 781.715 648.869C781.616 649.088 781.516 649.302 781.407 649.517C781.182 649.966 780.947 650.41 780.691 650.843C780.273 651.56 779.824 652.257 779.344 652.932L778.79 653.684C778.733 653.766 778.672 653.844 778.607 653.919C778.983 653.512 778.733 653.757 778.654 653.857C778.445 654.113 778.242 654.379 778.028 654.609C777.298 655.446 776.517 656.236 775.688 656.975C775.296 657.325 774.894 657.659 774.487 657.988C774.079 658.317 774.523 657.951 774.581 657.92C774.48 657.987 774.384 658.06 774.293 658.139C774.053 658.317 773.808 658.494 773.562 658.662C772.72 659.247 771.849 659.79 770.951 660.291C770.094 660.772 769.217 661.21 768.34 661.618L767.744 661.879C767.222 662.103 768.193 661.701 767.854 661.832C767.755 661.874 767.655 661.915 767.556 661.952C767.123 662.129 766.689 662.297 766.25 662.474C763.577 663.438 760.812 664.127 757.999 664.532C757.899 664.532 757.795 664.558 757.696 664.574C757.33 664.626 758.516 664.469 758.04 664.527C757.863 664.527 757.69 664.574 757.518 664.595C756.165 664.751 754.839 665.681 754.907 667.206C754.964 668.485 756.066 669.984 757.518 669.817C764.736 668.971 771.849 666.605 777.646 662.129C781.192 659.423 784.069 655.939 786.055 651.945C787.345 649.32 788.113 646.47 788.316 643.552C788.493 640.301 787.816 637.06 786.353 634.151C784.963 631.331 782.571 628.767 779.234 628.652C776.043 628.542 773.244 630.877 772.121 633.734C770.998 636.59 771.802 640.142 773.5 642.664C774.869 644.747 776.992 646.218 779.422 646.769C783.877 647.814 788.823 646.769 792.959 645.03C797.602 643.056 801.556 639.753 804.324 635.535C806.393 632.36 808.02 628.918 809.16 625.304C810.804 620.181 811.354 614.771 810.774 609.422C810.67 608.377 810.529 607.333 810.356 606.288C810.137 604.936 808.387 604.063 807.144 604.466C805.682 604.936 805.086 606.226 805.322 607.678L805.322 607.688Z" fill="#EAA8B5"/>
<path d="M769.354 208.712H769.318L739.318 208.19C739.044 208.185 738.773 208.127 738.522 208.017C738.27 207.908 738.042 207.75 737.852 207.552C737.661 207.355 737.511 207.122 737.411 206.867C737.31 206.611 737.261 206.339 737.266 206.064C737.276 205.511 737.504 204.985 737.902 204.6C738.299 204.215 738.833 204.004 739.386 204.012L769.386 204.534C769.94 204.538 770.469 204.762 770.858 205.157C771.247 205.552 771.463 206.085 771.459 206.639C771.455 207.193 771.231 207.723 770.836 208.112C770.441 208.5 769.908 208.717 769.354 208.712Z" fill="#EAA8B5"/>
<path d="M754.025 228.277H753.988C753.714 228.272 753.443 228.213 753.192 228.104C752.94 227.994 752.712 227.837 752.522 227.639C752.331 227.442 752.181 227.209 752.081 226.953C751.98 226.698 751.931 226.425 751.936 226.151L752.594 186.521C752.604 185.974 752.828 185.452 753.219 185.068C753.609 184.684 754.135 184.469 754.683 184.469H754.72C754.994 184.474 755.266 184.532 755.518 184.642C755.77 184.752 755.997 184.91 756.188 185.108C756.379 185.306 756.528 185.54 756.629 185.796C756.729 186.052 756.778 186.325 756.772 186.6L756.109 226.235C756.097 226.78 755.872 227.298 755.482 227.68C755.093 228.061 754.57 228.276 754.025 228.277Z" fill="#EAA8B5"/>
<path d="M745.388 216.761C744.971 216.761 744.564 216.637 744.219 216.404C743.873 216.171 743.605 215.841 743.449 215.454C743.293 215.068 743.256 214.644 743.343 214.236C743.43 213.829 743.636 213.457 743.936 213.167L761.881 195.812C762.282 195.44 762.813 195.239 763.36 195.254C763.906 195.268 764.426 195.497 764.806 195.89C765.186 196.283 765.397 196.81 765.393 197.357C765.389 197.904 765.171 198.428 764.785 198.815L746.84 216.171C746.451 216.548 745.93 216.76 745.388 216.761Z" fill="#EAA8B5"/>
<path d="M763.029 217.591C762.749 217.592 762.472 217.536 762.213 217.428C761.955 217.319 761.721 217.16 761.525 216.959L744.196 199.014C743.811 198.616 743.599 198.08 743.608 197.526C743.617 196.972 743.845 196.443 744.243 196.058C744.642 195.672 745.177 195.46 745.731 195.469C746.286 195.478 746.814 195.707 747.199 196.105L764.554 214.05C764.839 214.345 765.031 214.717 765.106 215.12C765.181 215.523 765.136 215.939 764.976 216.316C764.816 216.694 764.549 217.016 764.208 217.242C763.866 217.469 763.465 217.59 763.056 217.591H763.029Z" fill="#EAA8B5"/>
<path d="M33.0007 594.42H32.9642L2.96496 593.898C2.6906 593.893 2.41987 593.835 2.16823 593.725C1.91659 593.616 1.68897 593.458 1.49837 593.26C1.30776 593.063 1.15792 592.83 1.05738 592.575C0.956845 592.319 0.907592 592.047 0.912435 591.772C0.922053 591.219 1.15071 590.693 1.54822 590.308C1.94574 589.923 2.47967 589.712 3.03285 589.72L33.0321 590.242C33.5861 590.246 34.1158 590.47 34.5047 590.865C34.8935 591.26 35.1096 591.793 35.1055 592.347C35.1013 592.901 34.8772 593.431 34.4825 593.82C34.0878 594.208 33.5548 594.425 33.0007 594.42Z" fill="#EAA8B5"/>
<path d="M17.6734 613.984H17.6368C17.3625 613.98 17.0917 613.921 16.8401 613.811C16.5885 613.702 16.3608 613.544 16.1702 613.347C15.9796 613.149 15.8298 612.916 15.7293 612.661C15.6287 612.406 15.5795 612.133 15.5843 611.859L16.2424 572.229C16.252 571.681 16.4763 571.159 16.867 570.775C17.2578 570.391 17.7837 570.176 18.3315 570.176H18.368C18.6428 570.181 18.914 570.24 19.166 570.35C19.418 570.459 19.6458 570.618 19.8365 570.816C20.0271 571.014 20.1769 571.247 20.2771 571.503C20.3773 571.759 20.4261 572.032 20.4205 572.307L19.7572 611.942C19.745 612.487 19.5202 613.006 19.1309 613.387C18.7415 613.769 18.2185 613.983 17.6734 613.984Z" fill="#EAA8B5"/>
<path d="M9.03458 602.468C8.61795 602.469 8.2107 602.344 7.86516 602.112C7.51963 601.879 7.2516 601.548 7.09551 601.162C6.93942 600.775 6.9024 600.351 6.98921 599.944C7.07602 599.536 7.28269 599.164 7.58267 598.875L25.5279 581.52C25.9284 581.147 26.4592 580.947 27.006 580.961C27.5529 580.976 28.0723 581.204 28.4526 581.597C28.8329 581.991 29.0437 582.517 29.0398 583.064C29.0359 583.611 28.8176 584.135 28.4317 584.523L10.4865 601.878C10.0975 602.256 9.5768 602.467 9.03458 602.468Z" fill="#EAA8B5"/>
<path d="M26.676 603.298C26.3957 603.299 26.118 603.244 25.8596 603.135C25.6012 603.027 25.3673 602.867 25.1718 602.667L7.84289 584.721C7.45712 584.323 7.24536 583.788 7.25417 583.234C7.26299 582.679 7.49166 582.151 7.88989 581.765C8.28812 581.379 8.82328 581.168 9.37765 581.177C9.93202 581.185 10.4602 581.414 10.8459 581.812L28.201 599.757C28.4859 600.052 28.6777 600.424 28.7527 600.827C28.8277 601.23 28.7825 601.646 28.6227 602.024C28.4629 602.401 28.1957 602.723 27.8541 602.95C27.5126 603.177 27.112 603.298 26.7021 603.298H26.676Z" fill="#EAA8B5"/>
<defs>
<filter id="filter0_i_223_6401" x="330.973" y="21.3438" width="128.82" height="52.2275" filterUnits="userSpaceOnUse" color-interpolation-filters="sRGB">
<feFlood flood-opacity="0" result="BackgroundImageFix"/>
<feBlend mode="normal" in="SourceGraphic" in2="BackgroundImageFix" result="shape"/>
<feColorMatrix in="SourceAlpha" type="matrix" values="0 0 0 0 0 0 0 0 0 0 0 0 0 0 0 0 0 0 127 0" result="hardAlpha"/>
<feOffset dy="6"/>
<feGaussianBlur stdDeviation="2"/>
<feComposite in2="hardAlpha" operator="arithmetic" k2="-1" k3="1"/>
<feColorMatrix type="matrix" values="0 0 0 0 0.835764 0 0 0 0 0.633903 0 0 0 0 0.447569 0 0 0 0.4 0"/>
<feBlend mode="normal" in2="shape" result="effect1_innerShadow_223_6401"/>
</filter>
</defs>
</svg>
