<svg width="1920" height="3305" viewBox="0 0 1920 3305" fill="none" xmlns="http://www.w3.org/2000/svg">
<g clip-path="url(#clip0_416_2459)">
<rect width="1920" height="3305" fill="#F1ECEB"/>
<path fill-rule="evenodd" clip-rule="evenodd" d="M38.4779 242.976C39.7315 245.437 42.7424 246.415 45.2028 245.161C47.6633 243.908 48.6417 240.897 47.3881 238.436L12.4552 169.872C11.2016 167.411 8.19075 166.433 5.73026 167.687C3.26978 168.94 2.2914 171.951 3.54499 174.412L38.4779 242.976ZM38.4779 319.5C39.7315 321.96 42.7424 322.939 45.2028 321.685C47.6633 320.431 48.6417 317.421 47.3881 314.96L12.4552 246.395C11.2016 243.935 8.19075 242.957 5.73026 244.21C3.26978 245.464 2.2914 248.475 3.54499 250.935L38.4779 319.5ZM45.2028 398.209C42.7424 399.462 39.7315 398.484 38.4779 396.023L3.54499 327.459C2.2914 324.998 3.26978 321.987 5.73026 320.734C8.19075 319.48 11.2016 320.459 12.4552 322.919L47.3881 391.484C48.6417 393.944 47.6633 396.955 45.2028 398.209ZM38.4779 472.547C39.7315 475.007 42.7424 475.986 45.2028 474.732C47.6633 473.479 48.6417 470.468 47.3881 468.007L12.4552 399.443C11.2016 396.982 8.19075 396.004 5.73026 397.257C3.26978 398.511 2.2914 401.522 3.54499 403.982L38.4779 472.547ZM45.2028 551.256C42.7424 552.509 39.7315 551.531 38.4779 549.07L3.54499 480.506C2.2914 478.045 3.26978 475.035 5.73026 473.781C8.19075 472.527 11.2016 473.506 12.4552 475.966L47.3881 544.531C48.6417 546.991 47.6633 550.002 45.2028 551.256ZM38.4779 625.594C39.7315 628.055 42.7424 629.033 45.2028 627.779C47.6633 626.526 48.6417 623.515 47.3881 621.054L12.4552 552.49C11.2016 550.029 8.19075 549.051 5.73026 550.305C3.26978 551.558 2.2914 554.569 3.54499 557.03L38.4779 625.594ZM45.2028 704.303C42.7424 705.557 39.7315 704.578 38.4779 702.118L3.54499 633.553C2.2914 631.093 3.26978 628.082 5.73026 626.828C8.19075 625.575 11.2016 626.553 12.4552 629.014L47.3881 697.578C48.6417 700.039 47.6633 703.05 45.2028 704.303ZM38.4779 778.641C39.7315 781.102 42.7424 782.08 45.2028 780.827C47.6633 779.573 48.6417 776.562 47.3881 774.102L12.4552 705.537C11.2016 703.077 8.19075 702.098 5.73026 703.352C3.26978 704.605 2.2914 707.616 3.54499 710.077L38.4779 778.641ZM45.2028 857.351C42.7424 858.604 39.7315 857.626 38.4779 855.165L3.54499 786.601C2.2914 784.14 3.26978 781.129 5.73026 779.876C8.19075 778.622 11.2016 779.601 12.4552 782.061L47.3881 850.626C48.6417 853.086 47.6633 856.097 45.2028 857.351ZM38.4779 931.689C39.7315 934.149 42.7424 935.127 45.2028 933.874C47.6633 932.62 48.6417 929.609 47.3881 927.149L12.4552 858.584C11.2016 856.124 8.19075 855.146 5.73026 856.399C3.26978 857.653 2.2914 860.664 3.54499 863.124L38.4779 931.689ZM45.2028 1010.4C42.7424 1011.65 39.7315 1010.67 38.4779 1008.21L3.54499 939.648C2.2914 937.187 3.26978 934.176 5.73026 932.923C8.19075 931.669 11.2016 932.648 12.4552 935.108L47.3881 1003.67C48.6417 1006.13 47.6633 1009.14 45.2028 1010.4ZM38.4779 1084.74C39.7315 1087.2 42.7424 1088.17 45.2028 1086.92C47.6633 1085.67 48.6417 1082.66 47.3881 1080.2L12.4552 1011.63C11.2016 1009.17 8.19075 1008.19 5.73026 1009.45C3.26978 1010.7 2.2914 1013.71 3.54499 1016.17L38.4779 1084.74ZM45.2028 1163.44C42.7424 1164.7 39.7315 1163.72 38.4779 1161.26L3.54499 1092.7C2.2914 1090.23 3.26978 1087.22 5.73026 1085.97C8.19075 1084.72 11.2016 1085.69 12.4552 1088.16L47.3881 1156.72C48.6417 1159.18 47.6633 1162.19 45.2028 1163.44ZM38.4779 1237.78C39.7315 1240.24 42.7424 1241.22 45.2028 1239.97C47.6633 1238.71 48.6417 1235.7 47.3881 1233.24L12.4552 1164.68C11.2016 1162.22 8.19075 1161.24 5.73026 1162.49C3.26978 1163.75 2.2914 1166.76 3.54499 1169.22L38.4779 1237.78ZM45.2028 1316.49C42.7424 1317.75 39.7315 1316.77 38.4779 1314.31L3.54499 1245.74C2.2914 1243.28 3.26978 1240.27 5.73026 1239.02C8.19075 1237.76 11.2016 1238.74 12.4552 1241.2L47.3881 1309.77C48.6417 1312.23 47.6633 1315.24 45.2028 1316.49ZM38.4779 1390.83C39.7315 1393.29 42.7424 1394.27 45.2028 1393.02C47.6633 1391.76 48.6417 1388.75 47.3881 1386.29L12.4552 1317.73C11.2016 1315.27 8.19075 1314.29 5.73026 1315.54C3.26978 1316.79 2.2914 1319.81 3.54499 1322.27L38.4779 1390.83ZM45.2028 1469.54C42.7424 1470.79 39.7315 1469.81 38.4779 1467.35L3.54499 1398.79C2.2914 1396.33 3.26978 1393.32 5.73026 1392.06C8.19075 1390.81 11.2016 1391.79 12.4552 1394.25L47.3881 1462.81C48.6417 1465.27 47.6633 1468.29 45.2028 1469.54ZM38.4779 1543.88C39.7315 1546.34 42.7424 1547.32 45.2028 1546.06C47.6633 1544.81 48.6417 1541.8 47.3881 1539.34L12.4552 1470.77C11.2016 1468.31 8.19075 1467.33 5.73026 1468.59C3.26978 1469.84 2.2914 1472.85 3.54499 1475.31L38.4779 1543.88ZM45.2028 1622.59C42.7424 1623.84 39.7315 1622.86 38.4779 1620.4L3.54499 1551.84C2.2914 1549.38 3.26978 1546.37 5.73026 1545.11C8.19075 1543.86 11.2016 1544.84 12.4552 1547.3L47.3881 1615.86C48.6417 1618.32 47.6633 1621.33 45.2028 1622.59ZM38.4779 1696.92C39.7315 1699.39 42.7424 1700.36 45.2028 1699.11C47.6633 1697.86 48.6417 1694.85 47.3881 1692.39L12.4552 1623.82C11.2016 1621.36 8.19075 1620.38 5.73026 1621.64C3.26978 1622.89 2.2914 1625.9 3.54499 1628.36L38.4779 1696.92ZM45.2028 1775.63C42.7424 1776.89 39.7315 1775.91 38.4779 1773.45L3.54499 1704.88C2.2914 1702.42 3.26978 1699.41 5.73026 1698.16C8.19075 1696.91 11.2016 1697.88 12.4552 1700.34L47.3881 1768.91C48.6417 1771.37 47.6633 1774.38 45.2028 1775.63ZM38.4779 1849.97C39.7315 1852.43 42.7424 1853.41 45.2028 1852.16C47.6633 1850.9 48.6417 1847.89 47.3881 1845.43L12.4552 1776.87C11.2016 1774.41 8.19075 1773.43 5.73026 1774.68C3.26978 1775.94 2.2914 1778.95 3.54499 1781.41L38.4779 1849.97ZM45.2028 1928.68C42.7424 1929.93 39.7315 1928.96 38.4779 1926.5L3.54499 1857.93C2.2914 1855.47 3.26978 1852.46 5.73026 1851.21C8.19075 1849.95 11.2016 1850.93 12.4552 1853.39L47.3881 1921.96C48.6417 1924.42 47.6633 1927.43 45.2028 1928.68ZM38.4779 2003.02C39.7315 2005.48 42.7424 2006.46 45.2028 2005.2C47.6633 2003.95 48.6417 2000.94 47.3881 1998.48L12.4552 1929.91C11.2016 1927.45 8.19075 1926.48 5.73026 1927.73C3.26978 1928.98 2.2914 1931.99 3.54499 1934.45L38.4779 2003.02ZM45.2028 2081.73C42.7424 2082.98 39.7315 2082 38.4779 2079.54L3.54499 2010.98C2.2914 2008.52 3.26978 2005.51 5.73026 2004.25C8.19075 2003 11.2016 2003.98 12.4552 2006.44L47.3881 2075C48.6417 2077.46 47.6633 2080.47 45.2028 2081.73ZM38.4779 2156.07C39.7315 2158.53 42.7424 2159.51 45.2028 2158.25C47.6633 2157 48.6417 2153.99 47.3881 2151.53L12.4552 2082.96C11.2016 2080.5 8.19075 2079.52 5.73026 2080.78C3.26978 2082.03 2.2914 2085.04 3.54499 2087.5L38.4779 2156.07ZM45.2028 2234.78C42.7424 2236.03 39.7315 2235.05 38.4779 2232.59L3.54499 2164.03C2.2914 2161.56 3.26978 2158.55 5.73026 2157.3C8.19075 2156.05 11.2016 2157.03 12.4552 2159.49L47.3881 2228.05C48.6417 2230.51 47.6633 2233.52 45.2028 2234.78ZM38.4779 2309.11C39.7315 2311.57 42.7424 2312.55 45.2028 2311.3C47.6633 2310.05 48.6417 2307.03 47.3881 2304.57L12.4552 2236.01C11.2016 2233.55 8.19075 2232.57 5.73026 2233.82C3.26978 2235.08 2.2914 2238.09 3.54499 2240.55L38.4779 2309.11ZM45.2028 2387.82C42.7424 2389.08 39.7315 2388.1 38.4779 2385.64L3.54499 2317.07C2.2914 2314.61 3.26978 2311.6 5.73026 2310.35C8.19075 2309.09 11.2016 2310.07 12.4552 2312.53L47.3881 2381.1C48.6417 2383.56 47.6633 2386.57 45.2028 2387.82ZM38.4779 2462.16C39.7315 2464.62 42.7424 2465.6 45.2028 2464.35C47.6633 2463.09 48.6417 2460.08 47.3881 2457.62L12.4552 2389.06C11.2016 2386.6 8.19075 2385.62 5.73026 2386.87C3.26978 2388.13 2.2914 2391.14 3.54499 2393.6L38.4779 2462.16ZM45.2028 2540.87C42.7424 2542.12 39.7315 2541.15 38.4779 2538.68L3.54499 2470.12C2.2914 2467.66 3.26978 2464.65 5.73026 2463.4C8.19075 2462.14 11.2016 2463.12 12.4552 2465.58L47.3881 2534.14C48.6417 2536.61 47.6633 2539.62 45.2028 2540.87ZM38.4779 2615.21C39.7315 2617.67 42.7424 2618.65 45.2028 2617.39C47.6633 2616.14 48.6417 2613.13 47.3881 2610.67L12.4552 2542.1C11.2016 2539.64 8.19075 2538.67 5.73026 2539.92C3.26978 2541.17 2.2914 2544.18 3.54499 2546.64L38.4779 2615.21ZM45.2028 2693.92C42.7424 2695.17 39.7315 2694.19 38.4779 2691.73L3.54499 2623.17C2.2914 2620.71 3.26978 2617.7 5.73026 2616.44C8.19075 2615.19 11.2016 2616.17 12.4552 2618.63L47.3881 2687.19C48.6417 2689.65 47.6633 2692.66 45.2028 2693.92ZM38.4779 2768.26C39.7315 2770.72 42.7424 2771.7 45.2028 2770.44C47.6633 2769.19 48.6417 2766.18 47.3881 2763.72L12.4552 2695.15C11.2016 2692.69 8.19075 2691.71 5.73026 2692.97C3.26978 2694.22 2.2914 2697.23 3.54499 2699.69L38.4779 2768.26ZM45.2028 2846.97C42.7424 2848.22 39.7315 2847.24 38.4779 2844.78L3.54499 2776.22C2.2914 2773.76 3.26978 2770.74 5.73026 2769.49C8.19075 2768.24 11.2016 2769.22 12.4552 2771.68L47.3881 2840.24C48.6417 2842.7 47.6633 2845.71 45.2028 2846.97ZM38.4779 2921.3C39.7315 2923.76 42.7424 2924.74 45.2028 2923.49C47.6633 2922.24 48.6417 2919.23 47.3881 2916.76L12.4552 2848.2C11.2016 2845.74 8.19075 2844.76 5.73026 2846.01C3.26978 2847.27 2.2914 2850.28 3.54499 2852.74L38.4779 2921.3ZM45.2028 3000.01C42.7424 3001.27 39.7315 3000.29 38.4779 2997.83L3.54499 2929.26C2.2914 2926.8 3.26978 2923.79 5.73026 2922.54C8.19075 2921.28 11.2016 2922.26 12.4552 2924.72L47.3881 2993.29C48.6417 2995.75 47.6633 2998.76 45.2028 3000.01ZM38.4779 3074.35C39.7315 3076.81 42.7424 3077.79 45.2028 3076.54C47.6633 3075.28 48.6417 3072.27 47.3881 3069.81L12.4552 3001.25C11.2016 2998.79 8.19075 2997.81 5.73026 2999.06C3.26978 3000.32 2.2914 3003.33 3.54499 3005.79L38.4779 3074.35ZM45.2028 3153.06C42.7424 3154.31 39.7315 3153.34 38.4779 3150.88L3.54499 3082.31C2.2914 3079.85 3.26978 3076.84 5.73026 3075.59C8.19075 3074.33 11.2016 3075.31 12.4552 3077.77L47.3881 3146.34C48.6417 3148.8 47.6633 3151.81 45.2028 3153.06ZM38.4779 3227.4C39.7315 3229.86 42.7424 3230.84 45.2028 3229.59C47.6633 3228.33 48.6417 3225.32 47.3881 3222.86L12.4552 3154.3C11.2016 3151.84 8.19075 3150.86 5.73026 3152.11C3.26978 3153.36 2.2914 3156.37 3.54499 3158.84L38.4779 3227.4ZM45.2028 3306.11C42.7424 3307.36 39.7315 3306.38 38.4779 3303.92L3.54499 3235.36C2.2914 3232.9 3.26978 3229.89 5.73026 3228.63C8.19075 3227.38 11.2016 3228.36 12.4552 3230.82L47.3881 3299.38C48.6417 3301.84 47.6633 3304.86 45.2028 3306.11ZM38.4779 3380.45C39.7315 3382.91 42.7424 3383.89 45.2028 3382.63C47.6633 3381.38 48.6417 3378.37 47.3881 3375.91L12.4552 3307.34C11.2016 3304.88 8.19075 3303.9 5.73026 3305.16C3.26978 3306.41 2.2914 3309.42 3.54499 3311.88L38.4779 3380.45ZM45.2028 3459.16C42.7424 3460.41 39.7315 3459.43 38.4779 3456.97L3.54499 3388.41C2.2914 3385.95 3.26978 3382.94 5.73026 3381.68C8.19075 3380.43 11.2016 3381.41 12.4552 3383.87L47.3881 3452.43C48.6417 3454.89 47.6633 3457.9 45.2028 3459.16ZM38.4779 3533.5C39.7315 3535.96 42.7424 3536.93 45.2028 3535.68C47.6633 3534.43 48.6417 3531.42 47.3881 3528.96L12.4552 3460.39C11.2016 3457.93 8.19075 3456.95 5.73026 3458.21C3.26978 3459.46 2.2914 3462.47 3.54499 3464.93L38.4779 3533.5ZM45.2028 3612.2C42.7424 3613.46 39.7315 3612.48 38.4779 3610.02L3.54499 3541.45C2.2914 3538.99 3.26978 3535.98 5.73026 3534.73C8.19075 3533.48 11.2016 3534.45 12.4552 3536.91L47.3881 3605.48C48.6417 3607.94 47.6633 3610.95 45.2028 3612.2ZM38.4779 3686.54C39.7315 3689 42.7424 3689.98 45.2028 3688.73C47.6633 3687.47 48.6417 3684.46 47.3881 3682L12.4552 3613.44C11.2016 3610.98 8.19075 3610 5.73026 3611.25C3.26978 3612.51 2.2914 3615.52 3.54499 3617.98L38.4779 3686.54ZM45.2028 3765.25C42.7424 3766.51 39.7315 3765.53 38.4779 3763.07L3.54499 3694.5C2.2914 3692.04 3.26978 3689.03 5.73026 3687.78C8.19075 3686.52 11.2016 3687.5 12.4552 3689.96L47.3881 3758.53C48.6417 3760.99 47.6633 3764 45.2028 3765.25ZM38.4779 3839.59C39.7315 3842.05 42.7424 3843.03 45.2028 3841.78C47.6633 3840.52 48.6417 3837.51 47.3881 3835.05L12.4552 3766.49C11.2016 3764.03 8.19075 3763.05 5.73026 3764.3C3.26978 3765.55 2.2914 3768.57 3.54499 3771.03L38.4779 3839.59ZM45.2028 3918.3C42.7424 3919.55 39.7315 3918.57 38.4779 3916.11L3.54499 3847.55C2.2914 3845.09 3.26978 3842.08 5.73026 3840.82C8.19075 3839.57 11.2016 3840.55 12.4552 3843.01L47.3881 3911.57C48.6417 3914.04 47.6633 3917.05 45.2028 3918.3ZM38.4779 3992.64C39.7315 3995.1 42.7424 3996.08 45.2028 3994.82C47.6633 3993.57 48.6417 3990.56 47.3881 3988.1L12.4552 3919.53C11.2016 3917.07 8.19075 3916.1 5.73026 3917.35C3.26978 3918.6 2.2914 3921.61 3.54499 3924.07L38.4779 3992.64ZM45.2028 4071.35C42.7424 4072.6 39.7315 4071.62 38.4779 4069.16L3.54499 4000.6C2.2914 3998.14 3.26978 3995.13 5.73026 3993.87C8.19075 3992.62 11.2016 3993.6 12.4552 3996.06L47.3881 4064.62C48.6417 4067.08 47.6633 4070.09 45.2028 4071.35ZM38.4779 4145.69C39.7315 4148.15 42.7424 4149.12 45.2028 4147.87C47.6633 4146.62 48.6417 4143.61 47.3881 4141.15L12.4552 4072.58C11.2016 4070.12 8.19075 4069.14 5.73026 4070.4C3.26978 4071.65 2.2914 4074.66 3.54499 4077.12L38.4779 4145.69Z" fill="url(#paint0_linear_416_2459)"/>
<path fill-rule="evenodd" clip-rule="evenodd" d="M1881.46 96.8462C1880.2 99.3067 1877.19 100.285 1874.73 99.0315C1872.27 97.7779 1871.29 94.7671 1872.54 92.3066L1907.48 23.742C1908.73 21.2815 1911.74 20.3031 1914.2 21.5567C1916.66 22.8103 1917.64 25.8211 1916.39 28.2816L1881.46 96.8462ZM1881.46 173.37C1880.2 175.83 1877.19 176.809 1874.73 175.555C1872.27 174.302 1871.29 171.291 1872.54 168.83L1907.48 100.266C1908.73 97.8051 1911.74 96.8267 1914.2 98.0803C1916.66 99.3339 1917.64 102.345 1916.39 104.805L1881.46 173.37ZM1874.73 252.079C1877.19 253.332 1880.2 252.354 1881.46 249.893L1916.39 181.329C1917.64 178.868 1916.66 175.858 1914.2 174.604C1911.74 173.35 1908.73 174.329 1907.48 176.789L1872.54 245.354C1871.29 247.814 1872.27 250.825 1874.73 252.079ZM1881.46 326.417C1880.2 328.878 1877.19 329.856 1874.73 328.602C1872.27 327.349 1871.29 324.338 1872.54 321.877L1907.48 253.313C1908.73 250.852 1911.74 249.874 1914.2 251.128C1916.66 252.381 1917.64 255.392 1916.39 257.852L1881.46 326.417ZM1874.73 405.126C1877.19 406.38 1880.2 405.401 1881.46 402.941L1916.39 334.376C1917.64 331.916 1916.66 328.905 1914.2 327.651C1911.74 326.398 1908.73 327.376 1907.48 329.836L1872.54 398.401C1871.29 400.861 1872.27 403.872 1874.73 405.126ZM1881.46 479.464C1880.2 481.925 1877.19 482.903 1874.73 481.65C1872.27 480.396 1871.29 477.385 1872.54 474.925L1907.48 406.36C1908.73 403.9 1911.74 402.921 1914.2 404.175C1916.66 405.428 1917.64 408.439 1916.39 410.9L1881.46 479.464ZM1874.73 558.173C1877.19 559.427 1880.2 558.448 1881.46 555.988L1916.39 487.423C1917.64 484.963 1916.66 481.952 1914.2 480.698C1911.74 479.445 1908.73 480.423 1907.48 482.884L1872.54 551.448C1871.29 553.909 1872.27 556.92 1874.73 558.173ZM1881.46 632.512C1880.2 634.972 1877.19 635.951 1874.73 634.697C1872.27 633.443 1871.29 630.432 1872.54 627.972L1907.48 559.407C1908.73 556.947 1911.74 555.969 1914.2 557.222C1916.66 558.476 1917.64 561.487 1916.39 563.947L1881.46 632.512ZM1874.73 711.22C1877.19 712.474 1880.2 711.496 1881.46 709.035L1916.39 640.471C1917.64 638.01 1916.66 634.999 1914.2 633.746C1911.74 632.492 1908.73 633.47 1907.48 635.931L1872.54 704.496C1871.29 706.956 1872.27 709.967 1874.73 711.22ZM1881.46 785.559C1880.2 788.019 1877.19 788.998 1874.73 787.744C1872.27 786.49 1871.29 783.48 1872.54 781.019L1907.48 712.455C1908.73 709.994 1911.74 709.016 1914.2 710.269C1916.66 711.523 1917.64 714.534 1916.39 716.994L1881.46 785.559ZM1874.73 864.268C1877.19 865.521 1880.2 864.543 1881.46 862.082L1916.39 793.518C1917.64 791.057 1916.66 788.046 1914.2 786.793C1911.74 785.539 1908.73 786.518 1907.48 788.978L1872.54 857.543C1871.29 860.003 1872.27 863.014 1874.73 864.268ZM1881.46 938.606C1880.2 941.067 1877.19 942.045 1874.73 940.791C1872.27 939.538 1871.29 936.527 1872.54 934.067L1907.48 865.502C1908.73 863.041 1911.74 862.063 1914.2 863.317C1916.66 864.57 1917.64 867.581 1916.39 870.042L1881.46 938.606ZM1874.73 1017.31C1877.19 1018.57 1880.2 1017.59 1881.46 1015.13L1916.39 946.565C1917.64 944.105 1916.66 941.094 1914.2 939.84C1911.74 938.587 1908.73 939.565 1907.48 942.025L1872.54 1010.59C1871.29 1013.05 1872.27 1016.06 1874.73 1017.31ZM1881.46 1091.65C1880.2 1094.11 1877.19 1095.09 1874.73 1093.84C1872.27 1092.58 1871.29 1089.57 1872.54 1087.11L1907.48 1018.55C1908.73 1016.09 1911.74 1015.11 1914.2 1016.36C1916.66 1017.62 1917.64 1020.63 1916.39 1023.09L1881.46 1091.65ZM1874.73 1170.36C1877.19 1171.62 1880.2 1170.64 1881.46 1168.18L1916.39 1099.61C1917.64 1097.15 1916.66 1094.14 1914.2 1092.89C1911.74 1091.63 1908.73 1092.61 1907.48 1095.07L1872.54 1163.64C1871.29 1166.1 1872.27 1169.11 1874.73 1170.36ZM1881.46 1244.7C1880.2 1247.16 1877.19 1248.14 1874.73 1246.89C1872.27 1245.63 1871.29 1242.62 1872.54 1240.16L1907.48 1171.6C1908.73 1169.14 1911.74 1168.16 1914.2 1169.41C1916.66 1170.66 1917.64 1173.68 1916.39 1176.14L1881.46 1244.7ZM1874.73 1323.41C1877.19 1324.66 1880.2 1323.68 1881.46 1321.22L1916.39 1252.66C1917.64 1250.2 1916.66 1247.19 1914.2 1245.93C1911.74 1244.68 1908.73 1245.66 1907.48 1248.12L1872.54 1316.68C1871.29 1319.14 1872.27 1322.16 1874.73 1323.41ZM1881.46 1397.75C1880.2 1400.21 1877.19 1401.19 1874.73 1399.93C1872.27 1398.68 1871.29 1395.67 1872.54 1393.21L1907.48 1324.64C1908.73 1322.18 1911.74 1321.2 1914.2 1322.46C1916.66 1323.71 1917.64 1326.72 1916.39 1329.18L1881.46 1397.75ZM1874.73 1476.46C1877.19 1477.71 1880.2 1476.73 1881.46 1474.27L1916.39 1405.71C1917.64 1403.25 1916.66 1400.24 1914.2 1398.98C1911.74 1397.73 1908.73 1398.71 1907.48 1401.17L1872.54 1469.73C1871.29 1472.19 1872.27 1475.2 1874.73 1476.46ZM1881.46 1550.79C1880.2 1553.26 1877.19 1554.23 1874.73 1552.98C1872.27 1551.73 1871.29 1548.72 1872.54 1546.26L1907.48 1477.69C1908.73 1475.23 1911.74 1474.25 1914.2 1475.51C1916.66 1476.76 1917.64 1479.77 1916.39 1482.23L1881.46 1550.79ZM1874.73 1629.5C1877.19 1630.76 1880.2 1629.78 1881.46 1627.32L1916.39 1558.75C1917.64 1556.29 1916.66 1553.28 1914.2 1552.03C1911.74 1550.78 1908.73 1551.75 1907.48 1554.21L1872.54 1622.78C1871.29 1625.24 1872.27 1628.25 1874.73 1629.5ZM1881.46 1703.84C1880.2 1706.3 1877.19 1707.28 1874.73 1706.03C1872.27 1704.77 1871.29 1701.76 1872.54 1699.3L1907.48 1630.74C1908.73 1628.28 1911.74 1627.3 1914.2 1628.55C1916.66 1629.81 1917.64 1632.82 1916.39 1635.28L1881.46 1703.84ZM1874.73 1782.55C1877.19 1783.8 1880.2 1782.83 1881.46 1780.37L1916.39 1711.8C1917.64 1709.34 1916.66 1706.33 1914.2 1705.08C1911.74 1703.82 1908.73 1704.8 1907.48 1707.26L1872.54 1775.83C1871.29 1778.29 1872.27 1781.3 1874.73 1782.55ZM1881.46 1856.89C1880.2 1859.35 1877.19 1860.33 1874.73 1859.07C1872.27 1857.82 1871.29 1854.81 1872.54 1852.35L1907.48 1783.79C1908.73 1781.32 1911.74 1780.35 1914.2 1781.6C1916.66 1782.85 1917.64 1785.86 1916.39 1788.32L1881.46 1856.89ZM1874.73 1935.6C1877.19 1936.85 1880.2 1935.87 1881.46 1933.41L1916.39 1864.85C1917.64 1862.39 1916.66 1859.38 1914.2 1858.12C1911.74 1856.87 1908.73 1857.85 1907.48 1860.31L1872.54 1928.87C1871.29 1931.33 1872.27 1934.34 1874.73 1935.6ZM1881.46 2009.94C1880.2 2012.4 1877.19 2013.38 1874.73 2012.12C1872.27 2010.87 1871.29 2007.86 1872.54 2005.4L1907.48 1936.83C1908.73 1934.37 1911.74 1933.39 1914.2 1934.65C1916.66 1935.9 1917.64 1938.91 1916.39 1941.37L1881.46 2009.94ZM1874.73 2088.65C1877.19 2089.9 1880.2 2088.92 1881.46 2086.46L1916.39 2017.9C1917.64 2015.44 1916.66 2012.42 1914.2 2011.17C1911.74 2009.92 1908.73 2010.9 1907.48 2013.36L1872.54 2081.92C1871.29 2084.38 1872.27 2087.39 1874.73 2088.65ZM1881.46 2162.98C1880.2 2165.44 1877.19 2166.42 1874.73 2165.17C1872.27 2163.92 1871.29 2160.9 1872.54 2158.44L1907.48 2089.88C1908.73 2087.42 1911.74 2086.44 1914.2 2087.69C1916.66 2088.95 1917.64 2091.96 1916.39 2094.42L1881.46 2162.98ZM1874.73 2241.69C1877.19 2242.95 1880.2 2241.97 1881.46 2239.51L1916.39 2170.94C1917.64 2168.48 1916.66 2165.47 1914.2 2164.22C1911.74 2162.96 1908.73 2163.94 1907.48 2166.4L1872.54 2234.97C1871.29 2237.43 1872.27 2240.44 1874.73 2241.69ZM1881.46 2316.03C1880.2 2318.49 1877.19 2319.47 1874.73 2318.22C1872.27 2316.96 1871.29 2313.95 1872.54 2311.49L1907.48 2242.93C1908.73 2240.47 1911.74 2239.49 1914.2 2240.74C1916.66 2242 1917.64 2245.01 1916.39 2247.47L1881.46 2316.03ZM1874.73 2394.74C1877.19 2395.99 1880.2 2395.02 1881.46 2392.56L1916.39 2323.99C1917.64 2321.53 1916.66 2318.52 1914.2 2317.27C1911.74 2316.01 1908.73 2316.99 1907.48 2319.45L1872.54 2388.02C1871.29 2390.48 1872.27 2393.49 1874.73 2394.74ZM1881.46 2469.08C1880.2 2471.54 1877.19 2472.52 1874.73 2471.26C1872.27 2470.01 1871.29 2467 1872.54 2464.54L1907.48 2395.97C1908.73 2393.51 1911.74 2392.54 1914.2 2393.79C1916.66 2395.04 1917.64 2398.05 1916.39 2400.51L1881.46 2469.08ZM1874.73 2547.79C1877.19 2549.04 1880.2 2548.06 1881.46 2545.6L1916.39 2477.04C1917.64 2474.58 1916.66 2471.57 1914.2 2470.31C1911.74 2469.06 1908.73 2470.04 1907.48 2472.5L1872.54 2541.06C1871.29 2543.52 1872.27 2546.53 1874.73 2547.79ZM1881.46 2622.13C1880.2 2624.59 1877.19 2625.57 1874.73 2624.31C1872.27 2623.06 1871.29 2620.05 1872.54 2617.59L1907.48 2549.02C1908.73 2546.56 1911.74 2545.58 1914.2 2546.84C1916.66 2548.09 1917.64 2551.1 1916.39 2553.56L1881.46 2622.13ZM1874.73 2700.84C1877.19 2702.09 1880.2 2701.11 1881.46 2698.65L1916.39 2630.09C1917.64 2627.63 1916.66 2624.61 1914.2 2623.36C1911.74 2622.11 1908.73 2623.09 1907.48 2625.55L1872.54 2694.11C1871.29 2696.57 1872.27 2699.58 1874.73 2700.84ZM1881.46 2775.17C1880.2 2777.64 1877.19 2778.61 1874.73 2777.36C1872.27 2776.11 1871.29 2773.1 1872.54 2770.63L1907.48 2702.07C1908.73 2699.61 1911.74 2698.63 1914.2 2699.89C1916.66 2701.14 1917.64 2704.15 1916.39 2706.61L1881.46 2775.17ZM1874.73 2853.88C1877.19 2855.14 1880.2 2854.16 1881.46 2851.7L1916.39 2783.13C1917.64 2780.67 1916.66 2777.66 1914.2 2776.41C1911.74 2775.16 1908.73 2776.13 1907.48 2778.59L1872.54 2847.16C1871.29 2849.62 1872.27 2852.63 1874.73 2853.88ZM1881.46 2928.22C1880.2 2930.68 1877.19 2931.66 1874.73 2930.41C1872.27 2929.15 1871.29 2926.14 1872.54 2923.68L1907.48 2855.12C1908.73 2852.66 1911.74 2851.68 1914.2 2852.93C1916.66 2854.19 1917.64 2857.2 1916.39 2859.66L1881.46 2928.22ZM1874.73 3006.93C1877.19 3008.18 1880.2 3007.21 1881.46 3004.75L1916.39 2936.18C1917.64 2933.72 1916.66 2930.71 1914.2 2929.46C1911.74 2928.2 1908.73 2929.18 1907.48 2931.64L1872.54 3000.21C1871.29 3002.67 1872.27 3005.68 1874.73 3006.93ZM1881.46 3081.27C1880.2 3083.73 1877.19 3084.71 1874.73 3083.46C1872.27 3082.2 1871.29 3079.19 1872.54 3076.73L1907.48 3008.17C1908.73 3005.71 1911.74 3004.73 1914.2 3005.98C1916.66 3007.23 1917.64 3010.24 1916.39 3012.71L1881.46 3081.27ZM1874.73 3159.98C1877.19 3161.23 1880.2 3160.25 1881.46 3157.79L1916.39 3089.23C1917.64 3086.77 1916.66 3083.76 1914.2 3082.5C1911.74 3081.25 1908.73 3082.23 1907.48 3084.69L1872.54 3153.25C1871.29 3155.71 1872.27 3158.73 1874.73 3159.98ZM1881.46 3234.32C1880.2 3236.78 1877.19 3237.76 1874.73 3236.5C1872.27 3235.25 1871.29 3232.24 1872.54 3229.78L1907.48 3161.21C1908.73 3158.75 1911.74 3157.77 1914.2 3159.03C1916.66 3160.28 1917.64 3163.29 1916.39 3165.75L1881.46 3234.32ZM1874.73 3313.03C1877.19 3314.28 1880.2 3313.3 1881.46 3310.84L1916.39 3242.28C1917.64 3239.82 1916.66 3236.81 1914.2 3235.55C1911.74 3234.3 1908.73 3235.28 1907.48 3237.74L1872.54 3306.3C1871.29 3308.76 1872.27 3311.77 1874.73 3313.03ZM1881.46 3387.37C1880.2 3389.83 1877.19 3390.8 1874.73 3389.55C1872.27 3388.3 1871.29 3385.29 1872.54 3382.83L1907.48 3314.26C1908.73 3311.8 1911.74 3310.82 1914.2 3312.08C1916.66 3313.33 1917.64 3316.34 1916.39 3318.8L1881.46 3387.37ZM1874.73 3466.07C1877.19 3467.33 1880.2 3466.35 1881.46 3463.89L1916.39 3395.32C1917.64 3392.86 1916.66 3389.85 1914.2 3388.6C1911.74 3387.35 1908.73 3388.32 1907.48 3390.78L1872.54 3459.35C1871.29 3461.81 1872.27 3464.82 1874.73 3466.07ZM1881.46 3540.41C1880.2 3542.87 1877.19 3543.85 1874.73 3542.6C1872.27 3541.34 1871.29 3538.33 1872.54 3535.87L1907.48 3467.31C1908.73 3464.85 1911.74 3463.87 1914.2 3465.12C1916.66 3466.38 1917.64 3469.39 1916.39 3471.85L1881.46 3540.41ZM1874.73 3619.12C1877.19 3620.38 1880.2 3619.4 1881.46 3616.94L1916.39 3548.37C1917.64 3545.91 1916.66 3542.9 1914.2 3541.65C1911.74 3540.39 1908.73 3541.37 1907.48 3543.83L1872.54 3612.4C1871.29 3614.86 1872.27 3617.87 1874.73 3619.12ZM1881.46 3693.46C1880.2 3695.92 1877.19 3696.9 1874.73 3695.65C1872.27 3694.39 1871.29 3691.38 1872.54 3688.92L1907.48 3620.36C1908.73 3617.9 1911.74 3616.92 1914.2 3618.17C1916.66 3619.42 1917.64 3622.44 1916.39 3624.9L1881.46 3693.46ZM1874.73 3772.17C1877.19 3773.42 1880.2 3772.44 1881.46 3769.98L1916.39 3701.42C1917.64 3698.96 1916.66 3695.95 1914.2 3694.69C1911.74 3693.44 1908.73 3694.42 1907.48 3696.88L1872.54 3765.44C1871.29 3767.91 1872.27 3770.92 1874.73 3772.17ZM1881.46 3846.51C1880.2 3848.97 1877.19 3849.95 1874.73 3848.69C1872.27 3847.44 1871.29 3844.43 1872.54 3841.97L1907.48 3773.4C1908.73 3770.94 1911.74 3769.97 1914.2 3771.22C1916.66 3772.47 1917.64 3775.48 1916.39 3777.94L1881.46 3846.51ZM1874.73 3925.22C1877.19 3926.47 1880.2 3925.49 1881.46 3923.03L1916.39 3854.47C1917.64 3852.01 1916.66 3849 1914.2 3847.74C1911.74 3846.49 1908.73 3847.47 1907.48 3849.93L1872.54 3918.49C1871.29 3920.95 1872.27 3923.96 1874.73 3925.22ZM1881.46 3999.56C1880.2 4002.02 1877.19 4002.99 1874.73 4001.74C1872.27 4000.49 1871.29 3997.48 1872.54 3995.02L1907.48 3926.45C1908.73 3923.99 1911.74 3923.01 1914.2 3924.27C1916.66 3925.52 1917.64 3928.53 1916.39 3930.99L1881.46 3999.56Z" fill="url(#paint1_linear_416_2459)"/>
</g>
<defs>
<linearGradient id="paint0_linear_416_2459" x1="25.4666" y1="167.141" x2="24.3789" y2="3476.75" gradientUnits="userSpaceOnUse">
<stop offset="0.317708" stop-color="#D89E75"/>
<stop offset="1" stop-color="#D89E75" stop-opacity="0"/>
</linearGradient>
<linearGradient id="paint1_linear_416_2459" x1="1894.47" y1="21.0107" x2="1893.38" y2="3372.75" gradientUnits="userSpaceOnUse">
<stop offset="0.286458" stop-color="#D89E75"/>
<stop offset="1" stop-color="#D89E75" stop-opacity="0"/>
</linearGradient>
<clipPath id="clip0_416_2459">
<rect width="1920" height="3305" fill="white"/>
</clipPath>
</defs>
</svg>
