<svg width="1919" height="200" viewBox="0 0 1919 200" fill="none" xmlns="http://www.w3.org/2000/svg">
<path fill-rule="evenodd" clip-rule="evenodd" d="M1919 121.362L1839.04 113.271C1759.08 105.18 1599.17 88.9986 1439.25 101.135C1279.33 113.271 1119.42 153.725 959.5 177.997C799.583 202.27 639.666 210.36 479.75 182.043C319.833 153.725 188.401 119.002 90.9521 93.044L-0.000488281 71.8057V0H79.9579C159.916 0 319.833 0 479.75 0C639.666 0 799.583 0 959.5 0C1119.42 0 1279.33 0 1439.25 0C1599.17 0 1759.08 0 1839.04 0H1919V121.362Z" fill="#F1ECEB"/>
</svg>
