<svg width="20" height="20" viewBox="0 0 20 20" fill="none" xmlns="http://www.w3.org/2000/svg">
<g clip-path="url(#clip0_434_2490)">
<path fill-rule="evenodd" clip-rule="evenodd" d="M16.4818 4.6967C16.8072 4.37126 16.8073 3.84363 16.4818 3.51819C16.1564 3.19275 15.6287 3.19275 15.3033 3.51819L10 8.82149L4.6967 3.51819C4.37126 3.19275 3.84362 3.19275 3.51819 3.51819C3.19275 3.84363 3.19275 4.37126 3.51819 4.6967L8.82149 10L3.51819 15.3033C3.19275 15.6287 3.19275 16.1564 3.51819 16.4818C3.84362 16.8072 4.37126 16.8072 4.6967 16.4818L10 11.1785L15.3033 16.4818C15.6287 16.8073 16.1564 16.8073 16.4818 16.4818C16.8072 16.1564 16.8072 15.6287 16.4818 15.3033L11.1785 10L16.4818 4.6967Z" fill="#424242"/>
</g>
<defs>
<clipPath id="clip0_434_2490">
<rect width="20" height="20" fill="white"/>
</clipPath>
</defs>
</svg>
