<svg width="32" height="32" viewBox="0 0 32 32" fill="none" xmlns="http://www.w3.org/2000/svg">
<path d="M12.834 24.2503C12.834 25.2448 13.229 26.1985 13.9322 26.9017C14.6354 27.6049 15.5892 28 16.5837 28C17.5781 28 18.5319 27.6049 19.2351 26.9017C19.9383 26.1985 20.3334 25.2448 20.3334 24.2503" stroke="#597476" stroke-width="1.6"/>
<path fill-rule="evenodd" clip-rule="evenodd" d="M27.8321 23.9556H5.33398L5.34861 23.9218C5.43411 23.7699 5.87849 23.1298 6.68288 21.9992L7.52664 20.8179V13.3534C7.52664 8.30769 11.3945 4.19575 16.2354 4.00675L16.5842 4C21.586 4 25.6405 8.18732 25.6405 13.3534V20.8168L27.561 23.5292C27.7556 23.8138 27.8467 23.9567 27.8332 23.9567L27.8321 23.9556Z" stroke="#597476" stroke-width="1.6" stroke-linecap="round" stroke-linejoin="round"/>
</svg>
