<svg width="462" height="245" viewBox="0 0 462 245" fill="none" xmlns="http://www.w3.org/2000/svg">
<path d="M250.12 113.936H263.72V115.28H250.12V113.936ZM250.12 110.32H263.72V111.632H250.12V110.32ZM246.44 107.856V117.744H267.56V107.856H246.44ZM242.664 118.896V121.968H271.272V118.896H242.664ZM257.32 123.152V126.096H267.784V123.152H257.32ZM247.56 123.248V125.904H254.856V123.248H247.56ZM247.56 127.248V129.904H254.856V127.248H247.56ZM261.256 125.808L258.184 126.672C260.36 131.664 264.168 135.248 269.704 136.848C270.184 135.952 271.176 134.544 271.976 133.872C266.824 132.656 263.048 129.712 261.256 125.808ZM266.664 123.152V123.696C265.256 128.624 261.128 132.304 256.168 133.872C256.872 134.576 257.832 135.952 258.248 136.848C263.944 134.704 268.456 130.608 270.344 123.92L267.976 123.024L267.336 123.152H266.664ZM242.376 131.92L242.632 135.216C245.992 134.928 250.472 134.512 254.76 134.096V130.992C250.28 131.376 245.576 131.728 242.376 131.92ZM252.872 119.888V136.88H256.552V119.888H252.872ZM245.16 119.984V133.04H248.68V119.984H245.16ZM305.94 115.352V119.348H319.368V115.352H305.94ZM286.428 107V110.528H302.628V107H286.428ZM286.068 121.328V124.964H302.592V121.328H286.068ZM285.96 115.028V118.592H302.916V115.028H285.96ZM311.772 117.08V137.06H315.948V117.08H311.772ZM292.44 103.724V108.584H296.652V103.724H292.44ZM292.44 118.376V137.204H296.652V118.376H292.44ZM303.996 106.28V118.844C303.996 123.776 303.6 129.932 299.424 134.36C300.396 134.9 301.98 136.376 302.52 137.312C307.416 132.236 308.1 124.28 308.1 118.916V108.332C308.748 108.224 309 108.044 309.036 107.684L303.996 106.28ZM315.768 103.796C313.212 105.164 308.964 106.46 305.112 107.324C305.616 108.152 306.228 109.664 306.444 110.6C310.656 109.808 315.552 108.584 319.224 106.928L315.768 103.796ZM296.328 125.108L294.024 126.98C295.356 128.168 298.092 130.868 299.28 132.308L301.764 129.212C300.9 128.492 297.444 125.792 296.328 125.108ZM288.228 111.068C288.804 112.436 289.272 114.272 289.344 115.46L292.872 114.524C292.692 113.336 292.188 111.572 291.54 110.276L288.228 111.068ZM297.192 110.204C296.868 111.464 296.256 113.3 295.752 114.524L299.172 115.244C299.712 114.128 300.324 112.58 301.008 110.924L297.192 110.204ZM292.476 123.452C290.892 126.62 287.904 130.112 285.06 131.948C285.96 132.632 287.22 134.072 287.904 135.008C290.784 132.668 293.772 128.528 295.536 124.568L292.476 123.452ZM335.798 104.626V108.73H369.2V104.626H335.798ZM349.934 101.738V107.058H354.646V101.738H349.934ZM337.052 111.732V137.344H341.384V115.646H366.274V111.732H337.052ZM363.918 111.732V132.442C363.918 132.974 363.728 133.164 363.082 133.164C362.436 133.202 360.232 133.202 358.256 133.088C358.864 134.228 359.548 136.242 359.738 137.458C362.74 137.458 364.868 137.344 366.388 136.66C367.87 135.976 368.326 134.684 368.326 132.48V111.732H363.918ZM346.628 115.152C346.438 118.192 345.64 119.674 340.928 120.51C341.726 121.232 342.676 122.714 343.018 123.664C349.06 122.296 350.352 119.712 350.656 115.152H346.628ZM353.658 115.152V118.116C353.658 121.232 354.38 122.22 357.762 122.22C358.408 122.22 360.156 122.22 360.84 122.22C363.196 122.22 364.184 121.346 364.564 118.116C363.538 117.888 361.942 117.356 361.22 116.824C361.106 118.686 360.954 118.952 360.346 118.952C359.966 118.952 358.712 118.952 358.37 118.952C357.686 118.952 357.61 118.876 357.61 118.04V115.152H353.658ZM345.108 123.664V135.634H349.136V123.664H345.108ZM347.616 123.664V127.008H356.014V130.238H347.616V133.582H360.118V123.664H347.616ZM342.6 108.654C343.208 109.946 343.892 111.694 344.12 112.796L348.832 111.846C348.528 110.744 347.806 109.11 347.122 107.894L342.6 108.654ZM357.458 107.856C357.04 109.034 356.242 110.744 355.596 111.922L360.118 112.682C360.802 111.656 361.6 110.288 362.512 108.616L357.458 107.856ZM398.726 104.81H413.51V110.48H398.726V104.81ZM393.854 100.022V115.268H418.676V100.022H393.854ZM388.1 118.796V137.78H392.846V123.584H399.104V137.528H404.144V118.796H388.1ZM407.714 118.796V137.78H412.544V123.584H419.264V137.57H424.346V118.796H407.714ZM390.2 130.85V135.68H401.204V130.85H390.2ZM410.024 130.85V135.68H421.784V130.85H410.024Z" fill="#51A9AE"/>
<g filter="url(#filter0_d_495_4539)">
<path d="M159.172 103.328L310.002 67.7709" stroke="#D89E75" stroke-width="4" stroke-miterlimit="10" stroke-linecap="round"/>
</g>
<g filter="url(#filter1_d_495_4539)">
<path d="M330.266 62.8913L439.117 37.0628" stroke="#D89E75" stroke-width="4" stroke-miterlimit="10" stroke-linecap="round"/>
</g>
<g filter="url(#filter2_d_495_4539)">
<path d="M447.481 185.934L293.511 168.332" stroke="#D89E75" stroke-width="4" stroke-miterlimit="10" stroke-linecap="round"/>
</g>
<g filter="url(#filter3_d_495_4539)">
<path d="M272.813 165.865L161.676 152.996" stroke="#D89E75" stroke-width="4" stroke-miterlimit="10" stroke-linecap="round"/>
</g>
<g filter="url(#filter4_d_495_4539)">
<path d="M128.05 97.5504C127.795 94.6758 124.673 93.0084 122.143 94.3958L59.4129 128.786C58.9228 129.055 58.3426 129.106 57.8129 128.928L27.8018 118.816C25.0667 117.895 22.2855 120.085 22.5402 122.96L26.1477 163.684C26.4024 166.56 29.5257 168.227 32.0563 166.838L59.819 151.605C60.3095 151.335 60.8904 151.284 61.4206 151.463L129.219 174.346C131.955 175.269 134.737 173.079 134.483 170.203L128.05 97.5504Z" fill="#D89E75"/>
<path d="M118.05 86.5661C117.795 83.6914 114.673 82.024 112.143 83.4114L49.4129 117.802C48.9228 118.071 48.3426 118.122 47.8129 117.944L17.8018 107.832C15.0667 106.91 12.2855 109.101 12.5402 111.976L16.1477 152.7C16.4024 155.575 19.5257 157.242 22.0563 155.854L49.819 140.62C50.3095 140.351 50.8904 140.3 51.4206 140.479L119.219 163.361C121.955 164.285 124.737 162.094 124.483 159.219L118.05 86.5661Z" fill="#E7D3A1"/>
<path d="M69.6378 118.453L96.6658 103.231" stroke="#D89E75" stroke-width="4" stroke-miterlimit="10" stroke-linecap="round"/>
<ellipse cx="106.5" cy="97.2001" rx="2.5" ry="2.36836" fill="#D89E75"/>
</g>
<defs>
<filter id="filter0_d_495_4539" x="145.172" y="57.7708" width="178.83" height="63.5579" filterUnits="userSpaceOnUse" color-interpolation-filters="sRGB">
<feFlood flood-opacity="0" result="BackgroundImageFix"/>
<feColorMatrix in="SourceAlpha" type="matrix" values="0 0 0 0 0 0 0 0 0 0 0 0 0 0 0 0 0 0 127 0" result="hardAlpha"/>
<feOffset dy="4"/>
<feGaussianBlur stdDeviation="6"/>
<feComposite in2="hardAlpha" operator="out"/>
<feColorMatrix type="matrix" values="0 0 0 0 0.5125 0 0 0 0 0.301072 0 0 0 0 0.151615 0 0 0 0.25 0"/>
<feBlend mode="normal" in2="BackgroundImageFix" result="effect1_dropShadow_495_4539"/>
<feBlend mode="normal" in="SourceGraphic" in2="effect1_dropShadow_495_4539" result="shape"/>
</filter>
<filter id="filter1_d_495_4539" x="316.264" y="27.063" width="136.854" height="53.8281" filterUnits="userSpaceOnUse" color-interpolation-filters="sRGB">
<feFlood flood-opacity="0" result="BackgroundImageFix"/>
<feColorMatrix in="SourceAlpha" type="matrix" values="0 0 0 0 0 0 0 0 0 0 0 0 0 0 0 0 0 0 127 0" result="hardAlpha"/>
<feOffset dy="4"/>
<feGaussianBlur stdDeviation="6"/>
<feComposite in2="hardAlpha" operator="out"/>
<feColorMatrix type="matrix" values="0 0 0 0 0.5125 0 0 0 0 0.301072 0 0 0 0 0.151615 0 0 0 0.25 0"/>
<feBlend mode="normal" in2="BackgroundImageFix" result="effect1_dropShadow_495_4539"/>
<feBlend mode="normal" in="SourceGraphic" in2="effect1_dropShadow_495_4539" result="shape"/>
</filter>
<filter id="filter2_d_495_4539" x="279.51" y="158.332" width="181.973" height="45.6018" filterUnits="userSpaceOnUse" color-interpolation-filters="sRGB">
<feFlood flood-opacity="0" result="BackgroundImageFix"/>
<feColorMatrix in="SourceAlpha" type="matrix" values="0 0 0 0 0 0 0 0 0 0 0 0 0 0 0 0 0 0 127 0" result="hardAlpha"/>
<feOffset dy="4"/>
<feGaussianBlur stdDeviation="6"/>
<feComposite in2="hardAlpha" operator="out"/>
<feColorMatrix type="matrix" values="0 0 0 0 0.5125 0 0 0 0 0.301072 0 0 0 0 0.151615 0 0 0 0.25 0"/>
<feBlend mode="normal" in2="BackgroundImageFix" result="effect1_dropShadow_495_4539"/>
<feBlend mode="normal" in="SourceGraphic" in2="effect1_dropShadow_495_4539" result="shape"/>
</filter>
<filter id="filter3_d_495_4539" x="147.674" y="142.997" width="139.141" height="40.8677" filterUnits="userSpaceOnUse" color-interpolation-filters="sRGB">
<feFlood flood-opacity="0" result="BackgroundImageFix"/>
<feColorMatrix in="SourceAlpha" type="matrix" values="0 0 0 0 0 0 0 0 0 0 0 0 0 0 0 0 0 0 127 0" result="hardAlpha"/>
<feOffset dy="4"/>
<feGaussianBlur stdDeviation="6"/>
<feComposite in2="hardAlpha" operator="out"/>
<feColorMatrix type="matrix" values="0 0 0 0 0.5125 0 0 0 0 0.301072 0 0 0 0 0.151615 0 0 0 0.25 0"/>
<feBlend mode="normal" in2="BackgroundImageFix" result="effect1_dropShadow_495_4539"/>
<feBlend mode="normal" in="SourceGraphic" in2="effect1_dropShadow_495_4539" result="shape"/>
</filter>
<filter id="filter4_d_495_4539" x="0.523438" y="74.9146" width="145.975" height="115.645" filterUnits="userSpaceOnUse" color-interpolation-filters="sRGB">
<feFlood flood-opacity="0" result="BackgroundImageFix"/>
<feColorMatrix in="SourceAlpha" type="matrix" values="0 0 0 0 0 0 0 0 0 0 0 0 0 0 0 0 0 0 127 0" result="hardAlpha"/>
<feOffset dy="4"/>
<feGaussianBlur stdDeviation="6"/>
<feComposite in2="hardAlpha" operator="out"/>
<feColorMatrix type="matrix" values="0 0 0 0 0.5125 0 0 0 0 0.301072 0 0 0 0 0.151615 0 0 0 0.25 0"/>
<feBlend mode="normal" in2="BackgroundImageFix" result="effect1_dropShadow_495_4539"/>
<feBlend mode="normal" in="SourceGraphic" in2="effect1_dropShadow_495_4539" result="shape"/>
</filter>
</defs>
</svg>
