<svg width="24" height="24" viewBox="0 0 24 24" fill="none" xmlns="http://www.w3.org/2000/svg">
<path fill-rule="evenodd" clip-rule="evenodd" d="M13 3.41667C13 2.86439 12.5523 2.41667 12 2.41667C11.4477 2.41667 11 2.86439 11 3.41667V11.0417H2.95833C2.42906 11.0417 2 11.4707 2 12C2 12.5293 2.42906 12.9583 2.95833 12.9583H11V20.5833C11 21.1356 11.4477 21.5833 12 21.5833C12.5523 21.5833 13 21.1356 13 20.5833V12.9583H21.0417C21.5709 12.9583 22 12.5293 22 12C22 11.4707 21.5709 11.0417 21.0417 11.0417H13V3.41667Z" fill="#F9F7F3"/>
</svg>
