<svg width="353" height="200" viewBox="0 0 353 200" fill="none" xmlns="http://www.w3.org/2000/svg">
<g filter="url(#filter0_d_416_2566)">
<rect x="14" y="75.623" width="325" height="106" rx="10" fill="#F5F0E3"/>
<path d="M71.84 102.953V107.408H92.355V102.953H71.84ZM95.16 107.023V112.798H111.935V107.023H95.16ZM69.97 110.048V114.613H93.95V110.048H69.97ZM79.155 100.038V112.413H85.04V100.038H79.155ZM79.155 121.323V134.688H85.04V121.323H79.155ZM71.125 124.348V129.023H92.52V124.348H71.125ZM69.475 133.038L69.915 138.373C76.405 137.768 85.315 136.888 93.895 136.008L93.84 131.058C84.985 131.883 75.635 132.653 69.475 133.038ZM83.225 112.963V116.923C83.225 120.828 83.995 121.983 87.735 121.983C88.45 121.983 89.77 121.983 90.485 121.983C93.07 121.983 94.28 120.938 94.72 117.033C93.455 116.758 91.585 116.153 90.76 115.438C90.595 117.693 90.43 117.968 89.825 117.968C89.55 117.968 88.78 117.968 88.56 117.968C87.955 117.968 87.9 117.913 87.9 116.923V112.963H83.225ZM100.11 99.928C99.945 116.483 100.055 127.758 92.245 134.468C93.62 135.348 95.38 137.383 96.205 138.758C105.335 131.113 105.83 118.133 105.995 99.928H100.11ZM94.06 120.828C98.35 123.523 104.015 127.593 106.6 130.453L109.405 124.843C106.71 122.203 100.935 118.408 96.7 115.933L94.06 120.828ZM108.8 107.023V130.123C108.8 134.193 109.13 135.348 110.01 136.283C110.945 137.218 112.32 137.658 113.53 137.658C114.245 137.658 115.235 137.658 116.005 137.658C117.105 137.658 118.205 137.383 118.975 136.778C119.745 136.228 120.295 135.348 120.57 134.028C120.845 132.708 121.12 129.298 121.175 126.493C119.8 126.053 118.095 125.228 117.05 124.293C117.05 127.153 116.995 129.408 116.885 130.453C116.83 131.443 116.775 131.938 116.555 132.158C116.445 132.378 116.225 132.433 115.95 132.433C115.785 132.433 115.51 132.433 115.345 132.433C115.125 132.433 114.96 132.378 114.85 132.158C114.74 131.938 114.74 131.223 114.74 129.958V107.023H108.8ZM84.985 141.288C85.535 144.478 85.865 148.603 85.865 151.133L92.465 150.308C92.41 147.833 91.86 143.818 91.145 140.683L84.985 141.288ZM95.985 141.233C97.195 144.368 98.295 148.493 98.625 151.023L105.225 149.813C104.785 147.283 103.52 143.268 102.2 140.243L95.985 141.233ZM106.985 141.123C109.405 144.368 112.155 148.878 113.365 151.683L120.13 149.483C118.755 146.623 115.73 142.333 113.365 139.198L106.985 141.123ZM75.36 139.418C73.93 143.103 71.4 146.898 68.925 149.043L75.25 151.573C77.835 148.988 80.365 144.863 81.795 141.068L75.36 139.418ZM75.635 113.238C75.36 116.758 74.205 118.518 68.76 119.563C69.75 120.443 71.015 122.258 71.455 123.413C78.495 121.763 80.2 118.573 80.64 113.238H75.635ZM157.145 99.928V120.718H163.525V99.928H157.145ZM148.07 117.308V151.518H154.395V123.083H170.29V117.308H148.07ZM166.605 117.308V144.423C166.605 145.138 166.385 145.358 165.615 145.358C164.845 145.358 162.37 145.413 160.115 145.248C160.995 146.953 161.93 149.813 162.15 151.628C165.835 151.628 168.475 151.463 170.455 150.418C172.38 149.428 172.93 147.558 172.93 144.588V117.308H166.605ZM150.985 126.438V131.883H169.905V126.438H150.985ZM150.985 135.623V141.013H169.905V135.623H150.985ZM150.38 102.678C149.335 106.913 147.465 111.313 145.1 114.118C146.53 114.943 149.17 116.538 150.325 117.473C152.745 114.228 155.11 109.058 156.43 104.053L150.38 102.678ZM163.635 104.878C166.165 108.728 168.97 113.898 169.96 117.198L175.625 114.283C174.525 110.983 171.555 106.033 168.97 102.348L163.635 104.878ZM127.225 113.568V119.068H143.615V113.568H127.225ZM124.75 123.138V128.748H145.155V123.138H124.75ZM125.135 131.883C126.07 134.963 126.84 138.868 127.005 141.508L131.625 140.243C131.295 137.713 130.415 133.808 129.425 130.783L125.135 131.883ZM124.09 144.478L125.41 150.418C131.295 149.428 139.05 148.053 146.31 146.678L145.98 141.123C138.005 142.443 129.645 143.763 124.09 144.478ZM140.59 130.288C140.26 133.038 139.325 137.053 138.61 139.638L142.515 140.793C143.45 138.483 144.495 134.798 145.595 131.498L140.59 130.288ZM132.285 115.933V146.458L138.005 145.468V115.933H132.285ZM132.285 99.928C130.58 104.218 127.445 109.388 122.825 113.348C124.09 114.228 126.015 116.373 126.84 117.748C132.285 112.798 135.64 107.078 137.73 102.898V101.138H135.86V99.928H132.285ZM133.11 99.928V104.603H134.265C137.455 107.133 141.36 112.083 143.12 114.943L147.135 109.553C145.1 106.693 140.865 102.678 137.565 99.928H133.11ZM204.72 99.873V123.193C204.72 132.708 203.675 141.288 195.095 147.228C196.525 148.218 198.78 150.253 199.825 151.573C209.45 144.698 210.605 134.303 210.605 123.193V99.873H204.72ZM214.455 99.873V151.518H220.725V99.873H214.455ZM196.635 108.948V114.888H207.305V108.948H196.635ZM217.755 108.948V114.888H229.36V108.948H217.755ZM218.195 120.498V126.328H228.755V120.498H218.195ZM217.645 132.378V138.318H230.24V132.378H217.645ZM197.075 120.498V126.328H207.525V120.498H197.075ZM193.665 134.743L196.14 140.408C199.385 139.198 203.07 137.768 206.59 136.283L205.6 131.113C201.145 132.543 196.8 133.918 193.665 134.743ZM178.1 127.593L179.585 133.918C184.425 132.543 190.475 130.783 196.14 129.023L195.26 123.083C189.045 124.843 182.5 126.603 178.1 127.593ZM178.98 110.378V116.428H195.81V110.378H178.98ZM184.81 99.983V144.588C184.81 145.358 184.535 145.523 183.875 145.523C183.215 145.578 181.29 145.578 179.31 145.468C180.08 147.283 180.85 149.978 181.015 151.628C184.59 151.628 186.955 151.408 188.605 150.363C190.31 149.373 190.86 147.668 190.86 144.588V99.983H184.81ZM256.53 103.063V109.333H283.425V103.063H256.53ZM270.5 120.168V143.763C270.5 144.588 270.17 144.808 269.125 144.863C268.135 144.863 264.505 144.863 261.37 144.698C262.25 146.623 263.13 149.483 263.35 151.408C268.3 151.408 271.765 151.353 274.13 150.363C276.55 149.318 277.265 147.448 277.265 143.928V120.168H270.5ZM254.165 118.298V124.568H284.855V118.298H254.165ZM241.845 124.788V151.628H248.445V119.343L247.62 119.013L241.845 124.788ZM248.06 111.918C244.43 118.133 238.435 124.513 232.825 128.473C234.145 129.793 236.4 132.763 237.335 134.138C243.22 129.298 249.985 121.598 254.33 114.283L248.06 111.918ZM245.97 99.928C243.275 103.778 237.995 108.728 233.43 111.698C234.53 113.018 236.235 115.603 237.115 117.088C242.34 113.458 248.28 107.738 252.295 102.513L245.97 99.928Z" fill="#51A9AE"/>
<path d="M32 75.623H322" stroke="#D89E75" stroke-width="4" stroke-linecap="round" stroke-linejoin="round"/>
<path d="M32 181.623H322" stroke="#D89E75" stroke-width="4" stroke-linecap="round" stroke-linejoin="round"/>
<path d="M14 92.623L14 164.623" stroke="#D89E75" stroke-width="4" stroke-linecap="round" stroke-linejoin="round"/>
<path d="M339 92.623L339 164.623" stroke="#D89E75" stroke-width="4" stroke-linecap="round" stroke-linejoin="round"/>
</g>
<path d="M86.3779 40.1726L81.6529 42.1271L80.5511 39.535L84.5181 37.8941C85.2171 37.6049 85.7533 37.2796 86.1265 36.918C86.4963 36.5481 86.7192 36.1452 86.7954 35.7093C86.8764 35.2615 86.8125 34.7849 86.6034 34.2795C86.3665 33.7068 86.0654 33.2889 85.7001 33.0257C85.3432 32.7591 84.9043 32.6398 84.3833 32.6679C83.8707 32.6925 83.2607 32.8511 82.5532 33.1438L79.9254 34.2308L86.3061 49.6565L82.516 51.2243L74.9072 32.8296L81.3251 30.1749C82.3947 29.7324 83.3925 29.4381 84.3184 29.2918C85.2526 29.1421 86.0999 29.1516 86.8602 29.3204C87.6205 29.4893 88.2871 29.8251 88.86 30.3279C89.4295 30.8222 89.8919 31.4989 90.2472 32.358C90.5608 33.1161 90.6773 33.8865 90.5967 34.6695C90.5246 35.449 90.2058 36.1924 89.6403 36.8998C89.0832 37.6037 88.2279 38.2188 87.0746 38.7452L86.3779 40.1726ZM89.553 48.3135L83.9562 50.6285L84.2115 47.0608L88.3301 45.3572C88.9955 45.082 89.4952 44.752 89.8292 44.3672C90.1598 43.974 90.3495 43.5503 90.3983 43.0961C90.4472 42.6419 90.3723 42.1748 90.1737 41.6947C89.9507 41.1557 89.6647 40.7266 89.3157 40.4073C88.9751 40.0846 88.5633 39.8999 88.0804 39.8531C87.5939 39.7978 87.0264 39.9043 86.3779 40.1726L82.7268 41.6829L81.6755 39.0699L86.2236 37.1886L87.5187 37.8513C88.6319 37.3711 89.615 37.1963 90.4679 37.3268C91.3258 37.4454 92.0446 37.7645 92.6245 38.2841C93.2128 38.8003 93.6603 39.4289 93.9669 40.1701C94.4546 41.3492 94.6088 42.4493 94.4295 43.4704C94.2467 44.4831 93.742 45.3971 92.9154 46.2125C92.0972 47.0244 90.9764 47.7247 89.553 48.3135Z" fill="#51A9AE"/>
<path d="M115.505 35.9477L116.447 39.0051L106.321 42.1255L105.379 39.0681L115.505 35.9477ZM101.739 22.7074L107.601 41.7309L103.682 42.9388L97.8193 23.9153L101.739 22.7074ZM111.652 28.1361L112.57 31.1151L103.764 33.8288L102.846 30.8499L111.652 28.1361ZM110.571 19.9856L111.517 23.056L101.405 26.1724L100.459 23.102L110.571 19.9856Z" fill="#51A9AE"/>
<path d="M132.672 29.9432C132.6 29.5952 132.481 29.2941 132.316 29.0398C132.159 28.7747 131.917 28.5551 131.592 28.3808C131.265 28.1976 130.828 28.0421 130.28 27.9143C129.732 27.7866 129.035 27.6806 128.188 27.5964C127.246 27.4952 126.34 27.3489 125.471 27.1576C124.612 26.9645 123.829 26.6948 123.124 26.3485C122.426 25.9913 121.836 25.5323 121.356 24.9714C120.885 24.4086 120.562 23.7079 120.387 22.8692C120.218 22.0572 120.242 21.2839 120.462 20.5492C120.679 19.8055 121.059 19.1303 121.603 18.5234C122.145 17.9076 122.826 17.3791 123.647 16.9379C124.476 16.4949 125.417 16.1636 126.47 15.944C127.907 15.6443 129.214 15.6416 130.393 15.9357C131.572 16.2299 132.549 16.7661 133.326 17.5445C134.112 18.321 134.626 19.2892 134.868 20.4491L130.879 21.281C130.76 20.71 130.536 20.2355 130.205 19.8574C129.882 19.4686 129.454 19.1996 128.92 19.0502C128.395 18.899 127.771 18.8988 127.048 19.0496C126.352 19.1948 125.795 19.4228 125.375 19.7337C124.954 20.0357 124.665 20.3894 124.507 20.7947C124.348 21.191 124.314 21.6078 124.405 22.045C124.474 22.3752 124.616 22.6573 124.833 22.8915C125.058 23.1238 125.36 23.3215 125.739 23.4846C126.117 23.6478 126.569 23.7817 127.093 23.8864C127.618 23.9911 128.218 24.0755 128.892 24.1397C130.021 24.2394 131.029 24.4063 131.915 24.6403C132.811 24.8724 133.583 25.1816 134.232 25.5677C134.88 25.9538 135.409 26.4348 135.818 27.0106C136.226 27.5864 136.514 28.2758 136.682 29.0788C136.859 29.9265 136.852 30.7193 136.661 31.4574C136.471 32.1954 136.112 32.8616 135.584 33.4559C135.056 34.0501 134.384 34.558 133.569 34.9794C132.754 35.4008 131.811 35.7232 130.74 35.9466C129.777 36.1476 128.8 36.2209 127.811 36.1665C126.821 36.1032 125.888 35.8928 125.012 35.5353C124.146 35.176 123.401 34.6423 122.779 33.9342C122.156 33.2261 121.731 32.3233 121.502 31.2258L125.53 30.3855C125.657 30.9923 125.857 31.4858 126.132 31.866C126.407 32.2463 126.741 32.5305 127.134 32.7185C127.536 32.9046 127.986 33.0064 128.483 33.0238C128.989 33.0392 129.527 32.9874 130.098 32.8683C130.794 32.7231 131.345 32.5059 131.75 32.2165C132.164 31.9253 132.442 31.5834 132.583 31.1907C132.734 30.7962 132.764 30.3804 132.672 29.9432Z" fill="#51A9AE"/>
<path d="M152.611 12.1647L154.759 31.9547L150.695 32.3958L148.547 12.6058L152.611 12.1647ZM158.7 11.5037L159.047 14.6979L142.899 16.4506L142.553 13.2565L158.7 11.5037Z" fill="#51A9AE"/>
<path d="M190.088 11.1419L189.286 31.032L185.202 30.8673L186.003 10.9772L190.088 11.1419ZM196.208 11.3885L196.078 14.5988L179.849 13.9447L179.979 10.7344L196.208 11.3885Z" fill="#51A9AE"/>
<path d="M220.727 23.9593L220.593 24.8932C220.379 26.391 219.984 27.7063 219.407 28.8393C218.831 29.9722 218.113 30.9054 217.253 31.6387C216.394 32.363 215.419 32.8726 214.327 33.1676C213.245 33.4639 212.081 33.5231 210.836 33.345C209.599 33.1682 208.499 32.7852 207.533 32.196C206.577 31.6081 205.784 30.8455 205.154 29.9083C204.525 28.9621 204.088 27.8638 203.843 26.6135C203.607 25.3644 203.597 23.991 203.811 22.4932L203.944 21.5593C204.16 20.0525 204.555 18.7372 205.13 17.6132C205.707 16.4803 206.425 15.5472 207.285 14.8139C208.153 14.0818 209.129 13.5677 210.212 13.2714C211.304 12.9763 212.468 12.9172 213.704 13.094C214.949 13.2721 216.05 13.655 217.006 14.243C217.972 14.8322 218.764 15.5993 219.384 16.5442C220.013 17.4904 220.445 18.588 220.681 19.8371C220.927 21.0785 220.942 22.4525 220.727 23.9593ZM216.492 24.3067L216.63 23.3458C216.779 22.2992 216.816 21.3653 216.74 20.5442C216.664 19.7231 216.48 19.0154 216.188 18.4211C215.895 17.8269 215.502 17.3563 215.008 17.0095C214.516 16.6537 213.927 16.4267 213.241 16.3287C212.556 16.2306 211.927 16.2833 211.354 16.4869C210.792 16.6828 210.288 17.0249 209.84 17.5134C209.402 18.0031 209.031 18.6315 208.728 19.3984C208.425 20.1653 208.199 21.0721 208.049 22.1187L207.912 23.0796C207.763 24.1173 207.726 25.0511 207.801 25.8813C207.877 26.7024 208.061 27.4146 208.352 28.0178C208.644 28.6121 209.037 29.0872 209.529 29.443C210.021 29.7988 210.61 30.0258 211.296 30.1239C211.982 30.2219 212.611 30.1692 213.183 29.9656C213.756 29.762 214.261 29.4153 214.699 28.9256C215.139 28.4268 215.51 27.794 215.813 27.0271C216.118 26.2511 216.344 25.3444 216.492 24.3067Z" fill="#51A9AE"/>
<path d="M236.695 30.9094L231.775 29.6745L232.554 26.5715L237.474 27.8064C238.234 27.9972 238.884 28.0288 239.423 27.9011C239.965 27.7646 240.403 27.4986 240.737 27.1032C241.071 26.7078 241.31 26.2273 241.452 25.6615C241.596 25.0869 241.62 24.5243 241.523 23.9737C241.426 23.4232 241.177 22.9377 240.775 22.5173C240.373 22.0969 239.792 21.7913 239.032 21.6005L235.491 20.7118L231.427 36.9029L227.449 35.9043L232.295 16.597L239.814 18.4843C241.325 18.8637 242.552 19.4629 243.493 20.2817C244.445 21.0939 245.088 22.0495 245.423 23.1485C245.758 24.2475 245.771 25.4114 245.463 26.6402C245.15 27.8866 244.592 28.8931 243.789 29.6594C242.986 30.4257 241.978 30.9199 240.767 31.142C239.564 31.3664 238.207 31.2888 236.695 30.9094Z" fill="#51A9AE"/>
<path d="M268.041 38.9673L265.426 37.065L270.351 28.1855L280.676 32.4821L279.452 35.4232L272.118 32.3714L269.967 36.2594C270.271 36.2179 270.704 36.2205 271.267 36.2672C271.834 36.3055 272.424 36.4525 273.038 36.7081C273.93 37.0793 274.664 37.5473 275.238 38.1122C275.813 38.677 276.229 39.3243 276.488 40.0541C276.756 40.7873 276.856 41.5893 276.79 42.4602C276.724 43.331 276.49 44.2503 276.087 45.218C275.747 46.0343 275.297 46.7601 274.736 47.3956C274.179 48.0227 273.523 48.5197 272.768 48.8867C272.017 49.2454 271.186 49.4277 270.275 49.4337C269.364 49.4397 268.379 49.2221 267.319 48.7809C266.528 48.4518 265.811 48.0153 265.168 47.4715C264.534 46.9312 264.019 46.3071 263.623 45.5992C263.234 44.8947 263 44.1408 262.92 43.3373C262.852 42.529 262.986 41.6963 263.323 40.8394L266.933 42.3416C266.766 42.8844 266.713 43.3906 266.775 43.8603C266.848 44.3252 267.027 44.7356 267.314 45.0916C267.6 45.4477 267.991 45.729 268.488 45.9356C268.951 46.1282 269.383 46.2044 269.785 46.1643C270.186 46.1241 270.553 45.9904 270.884 45.7631C271.219 45.5273 271.521 45.2183 271.788 44.8361C272.068 44.449 272.311 44.0071 272.518 43.5107C272.724 43.0142 272.853 42.5394 272.903 42.0865C272.953 41.6336 272.918 41.209 272.796 40.813C272.675 40.4169 272.458 40.0601 272.146 39.7426C271.842 39.4287 271.442 39.1684 270.945 38.9618C270.272 38.6817 269.707 38.5697 269.249 38.626C268.8 38.6858 268.397 38.7996 268.041 38.9673Z" fill="#51A9AE"/>
<path d="M320.855 28.6998C320.464 28.8979 320.07 29.3183 319.689 29.7246C319.605 29.8147 318.791 30.5173 318.613 30.6462C318.288 31.1381 317.934 31.6146 317.567 32.0652C317.423 32.2416 317.245 32.3856 317.067 32.5292C316.869 32.6889 316.672 32.8479 316.524 33.0503C316.431 33.1783 316.31 33.3286 316.181 33.4705C316.234 33.4523 316.286 33.4364 316.337 33.4223C317.486 33.0989 318.605 32.1579 319.645 31.6315C320.251 31.3245 320.858 31.0175 321.447 30.6778C321.817 30.4645 322.227 30.2749 322.644 30.0823C323.681 29.6037 324.759 29.1061 325.354 28.1772C325.778 27.5154 326.147 26.8122 326.486 26.1039C326.827 25.3913 327.125 24.7801 327.823 24.3545C329.03 23.6181 330.214 23.4865 331.593 23.8812C332.272 24.0757 332.946 24.3097 333.617 24.5426C333.826 24.6154 334.035 24.688 334.244 24.7593C334.472 24.8373 334.607 24.8292 334.81 24.8171C334.81 24.8171 334.834 24.8155 334.849 24.8148C335.739 24.7754 334.27 26.0981 333.766 26.796C333.509 27.1528 333.252 27.5091 333.052 27.8492C332.929 28.0598 332.809 28.2722 332.688 28.4846C332.49 28.8336 332.292 29.1826 332.082 29.5239C331.701 30.1405 331.151 30.4723 330.532 30.8282C330.095 31.0792 329.643 31.2738 329.13 31.3035C328.9 31.3168 328.673 31.3012 328.445 31.2856C328.196 31.2685 327.947 31.2514 327.694 31.2718C327.606 31.2789 327.519 31.2855 327.433 31.2921C326.587 31.3565 325.803 31.4163 325.031 31.8367C324.551 32.098 324.219 32.5251 323.888 32.9508C323.696 33.1973 323.505 33.4433 323.286 33.6565C322.986 33.9473 322.678 34.2432 322.337 34.4861C320.9 35.5095 318.213 34.9534 316.775 34.4889C316.756 34.4828 316.723 34.4734 316.679 34.461C316.422 34.3883 315.804 34.2136 315.638 34.0133C315.578 34.1076 315.525 34.2192 315.477 34.3218C315.442 34.3954 315.41 34.4642 315.378 34.5187L314.532 35.9837C314.325 36.3426 314.148 36.7134 313.971 37.0836C313.795 37.4524 313.619 37.8205 313.414 38.1754C313.021 38.8569 312.602 39.5191 312.182 40.1813C312.144 40.2427 312.105 40.3041 312.066 40.3655C312.906 39.8341 313.883 39.5772 314.883 39.7352C315.042 39.7603 315.198 39.7961 315.352 39.8315C315.879 39.9522 316.381 40.0673 316.86 39.7288C316.958 39.6592 317.057 39.589 317.156 39.5185C317.823 39.0447 318.507 38.5586 319.221 38.1722C320.26 37.61 322.312 38.1612 323.389 38.0652C323.782 38.0301 324.18 37.974 324.578 37.9178C325.22 37.8272 325.865 37.7361 326.502 37.7321C326.525 37.732 326.576 37.729 326.644 37.725C326.936 37.7078 327.548 37.6718 327.608 37.7625C327.761 37.9915 326.565 39.5979 326.434 39.8253C325.902 40.7465 325.382 41.6483 324.39 42.1473C323.551 42.57 322.91 42.3471 322.141 41.9116C321.361 41.4706 320.357 40.9384 319.471 41.3693C319.054 41.5723 318.758 41.9571 318.465 42.3373C318.285 42.5707 318.107 42.8023 317.903 42.9891C317.356 43.4893 316.647 43.8201 315.966 44.1373C315.847 44.1931 315.728 44.2484 315.612 44.3042C314.752 44.7147 313.848 44.9631 312.889 45.0282C312.307 45.0677 310.053 44.5384 309.519 44.0121C309.178 44.3526 308.871 44.711 308.561 45.0735C308.435 45.2199 308.309 45.367 308.18 45.5139C307.719 46.0389 307.224 46.525 306.729 47.0084C306.888 46.9677 307.062 46.941 307.256 46.931C307.634 46.9115 308.01 46.8687 308.387 46.8259C309.003 46.7558 309.62 46.6857 310.243 46.7181C311.411 46.779 312.869 47.0821 313.937 47.5669C314.231 47.7 314.524 47.8333 314.846 47.9221C315.4 48.0749 315.963 47.8083 316.474 47.5666C316.592 47.5109 316.706 47.4566 316.818 47.409C317.71 47.0273 318.546 47.15 319.484 47.3412C320.695 47.5881 321.894 47.9746 322.72 48.9602C322.932 49.2128 323.572 49.7018 323.173 50.0308C322.973 50.1953 322.007 49.6265 321.305 49.5929C320.471 49.5531 319.66 49.8292 318.887 50.0926L318.868 50.099C318.8 50.1222 318.731 50.1452 318.661 50.1685C318.308 50.2859 317.939 50.4084 317.62 50.5829C317.376 50.7167 317.145 50.8766 316.915 51.0368C316.693 51.1913 316.47 51.346 316.233 51.4778C315.119 52.0987 313.964 52.4423 312.678 52.2442C312.001 52.1399 311.433 51.8443 310.853 51.5426C310.625 51.4243 310.396 51.305 310.158 51.196C309.82 51.0414 309.5 50.8539 309.18 50.6663C308.979 50.5483 308.777 50.4303 308.571 50.3204C307.455 49.7245 305.573 49.3934 304.43 49.4359C304.042 50.0002 303.407 50.915 302.749 51.8634C301.592 53.5321 300.362 55.3051 300.274 55.4577C300.025 55.8896 299.101 55.3147 298.965 54.9505C298.867 54.6862 302.669 49.2171 303.415 48.2425C303.236 48.0561 303.048 47.8749 302.86 47.6931C302.442 47.29 302.021 46.8833 301.672 46.4089C301.344 45.963 301.262 45.6118 301.247 45.072C301.24 44.8133 301.294 44.5653 301.348 44.3171C301.397 44.0937 301.445 43.8701 301.45 43.6384C301.462 42.9523 301.282 42.3516 301.094 41.7231C301.035 41.5251 300.975 41.3244 300.92 41.1173C300.67 40.1817 300.684 39.2259 300.906 38.2899C301.08 37.5528 301.571 36.8791 302.031 36.2482C302.149 36.0861 302.265 35.9268 302.373 35.77C302.632 35.3946 302.908 35.0327 303.184 34.671C303.56 34.1789 303.936 33.6871 304.267 33.1621L304.298 33.1125C304.815 32.2912 305.367 31.4145 305.996 30.6766C306.083 30.5747 306.191 30.486 306.298 30.3982C306.36 30.3479 306.421 30.2978 306.477 30.2458C306.706 30.2061 306.749 30.6418 306.795 31.1013C306.824 31.3958 306.854 31.7001 306.935 31.8952C307.227 32.6029 307.56 33.4401 307.39 34.2124C307.303 34.6078 307.101 34.9893 306.899 35.3709C306.651 35.8383 306.403 36.3058 306.367 36.7991C306.302 37.6763 306.295 38.5859 306.477 39.4447C306.638 40.1992 306.624 40.9293 306.611 41.6696C306.605 41.9984 306.598 42.3294 306.608 42.6653C306.635 43.6775 306.593 44.6951 306.166 45.624C306.285 45.5126 306.403 45.3993 306.517 45.2817C306.922 44.8625 307.284 44.4202 307.647 43.9762C307.836 43.7453 308.025 43.514 308.221 43.2852C309.357 41.959 310.371 40.6438 311.246 39.1293C311.606 38.5053 311.969 37.8936 312.36 37.2941C312.235 37.208 312.081 37.1163 311.949 37.0378C311.809 36.954 311.693 36.8851 311.664 36.854C311.409 36.5811 311.261 36.0231 311.122 35.6825C310.774 34.8268 310.444 34.0159 310.375 33.0571C310.316 32.2153 310.551 31.4391 310.787 30.6581C310.845 30.4668 310.903 30.2752 310.957 30.0823C311.244 29.0527 311.081 27.8421 310.597 26.8858C309.985 25.6788 309.57 24.534 309.689 23.1641C309.733 22.6653 310.035 22.1882 310.311 21.7531C310.375 21.6514 310.439 21.552 310.496 21.4551C310.731 21.0631 311.048 20.7064 311.361 20.3549C311.502 20.1967 311.642 20.0394 311.773 19.8805C312.887 18.5301 313.87 17.0914 314.832 15.6295C315.251 14.9039 315.696 15.1244 315.408 15.6234L315.405 15.6678C315.344 16.7962 315.282 17.9426 315.874 18.9618C316.462 19.9718 316.855 20.8298 316.712 22.0189C316.656 22.4786 316.519 22.8692 316.29 23.2657C316.045 23.6904 315.956 24.1516 315.873 24.6319C315.795 25.0889 315.679 25.5521 315.562 26.0187C315.335 26.9271 315.104 27.8483 315.14 28.7599C315.166 29.4132 315.107 30.0583 315.048 30.704C315.016 31.0475 314.985 31.3912 314.966 31.7363C314.928 32.4448 314.833 33.1222 314.723 33.8195C314.698 33.9797 314.663 34.133 314.62 34.2807C314.694 34.1683 314.772 34.0595 314.86 33.9585C314.917 33.8931 314.975 33.8303 315.032 33.768C315.192 33.5941 315.348 33.424 315.471 33.2123C315.659 32.8852 315.899 32.602 316.141 32.3167C316.289 32.1409 316.439 31.9642 316.578 31.7761C316.977 31.2341 317.42 30.7339 317.878 30.2453C318.018 30.096 318.152 29.9289 318.28 29.7523C318.247 29.5519 318.159 29.3523 318.072 29.1537C318.005 29.0018 317.939 28.8505 317.897 28.6997C317.872 28.6067 317.844 28.5146 317.817 28.4229C317.697 28.0207 317.581 27.6271 317.622 27.1955C317.642 26.9809 317.649 26.7707 317.655 26.5617C317.667 26.1939 317.678 25.8301 317.765 25.4539C317.879 24.9659 318.057 24.5427 318.242 24.1014C318.296 23.9728 318.351 23.8426 318.405 23.7089C318.694 22.9928 319.069 22.3353 319.445 21.6768C319.714 21.2042 319.984 20.7311 320.223 20.2353C320.401 19.8643 320.493 19.4403 320.583 19.0231C320.627 18.8203 320.671 18.619 320.724 18.4263C320.879 17.8619 320.924 17.2832 320.944 16.7007C320.95 16.5161 320.928 16.3322 320.906 16.1482C320.889 16.0037 320.871 15.8591 320.868 15.7143C320.86 15.4166 320.933 15.1287 321.006 14.8421C321.029 14.7506 321.052 14.6592 321.072 14.5677C321.242 13.808 321.683 13.0792 322.1 12.3886C322.205 12.2148 322.309 12.0433 322.407 11.8744C322.942 10.9462 323.824 10.172 324.644 9.47114C324.848 9.29698 325.052 9.12269 325.238 8.92999C326.194 7.93888 327.049 6.11178 327.538 4.95358C327.614 4.77403 327.68 4.59099 327.746 4.40811C328.066 3.85397 328.203 3.37431 328.512 3.26593C328.875 3.6419 329.033 5.46938 329.089 6.41313C329.138 7.22647 329.119 8.06954 328.891 8.85185C328.776 9.24631 328.537 9.61544 328.302 9.97866C328.165 10.1902 328.029 10.3998 327.92 10.6112C327.591 11.2487 327.505 12.0168 327.425 12.7331C327.415 12.8173 327.406 12.9007 327.396 12.9831C327.312 13.6997 327.235 14.396 327.223 15.1225C327.216 15.5948 327.101 16.0666 326.987 16.5348C326.922 16.8026 326.857 17.0692 326.812 17.3341C326.792 17.4584 326.773 17.5887 326.753 17.7221C326.671 18.2802 326.582 18.8938 326.32 19.3616C326.158 19.6505 325.988 19.9354 325.817 20.2205C325.557 20.6535 325.297 21.087 325.069 21.5352C324.889 21.8896 324.755 22.2889 324.623 22.6801C324.566 22.8507 324.509 23.0197 324.449 23.1828C324.012 24.3706 323.53 25.4684 322.897 26.5641C322.61 27.0618 322.268 27.5279 321.888 27.9588C321.569 28.3195 321.271 28.4886 320.855 28.6998Z" fill="#E7D3A1"/>
<path d="M32.9252 28.6998C33.3159 28.8979 33.71 29.3183 34.091 29.7246C34.1755 29.8147 34.9888 30.5173 35.1675 30.6462C35.492 31.1381 35.8461 31.6146 36.2134 32.0652C36.3572 32.2416 36.5356 32.3856 36.7134 32.5292C36.9112 32.6889 37.1082 32.8479 37.256 33.0503C37.3496 33.1783 37.4707 33.3286 37.5997 33.4705C37.5465 33.4523 37.4939 33.4364 37.4437 33.4223C36.2942 33.0989 35.1751 32.1579 34.1352 31.6315C33.5288 31.3245 32.9223 31.0175 32.3334 30.6778C31.9636 30.4645 31.553 30.2749 31.1358 30.0823C30.099 29.6037 29.0211 29.1061 28.4261 28.1772C28.0023 27.5154 27.6332 26.8122 27.2945 26.1039C26.9537 25.3913 26.6555 24.7801 25.9576 24.3545C24.7502 23.6181 23.5662 23.4865 22.1873 23.8812C21.5079 24.0757 20.8342 24.3097 20.1637 24.5426C19.9543 24.6154 19.7451 24.688 19.5362 24.7593C19.3079 24.8373 19.1729 24.8292 18.9705 24.8171C18.9705 24.8171 18.9464 24.8155 18.9309 24.8148C18.0411 24.7754 19.5099 26.0981 20.0138 26.796C20.2714 27.1528 20.5286 27.5091 20.7278 27.8492C20.8511 28.0598 20.9716 28.2722 21.0922 28.4846C21.2902 28.8336 21.4883 29.1826 21.6987 29.5239C22.079 30.1405 22.6296 30.4723 23.2484 30.8282C23.685 31.0792 24.1373 31.2738 24.6505 31.3035C24.8804 31.3168 25.1077 31.3012 25.3355 31.2856C25.584 31.2685 25.8331 31.2514 26.0866 31.2718C26.1743 31.2789 26.2612 31.2855 26.3476 31.2921C27.1929 31.3565 27.9771 31.4163 28.7496 31.8367C29.2297 32.098 29.5617 32.5251 29.8925 32.9508C30.0841 33.1973 30.2753 33.4433 30.4947 33.6565C30.7942 33.9473 31.1026 34.2432 31.4435 34.4861C32.8802 35.5095 35.5675 34.9534 37.0054 34.4889C37.0243 34.4828 37.0576 34.4734 37.1014 34.461C37.3585 34.3883 37.9761 34.2136 38.1424 34.0133C38.2025 34.1076 38.2551 34.2192 38.3035 34.3218C38.3382 34.3954 38.3706 34.4642 38.4021 34.5187L39.2479 35.9837C39.4551 36.3426 39.6323 36.7134 39.8092 37.0836C39.9854 37.4524 40.1613 37.8205 40.3662 38.1754C40.7597 38.8569 41.1787 39.5191 41.5978 40.1813C41.6367 40.2427 41.6755 40.3041 41.7144 40.3655C40.8738 39.8341 39.8973 39.5772 38.8972 39.7352C38.7387 39.7603 38.5822 39.7961 38.4279 39.8315C37.9014 39.9522 37.3992 40.0673 36.9203 39.7288C36.8218 39.6592 36.723 39.589 36.6238 39.5185C35.9571 39.0447 35.2731 38.5586 34.5589 38.1721C33.5199 37.61 31.468 38.1612 30.3913 38.0652C29.9978 38.0301 29.6008 37.974 29.2027 37.9178C28.5601 37.8272 27.915 37.7361 27.2779 37.7321C27.2554 37.732 27.2046 37.729 27.1366 37.725C26.844 37.7078 26.2326 37.6718 26.172 37.7625C26.0189 37.9915 27.2153 39.5979 27.3466 39.8253C27.8782 40.7465 28.3986 41.6483 29.3899 42.1473C30.2297 42.57 30.8698 42.3471 31.6397 41.9116C32.4194 41.4706 33.4229 40.9384 34.309 41.3693C34.7265 41.5723 35.0227 41.9571 35.3154 42.3373C35.495 42.5707 35.6732 42.8023 35.8774 42.9891C36.4242 43.4893 37.1335 43.8201 37.8138 44.1373C37.9333 44.1931 38.052 44.2484 38.1687 44.3042C39.0281 44.7147 39.9326 44.9631 40.8909 45.0282C41.4728 45.0677 43.7273 44.5384 44.2616 44.0121C44.6018 44.3526 44.9089 44.711 45.2195 45.0735C45.3449 45.2199 45.4709 45.367 45.5999 45.5139C46.0612 46.0389 46.5561 46.525 47.0515 47.0084C46.8918 46.9677 46.718 46.941 46.5243 46.931C46.1464 46.9115 45.77 46.8687 45.3936 46.8259C44.7769 46.7558 44.1603 46.6857 43.5375 46.7181C42.3693 46.779 40.9109 47.0821 39.8429 47.5669C39.5495 47.7 39.2559 47.8333 38.9339 47.9221C38.38 48.0749 37.8169 47.8083 37.3062 47.5666C37.1886 47.5109 37.0738 47.4566 36.9626 47.409C36.0706 47.0273 35.2346 47.15 34.2965 47.3412C33.0856 47.5881 31.886 47.9746 31.06 48.9602C30.8482 49.2128 30.208 49.7018 30.6077 50.0308C30.8076 50.1953 31.7735 49.6265 32.4753 49.5929C33.3089 49.5531 34.12 49.8292 34.8934 50.0926L34.9123 50.099C34.9805 50.1222 35.0497 50.1452 35.1196 50.1685C35.4725 50.2859 35.8409 50.4084 36.1599 50.5829C36.4047 50.7167 36.6348 50.8766 36.8653 51.0368C37.0876 51.1913 37.3104 51.346 37.5468 51.4778C38.661 52.0987 39.8161 52.4423 41.1024 52.2442C41.7795 52.1399 42.3478 51.8443 42.9277 51.5426C43.155 51.4243 43.3843 51.305 43.6225 51.196C43.9604 51.0414 44.2803 50.8539 44.6003 50.6663C44.8016 50.5483 45.0029 50.4303 45.2088 50.3205C46.3256 49.7245 48.2068 49.3934 49.3504 49.4359C49.7386 50.0002 50.3731 50.915 51.031 51.8634C52.1884 53.5321 53.4182 55.3051 53.5063 55.4577C53.7556 55.8896 54.6788 55.3147 54.8149 54.9505C54.9138 54.6862 51.1112 49.2171 50.3648 48.2425C50.5447 48.0561 50.7323 47.8749 50.9206 47.6931C51.338 47.29 51.7591 46.8833 52.1081 46.4089C52.4361 45.963 52.5186 45.6118 52.5332 45.072C52.5402 44.8133 52.4862 44.5653 52.4322 44.3171C52.3835 44.0937 52.3348 43.8701 52.3306 43.6384C52.3181 42.9523 52.4979 42.3516 52.686 41.7231C52.7453 41.5251 52.8054 41.3244 52.8606 41.1173C53.1098 40.1817 53.0961 39.2259 52.8746 38.2899C52.7001 37.5528 52.2093 36.8791 51.7497 36.2482C51.6316 36.0861 51.5155 35.9268 51.4075 35.77C51.1487 35.3946 50.8722 35.0327 50.5959 34.671C50.2199 34.1789 49.8442 33.6871 49.5137 33.1621L49.4825 33.1125C48.9655 32.2912 48.4136 31.4145 47.7845 30.6766C47.6976 30.5747 47.5892 30.486 47.482 30.3982C47.4205 30.3479 47.3594 30.2978 47.3029 30.2458C47.0745 30.2061 47.0313 30.6418 46.9857 31.1013C46.9565 31.3958 46.9263 31.7001 46.8458 31.8952C46.5537 32.6029 46.2201 33.4401 46.39 34.2124C46.4771 34.6078 46.6793 34.9893 46.8817 35.3709C47.1294 35.8383 47.3773 36.3058 47.4137 36.7991C47.4784 37.6763 47.4853 38.5859 47.3029 39.4447C47.1425 40.1992 47.156 40.9293 47.1696 41.6696C47.1757 41.9984 47.1818 42.3294 47.1727 42.6653C47.1453 43.6775 47.1869 44.6951 47.6142 45.624C47.4948 45.5126 47.3771 45.3993 47.2635 45.2817C46.8584 44.8625 46.4966 44.4202 46.1333 43.9762C45.9444 43.7453 45.7552 43.514 45.5592 43.2852C44.4237 41.959 43.4092 40.6438 42.5348 39.1293C42.1745 38.5053 41.8109 37.8936 41.42 37.2941C41.5455 37.208 41.6992 37.1163 41.8309 37.0378C41.9715 36.954 42.0869 36.8851 42.1161 36.854C42.3717 36.5811 42.5193 36.0231 42.658 35.6825C43.0064 34.8268 43.3366 34.0159 43.4048 33.0571C43.4646 32.2153 43.2295 31.4391 42.9928 30.6581C42.9349 30.4668 42.8768 30.2752 42.823 30.0823C42.5358 29.0527 42.6992 27.8421 43.1836 26.8858C43.795 25.6788 44.2106 24.534 44.0908 23.1641C44.0472 22.6653 43.7449 22.1882 43.4692 21.7531C43.4048 21.6514 43.3418 21.552 43.2839 21.4551C43.0496 21.0631 42.732 20.7064 42.419 20.3549C42.2781 20.1967 42.1381 20.0394 42.0071 19.8805C40.8938 18.5301 39.9103 17.0914 38.9481 15.6295C38.5292 14.9039 38.0846 15.1244 38.3727 15.6234L38.3751 15.6678C38.4364 16.7962 38.4988 17.9426 37.906 18.9618C37.3187 19.9718 36.9253 20.8298 37.0686 22.0189C37.124 22.4786 37.2613 22.8692 37.4902 23.2657C37.7354 23.6904 37.8247 24.1516 37.9072 24.6319C37.9858 25.0889 38.1017 25.5521 38.2184 26.0187C38.4458 26.9271 38.6762 27.8483 38.64 28.7599C38.614 29.4132 38.6732 30.0583 38.7324 30.704C38.7639 31.0475 38.7955 31.3912 38.8142 31.7363C38.8526 32.4448 38.9469 33.1222 39.0568 33.8195C39.082 33.9797 39.117 34.133 39.1601 34.2807C39.0862 34.1683 39.008 34.0595 38.9203 33.9585C38.8635 33.8931 38.8057 33.8303 38.7483 33.768C38.5884 33.5941 38.4319 33.424 38.3097 33.2123C38.1208 32.8852 37.8811 32.602 37.6396 32.3167C37.4908 32.1409 37.3413 31.9642 37.2026 31.7761C36.8032 31.2341 36.3608 30.7339 35.9021 30.2453C35.7621 30.096 35.6284 29.9289 35.5003 29.7523C35.5332 29.5519 35.6209 29.3523 35.7082 29.1537C35.775 29.0018 35.8415 28.8505 35.883 28.6998C35.9087 28.6067 35.936 28.5146 35.9633 28.4229C36.0828 28.0207 36.1998 27.6271 36.1585 27.1955C36.1379 26.9809 36.1314 26.7707 36.125 26.5617C36.1136 26.1939 36.1023 25.8301 36.015 25.4539C35.9017 24.9659 35.7237 24.5427 35.538 24.1014C35.4839 23.9728 35.4292 23.8426 35.3752 23.7089C35.0861 22.9928 34.7112 22.3353 34.3356 21.6768C34.0661 21.2042 33.7963 20.7311 33.5576 20.2353C33.3791 19.8643 33.2873 19.4403 33.197 19.0231C33.1531 18.8203 33.1096 18.619 33.0566 18.4263C32.9013 17.8619 32.8559 17.2832 32.8365 16.7007C32.8304 16.5161 32.8524 16.3322 32.8743 16.1482C32.8916 16.0037 32.9089 15.8591 32.9125 15.7143C32.92 15.4166 32.8472 15.1287 32.7748 14.8421C32.7516 14.7506 32.7285 14.6592 32.7081 14.5677C32.5384 13.808 32.0977 13.0792 31.6801 12.3886C31.575 12.2148 31.4712 12.0433 31.3738 11.8744C30.8378 10.9462 29.9565 10.172 29.136 9.47114C28.9321 9.29698 28.728 9.12269 28.5421 8.92999C27.5859 7.93888 26.7315 6.11178 26.2422 4.95358C26.1664 4.77403 26.1002 4.59099 26.0341 4.40811C25.7142 3.85397 25.5775 3.37431 25.2679 3.26593C24.9048 3.6419 24.7469 5.46938 24.6909 6.41313C24.6426 7.22647 24.6617 8.06954 24.8896 8.85185C25.0045 9.24631 25.2435 9.61544 25.4786 9.97866C25.6156 10.1902 25.7513 10.3998 25.8604 10.6112C26.1894 11.2487 26.2755 12.0168 26.3557 12.7331C26.3651 12.8173 26.3745 12.9007 26.3841 12.9831C26.468 13.6997 26.5455 14.396 26.5571 15.1225C26.5646 15.5948 26.6795 16.0666 26.7934 16.5348C26.8586 16.8026 26.9235 17.0692 26.9679 17.3341C26.9887 17.4584 27.0077 17.5887 27.0272 17.7221C27.1089 18.2802 27.1986 18.8938 27.4603 19.3616C27.6218 19.6505 27.7927 19.9354 27.9636 20.2205C28.2233 20.6535 28.4833 21.087 28.7111 21.5352C28.8912 21.8896 29.0256 22.2889 29.1572 22.6801C29.2146 22.8507 29.2715 23.0197 29.3314 23.1828C29.7678 24.3706 30.2506 25.4684 30.8832 26.5641C31.1706 27.0618 31.5119 27.5279 31.8927 27.9588C32.2116 28.3195 32.5088 28.4886 32.9252 28.6998Z" fill="#E7D3A1"/>
<defs>
<filter id="filter0_d_416_2566" x="0" y="65.623" width="353" height="134" filterUnits="userSpaceOnUse" color-interpolation-filters="sRGB">
<feFlood flood-opacity="0" result="BackgroundImageFix"/>
<feColorMatrix in="SourceAlpha" type="matrix" values="0 0 0 0 0 0 0 0 0 0 0 0 0 0 0 0 0 0 127 0" result="hardAlpha"/>
<feOffset dy="4"/>
<feGaussianBlur stdDeviation="6"/>
<feComposite in2="hardAlpha" operator="out"/>
<feColorMatrix type="matrix" values="0 0 0 0 0.520833 0 0 0 0 0.364452 0 0 0 0 0.253906 0 0 0 0.25 0"/>
<feBlend mode="normal" in2="BackgroundImageFix" result="effect1_dropShadow_416_2566"/>
<feBlend mode="normal" in="SourceGraphic" in2="effect1_dropShadow_416_2566" result="shape"/>
</filter>
</defs>
</svg>
