<svg width="338" height="142" viewBox="0 0 338 142" fill="none" xmlns="http://www.w3.org/2000/svg">
<g filter="url(#filter0_d_622_2260)">
<path d="M67.8848 60.2142V8H76.2293V60.2142H67.8848ZM82.2244 40.7233L77.296 17.2627H75.0546L75.4259 8H80.7594L85.3165 30.9813H85.6136L86.5317 40.7233H82.2244ZM84.3578 40.7233L85.4583 30.9813H85.8971L90.461 8H95.7945L96.159 17.2627H93.9176L88.9892 40.7233H84.3578ZM94.9843 60.2142V8H103.329V60.2142H94.9843Z" fill="#51A9AE"/>
<path d="M113.482 16.0137V8H145.99V16.0137H113.482ZM113.482 60.2142V52.16H145.99V60.2142H113.482ZM125.243 60.2142V8H134.141V60.2142H125.243Z" fill="#51A9AE"/>
<path d="M157.312 60.2142V8H166.177V60.2142H157.312ZM157.312 60.2142V52.0519H192.615V60.2142H157.312Z" fill="#51A9AE"/>
<path d="M201.066 60.2142V8H209.931V60.2142H201.066ZM206.069 43.5926L206.731 34.843C210.336 34.843 213.448 34.0869 216.068 32.5813C218.687 31.0758 220.854 29.0504 222.556 26.5119C224.257 23.9735 225.519 21.1042 226.343 17.9108C227.167 14.7107 227.572 11.4094 227.572 8H236.511C236.511 12.6314 235.829 17.0804 234.472 21.3472C233.115 25.614 231.123 29.4217 228.517 32.7636C225.904 36.1122 222.711 38.752 218.937 40.6896C215.163 42.6272 210.869 43.5926 206.069 43.5926ZM228.274 60.2142L216.689 36.1662L224.743 32.4125L239.008 60.2075H228.274V60.2142Z" fill="#51A9AE"/>
<path d="M258.277 43.8897L240.596 8H250.338L261.774 33.0067H262.436L273.873 8H283.615L265.926 43.8897H258.277ZM257.656 60.2142V34.4717H266.554V60.2142H257.656Z" fill="#51A9AE"/>
<path d="M96.4555 116.25C89.4275 113.515 74.8313 117.6 64.4411 122.042C34.5735 134.809 29.8206 109.147 47.5022 102.288C56.5151 98.7908 66.8648 99.0879 75.7359 102.538C83.5809 105.583 90.1026 110.876 96.4555 116.25Z" fill="#51A9AE"/>
<path d="M74.1303 95.5571C66.5689 91.8169 56.0505 91.7696 48.03 89.5417C19.1413 81.5212 31.9485 55.0766 46.5514 62.4827C59.021 68.8019 61.0531 81.9061 74.1303 95.5571Z" fill="#51A9AE"/>
<path d="M46.3482 96.0497C42.3447 93.9366 31.3402 88.6233 23.1914 89.7575C4.63222 92.35 11.9033 112.86 25.156 107.642C32.1368 104.894 37.2273 97.454 46.3482 96.0497Z" fill="#51A9AE"/>
<path d="M33.3587 110.889C34.9453 112.178 35.1883 114.514 33.8988 116.101C32.6093 117.687 30.2734 117.931 28.6869 116.641C27.1003 115.352 26.8573 113.016 28.1468 111.429C29.4362 109.842 31.7654 109.599 33.3587 110.889Z" fill="#51A9AE"/>
<path d="M27.708 79.3474C28.6599 80.1238 28.8084 81.5213 28.032 82.4732C27.2556 83.4252 25.8581 83.5737 24.9062 82.7973C23.9543 82.0209 23.8058 80.6234 24.5822 79.6715C25.3518 78.7195 26.7493 78.5778 27.708 79.3474Z" fill="#51A9AE"/>
<path d="M241.541 116.25C248.569 113.515 263.165 117.6 273.555 122.042C303.423 134.809 308.176 109.147 290.494 102.288C281.481 98.7908 271.132 99.0879 262.261 102.538C254.416 105.583 247.894 110.876 241.541 116.25Z" fill="#51A9AE"/>
<path d="M263.867 95.5571C271.429 91.8169 281.947 91.7696 289.968 89.5417C318.849 81.5212 306.049 55.0766 291.439 62.4827C278.976 68.8019 276.944 81.9061 263.867 95.5571Z" fill="#51A9AE"/>
<path d="M291.648 96.0497C295.652 93.9366 306.656 88.6233 314.805 89.7575C333.364 92.35 326.093 112.86 312.841 107.642C305.86 104.894 300.769 97.454 291.648 96.0497Z" fill="#51A9AE"/>
<path d="M304.638 110.889C303.051 112.178 302.808 114.514 304.098 116.101C305.387 117.687 307.723 117.931 309.31 116.641C310.896 115.352 311.139 113.016 309.85 111.429C308.561 109.842 306.231 109.599 304.638 110.889Z" fill="#51A9AE"/>
<path d="M310.289 79.3474C309.337 80.1238 309.189 81.5213 309.965 82.4732C310.741 83.4252 312.139 83.5737 313.091 82.7973C314.043 82.0209 314.191 80.6234 313.415 79.6715C312.645 78.7195 311.248 78.5778 310.289 79.3474Z" fill="#51A9AE"/>
<path d="M109.154 121.651V69.4365H118.019V121.651H109.154ZM115.001 95.9825V92.3773H129.712V95.9825H115.001ZM117.499 93.6668V89.9873H125.182C127.659 89.9873 129.55 89.4405 130.86 88.3535C132.169 87.2666 132.824 85.6733 132.824 83.5939C132.824 81.636 132.129 80.144 130.745 79.1246C129.361 78.1051 127.329 77.5988 124.662 77.5988H117.641L116.763 69.4365H125.033C130.448 69.4365 134.634 70.564 137.591 72.8189C140.548 75.0738 142.019 78.3009 142.019 82.4867C142.019 86.0649 140.777 88.8261 138.286 90.757C135.795 92.6946 132.264 93.66 127.68 93.66H117.499V93.6668ZM117.499 121.651V113.488H127.389C130.279 113.488 132.527 112.82 134.12 111.483C135.714 110.147 136.51 108.263 136.51 105.839C136.51 103.389 135.673 101.498 134.012 100.161C132.345 98.8247 129.968 98.1564 126.876 98.1564H117.647L116.763 94.4769H130.549C135.376 94.4769 139.11 95.5909 141.743 97.8256C144.376 100.053 145.699 103.22 145.699 107.311C145.699 111.868 144.295 115.399 141.486 117.904C138.678 120.402 134.688 121.657 129.516 121.657H117.499V121.651Z" fill="#51A9AE"/>
<path d="M149.047 121.651L164.122 69.4365H175.519L190.594 121.651H181.217L170.151 79.6242H169.49L158.424 121.651H149.047ZM156.399 110.619V102.457H182.871V110.619H156.399Z" fill="#51A9AE"/>
<path d="M196.664 121.651V69.4365H205.528V121.651H196.664ZM205.009 102.234V94.0719H214.973C217.498 94.0719 219.456 93.363 220.854 91.9385C222.251 90.5139 222.947 88.5291 222.947 85.9839C222.947 83.3104 222.245 81.2445 220.854 79.7862C219.463 78.3279 217.498 77.5988 214.973 77.5988H205.157L204.273 69.4365H214.973C220.516 69.4365 224.79 70.807 227.808 73.5548C230.825 76.3025 232.331 80.198 232.331 85.248C232.331 90.6152 230.825 94.7875 227.808 97.7648C224.79 100.742 220.516 102.234 214.973 102.234H205.009ZM223.764 121.651L213.171 97.0897H222.548L234.242 121.651H223.764Z" fill="#51A9AE"/>
</g>
<defs>
<filter id="filter0_d_622_2260" x="0" y="0" width="337.996" height="141.551" filterUnits="userSpaceOnUse" color-interpolation-filters="sRGB">
<feFlood flood-opacity="0" result="BackgroundImageFix"/>
<feColorMatrix in="SourceAlpha" type="matrix" values="0 0 0 0 0 0 0 0 0 0 0 0 0 0 0 0 0 0 127 0" result="hardAlpha"/>
<feOffset dy="4"/>
<feGaussianBlur stdDeviation="6"/>
<feComposite in2="hardAlpha" operator="out"/>
<feColorMatrix type="matrix" values="0 0 0 0 0.0878993 0 0 0 0 0.331966 0 0 0 0 0.345833 0 0 0 0.15 0"/>
<feBlend mode="normal" in2="BackgroundImageFix" result="effect1_dropShadow_622_2260"/>
<feBlend mode="normal" in="SourceGraphic" in2="effect1_dropShadow_622_2260" result="shape"/>
</filter>
</defs>
</svg>
