<svg width="433" height="475" viewBox="0 0 433 475" fill="none" xmlns="http://www.w3.org/2000/svg">
<g filter="url(#filter0_d_223_6952)">
<path d="M91.3714 288.053C88.3604 292.904 84.0206 296.788 78.8679 299.243C72.6077 302.194 65.7406 303.628 58.8232 303.428C46.9893 303.428 37.2544 300.543 29.6183 294.773C21.9823 289.003 17.8094 280.938 17.0998 270.578H44.2208C44.4253 274.13 45.9367 277.48 48.4636 279.983C50.9917 282.314 54.3387 283.548 57.7738 283.418C60.6094 283.575 63.3932 282.611 65.5248 280.733C66.475 279.805 67.2187 278.687 67.707 277.451C68.1953 276.215 68.4172 274.891 68.3583 273.563C68.3949 272.325 68.1829 271.093 67.7348 269.939C67.2867 268.784 66.6117 267.732 65.7497 266.843C63.89 264.975 61.692 263.479 59.273 262.433C56.6943 261.293 53.1162 259.928 48.5386 258.338C42.9589 256.485 37.5095 254.26 32.227 251.678C27.8765 249.432 24.1441 246.151 21.3576 242.123C18.3591 237.893 16.8599 232.393 16.8599 225.623C16.7096 219.833 18.377 214.141 21.6275 209.348C24.9404 204.672 29.5096 201.032 34.8056 198.848C40.8958 196.307 47.443 195.046 54.0407 195.143C65.7547 195.143 75.0648 197.933 81.9713 203.513C88.8777 209.093 92.7807 216.758 93.6802 226.508H66.1095C65.7879 223.399 64.4493 220.483 62.3014 218.213C61.2003 217.178 59.9 216.378 58.4797 215.862C57.0595 215.346 55.5491 215.126 54.0407 215.213C51.418 215.09 48.843 215.945 46.8144 217.613C45.8622 218.501 45.1203 219.591 44.6431 220.803C44.1658 222.015 43.9652 223.319 44.0559 224.618C44.0099 226.979 44.8929 229.263 46.5146 230.978C48.2729 232.794 50.3786 234.238 52.7064 235.223C55.1801 236.318 58.7033 237.713 63.4259 239.408C69.0855 241.256 74.5982 243.528 79.9173 246.203C84.3113 248.552 88.0913 251.902 90.9516 255.983C94.0301 260.273 95.5693 265.848 95.5693 272.708C95.6186 278.114 94.1652 283.426 91.3714 288.053Z" fill="#D89E75"/>
<path d="M192.899 283.118H153.41L146.843 302.378H120.052L158.627 197.543H187.982L226.572 302.378H199.451L192.899 283.118ZM186.348 263.708L173.229 224.873L159.976 263.708H186.348Z" fill="#D89E75"/>
<path d="M279.763 282.819H313.735V302.319H254.291V196.809H279.778L279.763 282.819Z" fill="#D89E75"/>
<path d="M368.862 217.119V239.214H404.468V258.474H368.862V281.934H408.936V302.379H343.375V196.809H408.936V217.119H368.862Z" fill="#D89E75"/>
<path d="M210.259 82.0125C210.127 75.8769 212.172 69.893 216.031 65.1224L218.804 61.6423C221.332 58.481 222.554 54.4704 222.216 50.4357C221.879 46.401 220.008 42.6492 216.99 39.9522C215.395 38.5742 213.538 37.5346 211.529 36.8965C209.521 36.2583 207.404 36.0349 205.307 36.2397C203.21 36.4444 201.176 37.0731 199.329 38.0877C197.482 39.1024 195.86 40.4818 194.562 42.1423L191.563 45.9973C187.883 50.9184 182.566 54.3607 176.571 55.7023C175.986 55.8373 175.402 55.9574 174.802 56.0624L172.193 59.4074C171.144 60.7424 178.19 68.0624 188.07 75.7424C197.95 83.4225 206.661 88.4925 207.71 87.1425L210.319 83.8125C210.274 83.2125 210.259 82.6425 210.259 82.0125Z" fill="#D89E75"/>
<path d="M261.143 63.9974C257.23 60.8575 254.571 56.4195 253.647 51.4873L252.897 47.9024C252.241 44.6455 250.361 41.7649 247.643 39.8555C244.926 37.9462 241.579 37.1539 238.295 37.6423C236.595 37.9176 234.97 38.5353 233.516 39.4579C232.063 40.3805 230.812 41.5889 229.839 43.0097C228.866 44.4305 228.192 46.0342 227.857 47.7235C227.522 49.4128 227.533 51.1526 227.89 52.8374L228.73 56.7524C229.861 61.6513 229.213 66.7932 226.901 71.2574C226.691 71.6924 226.451 72.1275 226.211 72.5625L226.931 75.9375C227.215 77.3175 235.536 76.7025 245.491 74.5875C255.446 72.4725 263.317 69.6524 263.017 68.2874L262.297 64.8974C261.908 64.6424 261.518 64.3124 261.143 63.9974Z" fill="#D89E75"/>
<path d="M232.298 26.6475C232.082 27.272 232.04 27.9433 232.175 28.5899C232.31 29.2366 232.618 29.8346 233.065 30.3205C233.512 30.8065 234.083 31.1623 234.716 31.3502C235.349 31.538 236.021 31.551 236.66 31.3876C241.64 30.0848 246.222 27.5761 250.004 24.0826L250.663 23.4825C251.653 22.5675 252.239 21.2965 252.293 19.949C252.346 18.6016 251.862 17.2882 250.948 16.2975L248.459 13.6425C247.547 12.6499 246.278 12.0607 244.931 12.0044C243.584 11.9482 242.27 12.4295 241.278 13.3425L240.633 13.9425C236.863 17.4361 234.002 21.7972 232.298 26.6475Z" fill="#D89E75"/>
<path d="M213.707 31.2073C214.36 31.323 215.031 31.2584 215.65 31.0207C216.268 30.7829 216.81 30.3809 217.217 29.8578C217.624 29.3348 217.881 28.7105 217.96 28.0523C218.039 27.3941 217.937 26.7268 217.665 26.1223C215.57 21.4157 212.352 17.2953 208.295 14.1222L207.605 13.5823C207.079 13.1712 206.476 12.868 205.833 12.6901C205.189 12.5121 204.517 12.4628 203.854 12.545C203.191 12.6271 202.551 12.8392 201.97 13.1691C201.389 13.4989 200.879 13.94 200.469 14.4672L198.235 17.3323C197.408 18.3958 197.035 19.7438 197.198 21.0817C197.361 22.4196 198.046 23.6386 199.105 24.4722L199.809 25.0123C203.866 28.183 208.638 30.3102 213.707 31.2073Z" fill="#D89E75"/>
<path d="M226.643 25.6067L223.81 25.5419C222.635 25.515 221.66 26.4465 221.633 27.6226L221.452 35.5256C221.425 36.7017 222.357 37.6768 223.532 37.7037L226.365 37.7685C227.54 37.7954 228.515 36.8639 228.542 35.6878L228.722 27.7848C228.749 26.6087 227.818 25.6336 226.643 25.6067Z" fill="#D89E75"/>
<path d="M202.747 31.6422C202.747 31.6422 195.251 24.5172 181.383 30.2922C181.23 30.355 181.097 30.4582 180.998 30.5909C180.898 30.7235 180.837 30.8806 180.82 31.0453C180.803 31.2101 180.831 31.3763 180.901 31.5263C180.972 31.6764 181.081 31.8046 181.218 31.8972L186.496 35.4823L185.956 40.5523C185.943 40.7313 185.984 40.91 186.072 41.0662C186.161 41.2224 186.293 41.3491 186.453 41.4307C186.612 41.5122 186.793 41.5449 186.971 41.5248C187.149 41.5046 187.317 41.4325 187.455 41.3173C191.814 37.0497 197.025 33.7526 202.747 31.6422Z" fill="#D89E75"/>
<path d="M243.512 32.5723C243.512 32.5723 251.218 25.6573 264.891 31.8373C265.042 31.9008 265.174 32.0047 265.271 32.1376C265.367 32.2706 265.426 32.4275 265.44 32.5914C265.454 32.7553 265.422 32.9199 265.349 33.0672C265.276 33.2146 265.164 33.3391 265.026 33.4273L259.643 36.8623L260.033 41.9624C260.036 42.1376 259.989 42.31 259.897 42.4592C259.805 42.6084 259.672 42.728 259.515 42.8038C259.357 42.8797 259.18 42.9085 259.006 42.887C258.833 42.8654 258.669 42.7944 258.534 42.6823C254.298 38.2863 249.178 34.8403 243.512 32.5723Z" fill="#D89E75"/>
<path d="M313.346 44.9774C314.56 44.2442 315.896 43.7361 317.289 43.4774C318.751 43.2323 320.25 43.5776 321.457 44.4375C322.252 45.1539 322.766 46.1303 322.906 47.1915C323.046 48.2527 322.803 49.3291 322.222 50.2275C320.913 51.962 319.085 53.2336 317.005 53.8575C314.364 54.8669 311.601 55.5226 308.789 55.8074C308.332 55.8824 307.866 55.8824 307.409 55.8074C306.885 55.6724 302.717 53.9474 302.447 53.3774C301.952 52.3274 304.456 50.9924 305.146 50.4674C307.718 48.4077 310.462 46.5711 313.346 44.9774Z" fill="#51A9AE"/>
<path d="M334.861 54.5473C336.158 53.9906 337.544 53.6705 338.954 53.6023C340.434 53.5522 341.874 54.0917 342.957 55.1023C343.65 55.9164 344.03 56.9506 344.03 58.0198C344.03 59.0891 343.65 60.1233 342.957 60.9374C341.444 62.5112 339.47 63.5621 337.32 63.9374C334.572 64.5981 331.749 64.8906 328.924 64.8073C328.461 64.8197 327.998 64.7486 327.56 64.5973C327.05 64.4023 323.152 62.1673 322.957 61.5973C322.598 60.4873 325.236 59.4824 325.956 59.0473C328.793 57.2995 331.772 55.7942 334.861 54.5473Z" fill="#51A9AE"/>
<path d="M353.901 67.8375C355.265 67.4505 356.686 67.3082 358.099 67.4175C359.571 67.5608 360.928 68.2774 361.877 69.4125C362.462 70.3075 362.71 71.3818 362.575 72.4429C362.441 73.5039 361.933 74.4822 361.143 75.2025C359.427 76.5523 357.327 77.3196 355.146 77.3926C352.34 77.6969 349.507 77.6263 346.72 77.1826C346.256 77.143 345.803 77.0158 345.386 76.8076C343.832 75.8057 342.425 74.5944 341.203 73.2076C340.993 72.0676 343.736 71.4076 344.546 71.0626C347.571 69.732 350.699 68.6533 353.901 67.8375Z" fill="#51A9AE"/>
<path d="M369.598 81.1429C370.98 80.8611 372.401 80.8256 373.796 81.0378C375.257 81.2837 376.561 82.098 377.424 83.3029C377.945 84.2391 378.115 85.3306 377.903 86.381C377.691 87.4314 377.112 88.3717 376.269 89.0329C374.465 90.2449 372.324 90.854 370.153 90.7729C367.329 90.8646 364.506 90.5821 361.757 89.9329C361.305 89.8483 360.869 89.6913 360.467 89.4679C360.003 89.1679 356.629 86.1829 356.555 85.5529C356.435 84.4129 359.223 83.9629 360.048 83.6779C363.154 82.5648 366.349 81.7168 369.598 81.1429Z" fill="#51A9AE"/>
<path d="M403.931 150.053C404.245 150.578 404.53 151.103 404.8 151.553C406.704 155.228 407.364 159.383 404.41 162.053C402.521 163.793 399.838 163.193 397.754 161.393C393.376 157.658 396.434 143.678 397.754 142.328C397.754 142.328 400.227 144.698 400.452 144.953C401.756 146.55 402.919 148.256 403.931 150.053Z" fill="#51A9AE"/>
<path d="M293.047 62.5729C293.354 63.8956 293.92 65.1446 294.711 66.2479C295.138 66.8263 295.681 67.3081 296.306 67.6622C296.932 68.0163 297.624 68.2346 298.339 68.3029C299.442 68.3262 300.52 67.9779 301.401 67.3141C302.282 66.6504 302.915 65.7096 303.197 64.6429C303.582 62.5661 303.254 60.4202 302.267 58.5529C301.176 56.0727 299.732 53.7638 297.98 51.6978C297.715 51.3427 297.384 51.0422 297.005 50.8129C296.54 50.5429 292.343 49.0279 291.728 49.3129C290.603 49.7329 291.338 52.3128 291.428 53.1978C291.686 56.365 292.228 59.5026 293.047 62.5729Z" fill="#51A9AE"/>
<path d="M311.982 70.5075C312.119 71.858 312.522 73.1681 313.167 74.3625C313.523 74.9862 314.004 75.5303 314.579 75.9611C315.154 76.3919 315.811 76.7004 316.51 76.8676C317.598 77.025 318.707 76.8156 319.662 76.2724C320.618 75.7292 321.366 74.883 321.787 73.8676C322.43 71.858 322.372 69.6896 321.622 67.7175C320.848 65.1208 319.702 62.6501 318.219 60.3824C317.992 59.9975 317.698 59.657 317.349 59.3775C315.781 58.4144 314.086 57.6773 312.312 57.1875C311.143 57.4725 311.547 60.1875 311.532 61.0125C311.393 64.1846 311.543 67.3628 311.982 70.5075Z" fill="#51A9AE"/>
<path d="M329.118 80.9631C329.07 82.3175 329.289 83.6682 329.762 84.9381C330.02 85.6227 330.421 86.2443 330.938 86.7617C331.455 87.279 332.077 87.6801 332.761 87.9381C333.819 88.2464 334.949 88.1925 335.973 87.7849C336.997 87.3773 337.856 86.6394 338.413 85.6881C339.331 83.7861 339.58 81.6292 339.118 79.5681C338.713 76.8892 337.925 74.2824 336.779 71.828C336.613 71.4137 336.375 71.0327 336.074 70.703C335.684 70.343 332.041 67.703 331.382 67.838C330.182 67.943 330.212 70.673 330.077 71.513C329.475 74.6279 329.154 77.7906 329.118 80.9631Z" fill="#51A9AE"/>
<path d="M343.241 92.9028C342.93 94.2254 342.879 95.5958 343.091 96.9378C343.218 97.6445 343.491 98.3171 343.891 98.9134C344.29 99.5098 344.809 100.017 345.415 100.403C346.394 100.917 347.518 101.088 348.605 100.886C349.693 100.685 350.681 100.124 351.412 99.2928C352.686 97.6077 353.352 95.5402 353.301 93.4278C353.423 90.7185 353.156 88.0057 352.506 85.3727C352.42 84.9376 352.258 84.5211 352.026 84.1427C351.726 83.6927 348.653 80.4677 347.993 80.4077C346.794 80.2877 346.299 82.9577 345.984 83.7527C344.799 86.7148 343.881 89.7771 343.241 92.9028Z" fill="#51A9AE"/>
<path d="M313.346 44.9774C314.56 44.2442 315.896 43.7361 317.289 43.4774C318.751 43.2323 320.25 43.5776 321.457 44.4375C322.252 45.1539 322.766 46.1303 322.906 47.1915C323.046 48.2527 322.803 49.3291 322.222 50.2275C320.913 51.962 319.085 53.2336 317.005 53.8575C314.364 54.8669 311.601 55.5226 308.789 55.8074C308.332 55.8824 307.866 55.8824 307.409 55.8074C306.885 55.6724 302.717 53.9474 302.447 53.3774C301.952 52.3274 304.456 50.9924 305.146 50.4674C307.718 48.4077 310.462 46.5711 313.346 44.9774Z" fill="#51A9AE"/>
<path d="M334.861 54.5473C336.158 53.9906 337.544 53.6705 338.954 53.6023C340.434 53.5522 341.874 54.0917 342.957 55.1023C343.65 55.9164 344.03 56.9506 344.03 58.0198C344.03 59.0891 343.65 60.1233 342.957 60.9374C341.444 62.5112 339.47 63.5621 337.32 63.9374C334.572 64.5981 331.749 64.8906 328.924 64.8073C328.461 64.8197 327.998 64.7486 327.56 64.5973C327.05 64.4023 323.152 62.1673 322.957 61.5973C322.598 60.4873 325.236 59.4824 325.956 59.0473C328.793 57.2995 331.772 55.7942 334.861 54.5473Z" fill="#51A9AE"/>
<path d="M293.047 62.5729C293.354 63.8956 293.92 65.1446 294.711 66.2479C295.138 66.8263 295.681 67.3081 296.306 67.6622C296.932 68.0163 297.624 68.2346 298.339 68.3029C299.442 68.3262 300.52 67.9779 301.401 67.3141C302.282 66.6504 302.915 65.7096 303.197 64.6429C303.582 62.5661 303.254 60.4202 302.267 58.5529C301.176 56.0727 299.732 53.7638 297.98 51.6978C297.715 51.3427 297.384 51.0422 297.005 50.8129C296.54 50.5429 292.343 49.0279 291.728 49.3129C290.603 49.7329 291.338 52.3128 291.428 53.1978C291.686 56.365 292.228 59.5026 293.047 62.5729Z" fill="#51A9AE"/>
<path d="M311.982 70.5075C312.119 71.858 312.522 73.1681 313.167 74.3625C313.523 74.9862 314.004 75.5303 314.579 75.9611C315.154 76.3919 315.811 76.7004 316.51 76.8676C317.598 77.025 318.707 76.8156 319.662 76.2724C320.618 75.7292 321.366 74.883 321.787 73.8676C322.43 71.858 322.372 69.6896 321.622 67.7175C320.848 65.1208 319.702 62.6501 318.219 60.3824C317.992 59.9975 317.698 59.657 317.349 59.3775C315.781 58.4144 314.086 57.6773 312.312 57.1875C311.143 57.4725 311.547 60.1875 311.532 61.0125C311.393 64.1846 311.543 67.3628 311.982 70.5075Z" fill="#51A9AE"/>
<path d="M329.118 80.9631C329.07 82.3175 329.289 83.6682 329.762 84.9381C330.02 85.6227 330.421 86.2443 330.938 86.7617C331.455 87.279 332.077 87.6801 332.761 87.9381C333.819 88.2464 334.949 88.1925 335.973 87.7849C336.997 87.3773 337.856 86.6394 338.413 85.6881C339.331 83.7861 339.58 81.6292 339.118 79.5681C338.713 76.8892 337.925 74.2824 336.779 71.828C336.613 71.4137 336.375 71.0327 336.074 70.703C335.684 70.343 332.041 67.703 331.382 67.838C330.182 67.943 330.212 70.673 330.077 71.513C329.475 74.6279 329.154 77.7906 329.118 80.9631Z" fill="#51A9AE"/>
<path d="M382.925 98.1525C384.329 98.0052 385.748 98.1222 387.108 98.4975C387.814 98.6911 388.474 99.0228 389.05 99.4734C389.626 99.924 390.108 100.485 390.466 101.122C390.887 102.109 390.941 103.213 390.619 104.237C390.297 105.26 389.621 106.134 388.712 106.702C386.793 107.71 384.606 108.088 382.46 107.783C379.638 107.571 376.856 106.991 374.185 106.057C373.742 105.926 373.326 105.718 372.955 105.442C372.521 105.097 369.492 101.782 369.492 101.137C369.492 99.9825 372.311 99.8325 373.15 99.6375C376.361 98.8695 379.631 98.3728 382.925 98.1525Z" fill="#51A9AE"/>
<path d="M398.353 115.928C399.764 115.971 401.155 116.266 402.461 116.798C403.817 117.364 404.894 118.442 405.46 119.798C405.746 120.829 405.656 121.928 405.205 122.899C404.755 123.869 403.973 124.647 403.001 125.093C400.97 125.86 398.748 125.955 396.659 125.363C393.889 124.803 391.207 123.875 388.683 122.603C388.261 122.409 387.872 122.151 387.529 121.838C387.154 121.448 384.531 117.758 384.65 117.128C384.785 115.988 387.649 116.198 388.474 116.108C391.756 115.77 395.061 115.71 398.353 115.928Z" fill="#51A9AE"/>
<path d="M409.747 133.523C411.151 133.665 412.518 134.062 413.78 134.693C414.436 135.023 415.02 135.481 415.496 136.04C415.972 136.599 416.332 137.248 416.554 137.948C416.765 138.994 416.597 140.082 416.081 141.016C415.565 141.95 414.733 142.67 413.735 143.048C411.65 143.654 409.427 143.591 407.378 142.868C404.66 142.104 402.053 140.984 399.627 139.538C399.216 139.318 398.846 139.028 398.533 138.683C397.456 137.182 396.598 135.535 395.984 133.793C396.209 132.653 398.983 133.073 399.882 133.043C403.178 132.926 406.478 133.087 409.747 133.523Z" fill="#51A9AE"/>
<path d="M357.08 105.473C356.82 106.805 356.82 108.175 357.08 109.508C357.224 110.212 357.513 110.878 357.929 111.465C358.344 112.051 358.877 112.544 359.494 112.913C360.489 113.413 361.623 113.56 362.713 113.332C363.802 113.103 364.781 112.511 365.491 111.653C366.714 109.932 367.326 107.852 367.23 105.743C367.287 103.034 366.954 100.331 366.241 97.7177C366.151 97.2789 365.978 96.8614 365.731 96.4877C365.416 96.0677 362.268 92.9027 361.608 92.8577C360.409 92.7677 359.974 95.4527 359.689 96.2627C358.546 99.2487 357.673 102.331 357.08 105.473Z" fill="#51A9AE"/>
<path d="M370.871 120.697C370.431 121.979 370.242 123.334 370.317 124.688C370.371 125.404 370.576 126.102 370.917 126.735C371.258 127.368 371.727 127.922 372.296 128.362C373.21 128.954 374.296 129.225 375.381 129.133C376.466 129.04 377.49 128.59 378.292 127.853C379.72 126.301 380.586 124.315 380.751 122.212C381.141 119.532 381.141 116.808 380.751 114.127C380.713 113.679 380.591 113.241 380.391 112.837C380.136 112.372 377.393 108.847 376.748 108.727C375.564 108.487 374.814 111.097 374.424 111.862C372.977 114.694 371.787 117.651 370.871 120.697Z" fill="#51A9AE"/>
<path d="M381.98 137.423C381.364 138.629 380.987 139.943 380.87 141.292C380.824 142.008 380.926 142.726 381.171 143.4C381.417 144.074 381.799 144.689 382.295 145.208C383.121 145.938 384.168 146.37 385.268 146.435C386.369 146.501 387.46 146.195 388.366 145.568C390.004 144.237 391.145 142.393 391.605 140.333C392.375 137.732 392.764 135.034 392.759 132.322C392.786 131.876 392.73 131.429 392.594 131.002C392.399 130.507 390.196 126.637 389.596 126.412C388.456 126.007 387.332 128.497 386.852 129.187C384.979 131.777 383.348 134.533 381.98 137.423Z" fill="#51A9AE"/>
<path d="M382.925 98.1525C384.329 98.0052 385.748 98.1222 387.108 98.4975C387.814 98.6911 388.474 99.0228 389.05 99.4734C389.626 99.924 390.108 100.485 390.466 101.122C390.887 102.109 390.941 103.213 390.619 104.237C390.297 105.26 389.621 106.134 388.712 106.702C386.793 107.71 384.606 108.088 382.46 107.783C379.638 107.571 376.856 106.991 374.185 106.057C373.742 105.926 373.326 105.718 372.955 105.442C372.521 105.097 369.492 101.782 369.492 101.137C369.492 99.9825 372.311 99.8325 373.15 99.6375C376.361 98.8695 379.631 98.3728 382.925 98.1525Z" fill="#51A9AE"/>
<path d="M398.353 115.928C399.764 115.971 401.155 116.266 402.461 116.798C403.817 117.364 404.894 118.442 405.46 119.798C405.746 120.829 405.656 121.928 405.205 122.899C404.755 123.869 403.973 124.647 403.001 125.093C400.97 125.86 398.748 125.955 396.659 125.363C393.889 124.803 391.207 123.875 388.683 122.603C388.261 122.409 387.872 122.151 387.529 121.838C387.154 121.448 384.531 117.758 384.65 117.128C384.785 115.988 387.649 116.198 388.474 116.108C391.756 115.77 395.061 115.71 398.353 115.928Z" fill="#51A9AE"/>
<path d="M357.08 105.473C356.82 106.805 356.82 108.175 357.08 109.508C357.224 110.212 357.513 110.878 357.929 111.465C358.344 112.051 358.877 112.544 359.494 112.913C360.489 113.413 361.623 113.56 362.713 113.332C363.802 113.103 364.781 112.511 365.491 111.653C366.714 109.932 367.326 107.852 367.23 105.743C367.287 103.034 366.954 100.331 366.241 97.7177C366.151 97.2789 365.978 96.8614 365.731 96.4877C365.416 96.0677 362.268 92.9027 361.608 92.8577C360.409 92.7677 359.974 95.4527 359.689 96.2627C358.546 99.2487 357.673 102.331 357.08 105.473Z" fill="#51A9AE"/>
<path d="M370.871 120.697C370.431 121.979 370.242 123.334 370.317 124.688C370.371 125.404 370.576 126.102 370.917 126.735C371.258 127.368 371.727 127.922 372.296 128.362C373.21 128.954 374.296 129.225 375.381 129.133C376.466 129.04 377.49 128.59 378.292 127.853C379.72 126.301 380.586 124.315 380.751 122.212C381.141 119.532 381.141 116.808 380.751 114.127C380.713 113.679 380.591 113.241 380.391 112.837C380.136 112.372 377.393 108.847 376.748 108.727C375.564 108.487 374.814 111.097 374.424 111.862C372.977 114.694 371.787 117.651 370.871 120.697Z" fill="#51A9AE"/>
<path d="M381.98 137.423C381.364 138.629 380.987 139.943 380.87 141.292C380.824 142.008 380.926 142.726 381.171 143.4C381.417 144.074 381.799 144.689 382.295 145.208C383.121 145.938 384.168 146.37 385.268 146.435C386.369 146.501 387.46 146.195 388.366 145.568C390.004 144.237 391.145 142.393 391.605 140.333C392.375 137.732 392.764 135.034 392.759 132.322C392.786 131.876 392.73 131.429 392.594 131.002C392.399 130.507 390.196 126.637 389.596 126.412C388.456 126.007 387.332 128.497 386.852 129.187C384.979 131.777 383.348 134.533 381.98 137.423Z" fill="#51A9AE"/>
<path d="M131.114 44.9775C129.902 44.2419 128.566 43.7336 127.172 43.4775C126.45 43.3565 125.712 43.379 125 43.5437C124.287 43.7084 123.614 44.0122 123.019 44.4375C122.224 45.154 121.71 46.1304 121.57 47.1916C121.43 48.2527 121.672 49.3292 122.254 50.2275C123.557 51.9617 125.38 53.2337 127.456 53.8575C130.098 54.8637 132.86 55.5192 135.672 55.8075C136.134 55.8826 136.605 55.8826 137.066 55.8075C137.591 55.6725 141.744 53.9475 142.014 53.3775C142.509 52.3275 140.02 50.9925 139.33 50.4675C136.75 48.411 134.002 46.5746 131.114 44.9775Z" fill="#51A9AE"/>
<path d="M109.615 54.5477C108.313 53.9907 106.922 53.6707 105.508 53.6026C104.777 53.5765 104.048 53.6956 103.363 53.9531C102.679 54.2106 102.052 54.6013 101.52 55.1027C100.827 55.9167 100.446 56.951 100.446 58.0202C100.446 59.0894 100.827 60.1237 101.52 60.9377C103.032 62.5116 105.007 63.5624 107.157 63.9377C109.905 64.5969 112.728 64.8894 115.552 64.8076C116.021 64.8199 116.488 64.7488 116.932 64.5976C117.426 64.4026 121.339 62.1676 121.534 61.5976C121.894 60.4876 119.24 59.4827 118.536 59.0477C115.694 57.2991 112.71 55.7937 109.615 54.5477Z" fill="#51A9AE"/>
<path d="M90.5608 67.8374C89.2026 67.4497 87.7861 67.3074 86.3779 67.4174C84.9048 67.5576 83.5468 68.2747 82.5999 69.4124C82.0128 70.3058 81.7629 71.379 81.8947 72.4399C82.0266 73.5009 82.5317 74.4802 83.3195 75.2024C85.0362 76.5495 87.1361 77.3164 89.3164 77.3925C92.1268 77.6969 94.9652 77.6263 97.757 77.1825C98.2208 77.1389 98.6728 77.0118 99.0914 76.8075C100.644 75.8056 102.052 74.5943 103.274 73.2075C103.484 72.0675 100.726 71.4075 99.9309 71.0625C96.9014 69.7319 93.7674 68.6532 90.5608 67.8374Z" fill="#51A9AE"/>
<path d="M74.878 81.1427C73.4909 80.8592 72.0646 80.8237 70.6651 81.0377C69.2097 81.2872 67.9113 82.1011 67.052 83.3027C66.5295 84.2373 66.3571 85.3276 66.566 86.3779C66.7748 87.4282 67.3511 88.3695 68.1914 89.0328C69.9963 90.2428 72.137 90.8517 74.3083 90.7727C77.1316 90.866 79.9549 90.5836 82.7039 89.9327C83.1607 89.8482 83.601 89.6912 84.0082 89.4677C84.473 89.1677 87.8463 86.1827 87.9062 85.5527C88.0412 84.4127 85.2526 83.9627 84.428 83.6777C81.3212 82.5667 78.1266 81.7187 74.878 81.1427Z" fill="#51A9AE"/>
<path d="M40.5318 150.053L39.6623 151.553C37.7582 155.228 37.1136 159.383 40.0671 162.053C41.9561 163.793 44.5647 163.193 46.7236 161.393C51.1014 157.658 48.0279 143.678 46.7236 142.328C46.7236 142.328 44.2349 144.698 44.025 144.953C42.712 146.546 41.543 148.253 40.5318 150.053Z" fill="#51A9AE"/>
<path d="M151.429 62.5729C151.109 63.8911 150.545 65.1377 149.765 66.2479C149.337 66.8249 148.794 67.3058 148.169 67.6597C147.544 68.0137 146.852 68.2328 146.137 68.3029C145.035 68.3262 143.956 67.9779 143.075 67.3141C142.194 66.6504 141.562 65.7096 141.28 64.6429C140.897 62.5676 141.219 60.4241 142.194 58.5529C143.291 56.0756 144.734 53.7673 146.482 51.6978C146.752 51.3423 147.088 51.0419 147.471 50.8129C147.936 50.5429 152.119 49.0279 152.749 49.3129C153.873 49.7329 153.124 52.3128 153.049 53.1978C152.783 56.3641 152.241 59.5011 151.429 62.5729Z" fill="#51A9AE"/>
<path d="M132.493 70.5073C132.344 71.8573 131.937 73.1661 131.294 74.3624C130.941 74.989 130.461 75.5352 129.886 75.9665C129.31 76.3977 128.651 76.7045 127.951 76.8675C126.864 77.0196 125.757 76.8079 124.802 76.2653C123.848 75.7227 123.099 74.8797 122.673 73.8674C122.026 71.832 122.09 69.637 122.853 67.6424C123.639 65.0476 124.79 62.5778 126.272 60.3073C126.497 59.9262 126.786 59.5864 127.126 59.3023C128.701 58.3417 130.401 57.6047 132.179 57.1123C133.348 57.3973 132.928 60.1124 132.958 60.9374C133.082 64.1349 132.927 67.337 132.493 70.5073Z" fill="#51A9AE"/>
<path d="M115.358 80.9631C115.411 82.3166 115.197 83.6673 114.728 84.9381C114.471 85.6227 114.07 86.2443 113.553 86.7617C113.036 87.279 112.414 87.6801 111.73 87.9381C110.672 88.2491 109.541 88.1965 108.516 87.7886C107.492 87.3808 106.633 86.6413 106.078 85.6881C105.16 83.7861 104.911 81.6292 105.373 79.5681C105.772 76.8898 106.555 74.283 107.697 71.828C107.874 71.4161 108.117 71.0361 108.417 70.703C108.792 70.343 112.435 67.703 113.094 67.838C114.294 67.943 114.264 70.673 114.414 71.513C115.004 74.6294 115.32 77.7915 115.358 80.9631Z" fill="#51A9AE"/>
<path d="M101.234 92.9028C101.539 94.2264 101.585 95.5967 101.369 96.9378C101.245 97.6457 100.974 98.3198 100.574 98.9166C100.173 99.5134 99.6526 100.02 99.0449 100.403C98.065 100.915 96.9421 101.083 95.8552 100.882C94.7683 100.681 93.78 100.121 93.048 99.2928C91.7843 97.603 91.1244 95.5376 91.174 93.4278C91.0462 90.7192 91.3088 88.0064 91.9536 85.3727C92.0382 84.9348 92.2061 84.5172 92.4483 84.1427C92.7482 83.6927 95.8216 80.4677 96.4812 80.4077C97.6806 80.2877 98.1754 82.9577 98.4752 83.7527C99.6654 86.7144 100.589 89.7766 101.234 92.9028Z" fill="#51A9AE"/>
<path d="M131.114 44.9775C129.902 44.2419 128.566 43.7336 127.172 43.4775C126.45 43.3565 125.712 43.379 125 43.5437C124.287 43.7084 123.614 44.0122 123.019 44.4375C122.224 45.154 121.71 46.1304 121.57 47.1916C121.43 48.2527 121.672 49.3292 122.254 50.2275C123.557 51.9617 125.38 53.2337 127.456 53.8575C130.098 54.8637 132.86 55.5192 135.672 55.8075C136.134 55.8826 136.605 55.8826 137.066 55.8075C137.591 55.6725 141.744 53.9475 142.014 53.3775C142.509 52.3275 140.02 50.9925 139.33 50.4675C136.75 48.411 134.002 46.5746 131.114 44.9775Z" fill="#51A9AE"/>
<path d="M109.615 54.5477C108.313 53.9907 106.922 53.6707 105.508 53.6026C104.777 53.5765 104.048 53.6956 103.363 53.9531C102.679 54.2106 102.052 54.6013 101.52 55.1027C100.827 55.9167 100.446 56.951 100.446 58.0202C100.446 59.0894 100.827 60.1237 101.52 60.9377C103.032 62.5116 105.007 63.5624 107.157 63.9377C109.905 64.5969 112.728 64.8894 115.552 64.8076C116.021 64.8199 116.488 64.7488 116.932 64.5976C117.426 64.4026 121.339 62.1676 121.534 61.5976C121.894 60.4876 119.24 59.4827 118.536 59.0477C115.694 57.2991 112.71 55.7937 109.615 54.5477Z" fill="#51A9AE"/>
<path d="M151.429 62.5729C151.109 63.8911 150.545 65.1377 149.765 66.2479C149.337 66.8249 148.794 67.3058 148.169 67.6597C147.544 68.0137 146.852 68.2328 146.137 68.3029C145.035 68.3262 143.956 67.9779 143.075 67.3141C142.194 66.6504 141.562 65.7096 141.28 64.6429C140.897 62.5676 141.219 60.4241 142.194 58.5529C143.291 56.0756 144.734 53.7673 146.482 51.6978C146.752 51.3423 147.088 51.0419 147.471 50.8129C147.936 50.5429 152.119 49.0279 152.749 49.3129C153.873 49.7329 153.124 52.3128 153.049 53.1978C152.783 56.3641 152.241 59.5011 151.429 62.5729Z" fill="#51A9AE"/>
<path d="M132.493 70.5073C132.344 71.8573 131.937 73.1661 131.294 74.3624C130.941 74.989 130.461 75.5352 129.886 75.9665C129.31 76.3977 128.651 76.7045 127.951 76.8675C126.864 77.0196 125.757 76.8079 124.802 76.2653C123.848 75.7227 123.099 74.8797 122.673 73.8674C122.026 71.832 122.09 69.637 122.853 67.6424C123.639 65.0476 124.79 62.5778 126.272 60.3073C126.497 59.9262 126.786 59.5864 127.126 59.3023C128.701 58.3417 130.401 57.6047 132.179 57.1123C133.348 57.3973 132.928 60.1124 132.958 60.9374C133.082 64.1349 132.927 67.337 132.493 70.5073Z" fill="#51A9AE"/>
<path d="M115.358 80.9631C115.411 82.3166 115.197 83.6673 114.728 84.9381C114.471 85.6227 114.07 86.2443 113.553 86.7617C113.036 87.279 112.414 87.6801 111.73 87.9381C110.672 88.2491 109.541 88.1965 108.516 87.7886C107.492 87.3808 106.633 86.6413 106.078 85.6881C105.16 83.7861 104.911 81.6292 105.373 79.5681C105.772 76.8898 106.555 74.283 107.697 71.828C107.874 71.4161 108.117 71.0361 108.417 70.703C108.792 70.343 112.435 67.703 113.094 67.838C114.294 67.943 114.264 70.673 114.414 71.513C115.004 74.6294 115.32 77.7915 115.358 80.9631Z" fill="#51A9AE"/>
<path d="M61.5508 98.1526C60.1423 98.0052 58.7186 98.1222 57.353 98.4975C55.9304 98.8933 54.7227 99.8373 53.9947 101.123C53.5745 102.109 53.5204 103.214 53.842 104.237C54.1636 105.26 54.8398 106.134 55.7488 106.703C57.6732 107.71 59.8651 108.088 62.0156 107.783C64.8324 107.57 67.6095 106.99 70.2763 106.058C70.7247 105.929 71.1463 105.721 71.5206 105.443C71.9404 105.098 74.9839 101.783 74.9839 101.138C74.9839 99.9826 72.1653 99.8326 71.3107 99.6376C68.1048 98.8696 64.84 98.3728 61.5508 98.1526Z" fill="#51A9AE"/>
<path d="M46.1236 115.928C44.7088 115.972 43.3129 116.267 42.0007 116.798C40.6436 117.361 39.5652 118.44 39.0023 119.798C38.6955 120.827 38.7745 121.933 39.2244 122.907C39.6743 123.882 40.4642 124.659 41.446 125.093C43.4817 125.86 45.7094 125.955 47.8027 125.363C50.5719 124.801 53.254 123.873 55.7786 122.603C56.1976 122.412 56.5826 122.154 56.918 121.838C58.1251 120.422 59.1246 118.841 59.8865 117.143C59.7366 116.003 56.888 116.213 56.0485 116.123C52.7517 115.777 49.4314 115.712 46.1236 115.928Z" fill="#51A9AE"/>
<path d="M34.7294 133.523C33.321 133.667 31.95 134.064 30.6815 134.693C30.0293 135.026 29.4496 135.485 28.9761 136.044C28.5026 136.602 28.1446 137.25 27.923 137.948C27.7118 138.994 27.8793 140.082 28.3956 141.016C28.912 141.95 29.7434 142.67 30.7415 143.048C32.8271 143.654 35.0502 143.591 37.0982 142.868C39.8161 142.101 42.4219 140.981 44.8492 139.538C45.2577 139.314 45.6273 139.025 45.9436 138.683C47.0149 137.178 47.8726 135.533 48.4923 133.793C48.2675 132.653 45.4939 133.073 44.5944 133.043C41.2984 132.926 37.9985 133.087 34.7294 133.523Z" fill="#51A9AE"/>
<path d="M87.3822 105.473C87.6429 106.805 87.6429 108.175 87.3822 109.508C87.2357 110.211 86.9457 110.876 86.5303 111.462C86.115 112.048 85.5833 112.542 84.9684 112.913C83.9739 113.413 82.8392 113.56 81.7499 113.332C80.6605 113.103 79.6811 112.511 78.9715 111.653C77.7354 109.939 77.1218 107.854 77.2325 105.743C77.1632 103.034 77.4915 100.331 78.2069 97.7177C78.3037 97.281 78.4762 96.8647 78.7167 96.4877C79.0315 96.0677 82.1799 92.9027 82.8395 92.8577C84.0539 92.7677 84.4887 95.4527 84.7586 96.2627C85.913 99.2459 86.7912 102.329 87.3822 105.473Z" fill="#51A9AE"/>
<path d="M73.6046 120.697C74.0466 121.979 74.23 123.335 74.1444 124.688C74.0895 125.403 73.8866 126.099 73.5485 126.732C73.2104 127.364 72.7445 127.92 72.1804 128.362C71.2655 128.954 70.1802 129.225 69.0948 129.133C68.0095 129.04 66.9854 128.59 66.1835 127.853C64.756 126.301 63.8902 124.315 63.7247 122.212C63.3274 119.532 63.3274 116.808 63.7247 114.127C63.765 113.681 63.8816 113.245 64.0696 112.837C64.3244 112.372 67.068 108.847 67.7127 108.727C68.8971 108.487 69.6617 111.097 70.0365 111.862C71.4892 114.694 72.6834 117.651 73.6046 120.697Z" fill="#51A9AE"/>
<path d="M62.495 137.423C63.1108 138.629 63.4875 139.943 63.6044 141.292C63.6511 142.008 63.5486 142.726 63.3034 143.4C63.0582 144.074 62.6757 144.689 62.1801 145.208C61.3515 145.939 60.3019 146.372 59.1987 146.437C58.0955 146.502 57.0023 146.196 56.0933 145.568C54.4594 144.236 53.3234 142.391 52.8699 140.333C52.1022 137.732 51.7084 135.034 51.7005 132.322C51.6789 131.875 51.7399 131.428 51.8804 131.002C52.6616 129.34 53.6708 127.795 54.8789 126.412C56.0183 126.007 57.1427 128.497 57.6225 129.187C59.4904 131.781 61.1211 134.537 62.495 137.423Z" fill="#51A9AE"/>
<path d="M61.5508 98.1526C60.1423 98.0052 58.7186 98.1222 57.353 98.4975C55.9304 98.8933 54.7227 99.8373 53.9947 101.123C53.5745 102.109 53.5204 103.214 53.842 104.237C54.1636 105.26 54.8398 106.134 55.7488 106.703C57.6732 107.71 59.8651 108.088 62.0156 107.783C64.8324 107.57 67.6095 106.99 70.2763 106.058C70.7247 105.929 71.1463 105.721 71.5206 105.443C71.9404 105.098 74.9839 101.783 74.9839 101.138C74.9839 99.9826 72.1653 99.8326 71.3107 99.6376C68.1048 98.8696 64.84 98.3728 61.5508 98.1526Z" fill="#51A9AE"/>
<path d="M46.1236 115.928C44.7088 115.972 43.3129 116.267 42.0007 116.798C40.6436 117.361 39.5652 118.44 39.0023 119.798C38.6955 120.827 38.7745 121.933 39.2244 122.907C39.6743 123.882 40.4642 124.659 41.446 125.093C43.4817 125.86 45.7094 125.955 47.8027 125.363C50.5719 124.801 53.254 123.873 55.7786 122.603C56.1976 122.412 56.5826 122.154 56.918 121.838C58.1251 120.422 59.1246 118.841 59.8865 117.143C59.7366 116.003 56.888 116.213 56.0485 116.123C52.7517 115.777 49.4314 115.712 46.1236 115.928Z" fill="#51A9AE"/>
<path d="M87.3822 105.473C87.6429 106.805 87.6429 108.175 87.3822 109.508C87.2357 110.211 86.9457 110.876 86.5303 111.462C86.115 112.048 85.5833 112.542 84.9684 112.913C83.9739 113.413 82.8392 113.56 81.7499 113.332C80.6605 113.103 79.6811 112.511 78.9715 111.653C77.7354 109.939 77.1218 107.854 77.2325 105.743C77.1632 103.034 77.4915 100.331 78.2069 97.7177C78.3037 97.281 78.4762 96.8647 78.7167 96.4877C79.0315 96.0677 82.1799 92.9027 82.8395 92.8577C84.0539 92.7677 84.4887 95.4527 84.7586 96.2627C85.913 99.2459 86.7912 102.329 87.3822 105.473Z" fill="#51A9AE"/>
<path d="M73.6046 120.697C74.0466 121.979 74.23 123.335 74.1444 124.688C74.0895 125.403 73.8866 126.099 73.5485 126.732C73.2104 127.364 72.7445 127.92 72.1804 128.362C71.2655 128.954 70.1802 129.225 69.0948 129.133C68.0095 129.04 66.9854 128.59 66.1835 127.853C64.756 126.301 63.8902 124.315 63.7247 122.212C63.3274 119.532 63.3274 116.808 63.7247 114.127C63.765 113.681 63.8816 113.245 64.0696 112.837C64.3244 112.372 67.068 108.847 67.7127 108.727C68.8971 108.487 69.6617 111.097 70.0365 111.862C71.4892 114.694 72.6834 117.651 73.6046 120.697Z" fill="#51A9AE"/>
<path d="M62.495 137.423C63.1108 138.629 63.4875 139.943 63.6044 141.292C63.6511 142.008 63.5486 142.726 63.3034 143.4C63.0582 144.074 62.6757 144.689 62.1801 145.208C61.3515 145.939 60.3019 146.372 59.1987 146.437C58.0955 146.502 57.0023 146.196 56.0933 145.568C54.4594 144.236 53.3234 142.391 52.8699 140.333C52.1022 137.732 51.7084 135.034 51.7005 132.322C51.6789 131.875 51.7399 131.428 51.8804 131.002C52.6616 129.34 53.6708 127.795 54.8789 126.412C56.0183 126.007 57.1427 128.497 57.6225 129.187C59.4904 131.781 61.1211 134.537 62.495 137.423Z" fill="#51A9AE"/>
<path d="M216.451 454.209C259.929 454.209 301.442 443.934 336.179 424.914L313.976 383.964C286.075 399.324 252.208 407.634 216.451 407.634C180.68 407.634 146.827 399.324 118.912 383.964L96.708 424.914C131.445 443.934 172.974 454.209 216.451 454.209Z" fill="#51A9AE"/>
<path d="M358.518 371.454L360.797 338.664C347.849 351.929 333.017 363.21 316.779 372.144L338.968 413.079C359.342 401.914 377.958 387.802 394.214 371.199L358.518 371.454Z" fill="#51A9AE"/>
<path d="M74.3853 371.454L72.0915 338.664C85.0389 351.929 99.8709 363.21 116.109 372.144L93.9202 413.079C73.5644 401.907 54.9643 387.795 38.7188 371.199L74.3853 371.454Z" fill="#51A9AE"/>
<path d="M126.948 421.959L128.582 417.609L143.575 407.784L149.197 409.884L144.219 423.219L146.813 424.194L145.119 428.694L142.51 427.719L141.011 431.679L135.719 429.714L137.218 425.739L126.948 421.959ZM142.015 414.114L133.965 419.409L139.287 421.404L142.015 414.114Z" fill="#F5F0E3"/>
<path d="M175.493 421.644L165.388 419.304L164.324 423.804C164.962 423.375 165.7 423.117 166.467 423.054C167.365 422.954 168.273 423.01 169.151 423.219C170.497 423.481 171.734 424.139 172.704 425.109C173.562 425.983 174.132 427.097 174.338 428.304C174.559 429.594 174.519 430.916 174.218 432.189C174.03 433.261 173.63 434.285 173.044 435.202C172.457 436.118 171.694 436.909 170.8 437.529C169.858 438.094 168.81 438.456 167.72 438.592C166.631 438.729 165.525 438.638 164.473 438.324C162.945 438.007 161.51 437.346 160.276 436.389C159.215 435.569 158.413 434.459 157.967 433.194C157.538 431.908 157.465 430.529 157.757 429.204L163.064 430.434C162.984 431.128 163.148 431.829 163.529 432.414C163.733 432.718 163.996 432.976 164.303 433.175C164.609 433.373 164.953 433.508 165.313 433.569C165.713 433.691 166.136 433.716 166.548 433.643C166.959 433.57 167.348 433.401 167.682 433.149C168.348 432.552 168.796 431.75 168.956 430.869C169.078 430.469 169.12 430.047 169.079 429.63C169.037 429.213 168.914 428.809 168.716 428.439C168.498 428.101 168.212 427.812 167.877 427.59C167.541 427.368 167.164 427.218 166.767 427.149C166.166 426.966 165.524 426.966 164.923 427.149C164.414 427.324 163.977 427.661 163.679 428.109L158.417 426.894L161.565 413.304L176.557 416.799L175.493 421.644Z" fill="#F5F0E3"/>
<path d="M194.908 421.074C195.384 421.645 195.734 422.311 195.933 423.027C196.132 423.744 196.176 424.494 196.062 425.229C196.042 425.975 195.865 426.707 195.542 427.379C195.219 428.052 194.758 428.648 194.188 429.129C193.047 429.999 191.61 430.387 190.185 430.209C188.727 430.136 187.355 429.496 186.362 428.424C185.486 427.223 185.076 425.743 185.208 424.261C185.34 422.78 186.006 421.396 187.082 420.369C188.248 419.49 189.713 419.107 191.16 419.304C192.594 419.375 193.942 420.011 194.908 421.074ZM206.902 421.074L192.314 442.959L186.947 442.479L201.55 420.609L206.902 421.074ZM189.226 426.144C189.354 426.345 189.529 426.513 189.735 426.633C189.941 426.753 190.172 426.822 190.41 426.834C190.655 426.864 190.902 426.839 191.135 426.761C191.369 426.683 191.582 426.554 191.76 426.384C192.138 425.972 192.365 425.443 192.404 424.884C192.482 424.319 192.354 423.744 192.044 423.264C191.903 423.062 191.718 422.895 191.502 422.775C191.286 422.656 191.046 422.587 190.8 422.574C190.564 422.544 190.323 422.57 190.099 422.651C189.875 422.732 189.673 422.865 189.511 423.039C189.149 423.458 188.938 423.986 188.911 424.539C188.829 425.095 188.94 425.661 189.226 426.144ZM207.442 434.964C207.911 435.539 208.255 436.205 208.451 436.921C208.648 437.637 208.692 438.386 208.581 439.119C208.469 440.186 208.053 441.198 207.382 442.034C206.71 442.87 205.812 443.495 204.795 443.834C203.778 444.172 202.685 444.211 201.647 443.944C200.608 443.677 199.669 443.117 198.941 442.329C198.476 441.747 198.136 441.074 197.942 440.354C197.749 439.634 197.706 438.882 197.817 438.144C197.838 437.401 198.016 436.671 198.339 436.002C198.662 435.332 199.122 434.738 199.691 434.259C200.833 433.391 202.269 433.003 203.693 433.179C204.409 433.224 205.109 433.41 205.752 433.726C206.395 434.043 206.97 434.484 207.442 435.024V434.964ZM201.774 440.124C201.917 440.316 202.098 440.476 202.307 440.592C202.515 440.709 202.746 440.78 202.983 440.801C203.221 440.823 203.461 440.793 203.687 440.715C203.912 440.638 204.119 440.513 204.293 440.349C204.663 439.934 204.879 439.405 204.908 438.849C204.994 438.287 204.877 437.713 204.578 437.229C204.446 437.029 204.269 436.863 204.06 436.746C203.852 436.628 203.618 436.563 203.379 436.554C203.139 436.517 202.893 436.538 202.664 436.617C202.434 436.695 202.226 436.828 202.059 437.004C201.693 437.421 201.481 437.95 201.46 438.504C201.367 439.084 201.478 439.678 201.774 440.184V440.124Z" fill="#F5F0E3"/>
<path d="M248.955 420.144C250.819 420.907 252.433 422.174 253.618 423.804C254.853 425.535 255.638 427.548 255.9 429.659C256.161 431.77 255.892 433.913 255.117 435.894C254.342 437.76 253.071 439.378 251.444 440.574C249.779 441.793 247.826 442.558 245.777 442.794C243.741 443.057 241.672 442.778 239.78 441.984C237.91 441.203 236.288 439.927 235.087 438.294C233.832 436.577 233.052 434.559 232.823 432.444C232.533 430.333 232.818 428.182 233.648 426.219C234.427 424.356 235.696 422.738 237.321 421.539C238.989 420.329 240.941 419.57 242.988 419.334C245.014 419.08 247.07 419.36 248.955 420.144ZM239.405 426.759C238.526 428.267 238.163 430.02 238.371 431.753C238.579 433.486 239.348 435.104 240.559 436.359C241.845 437.363 243.475 437.816 245.094 437.619C246.713 437.422 248.187 436.592 249.195 435.309C250.071 433.807 250.434 432.06 250.228 430.333C250.023 428.606 249.26 426.993 248.055 425.739C246.768 424.739 245.14 424.285 243.521 424.476C241.903 424.667 240.424 425.487 239.405 426.759Z" fill="#F5F0E3"/>
<path d="M278.024 412.524L279.118 416.814L269.958 419.154L271.202 424.044L278.293 422.244L279.343 426.339L272.252 428.154L274.56 437.154L269.163 438.534L263.451 416.214L278.024 412.524Z" fill="#F5F0E3"/>
<path d="M300.782 404.319L302.356 408.459L293.526 411.834L295.325 416.559L302.146 413.949L303.646 417.909L296.809 420.519L300.137 429.219L294.92 431.214L286.734 409.644L300.782 404.319Z" fill="#F5F0E3"/>
<path d="M175.24 347.88V349.14H182.7V347.88H175.24ZM172.12 359.86L172.62 361.32C174.56 360.88 177.24 360.3 179.76 359.72L179.66 358.4C176.86 358.96 173.96 359.54 172.12 359.86ZM174.38 344.1V359.98H175.84V344.1H174.38ZM175.24 344.1V345.42H181.94V351.66H175.24V352.98H183.4V344.1H175.24ZM179.1 352.12L177.86 352.36C178.78 356.58 180.64 359.96 183.76 361.54C183.98 361.16 184.42 360.6 184.76 360.3C181.78 358.98 179.96 355.86 179.1 352.12ZM183.08 353.44C182.24 354.4 180.74 355.66 179.66 356.44L180.6 357.2C181.72 356.46 183.14 355.34 184.26 354.3L183.08 353.44ZM167.12 344.08V361.62H168.54V345.44H172.24V344.08H167.12ZM171.8 344.08V344.5C171.34 345.88 170.52 348.3 169.72 350.12C171.28 351.68 171.7 353 171.7 354.1C171.72 354.72 171.6 355.24 171.26 355.46C171.06 355.58 170.82 355.64 170.56 355.66C170.2 355.68 169.76 355.68 169.24 355.62C169.48 356.02 169.6 356.62 169.62 356.98C170.12 357.02 170.68 357.02 171.14 356.96C171.56 356.92 171.94 356.8 172.24 356.6C172.84 356.18 173.1 355.36 173.1 354.26C173.1 353.02 172.72 351.6 171.1 349.94C171.84 348.36 172.68 346.3 173.32 344.64L172.3 344.02L172.08 344.08H171.8ZM197.92 345.6V346.92H207.92V345.6H197.92ZM197.06 349.48V350.82H208.78V349.48H197.06ZM197.16 353.1V354.44H208.56V353.1H197.16ZM202.12 343.2V350.3H203.6V343.2H202.12ZM204.76 350.62V359.8C204.76 360.1 204.66 360.18 204.32 360.2C204 360.22 202.88 360.22 201.64 360.18C201.86 360.58 202.1 361.18 202.16 361.58C203.76 361.58 204.78 361.56 205.4 361.34C206.02 361.12 206.22 360.68 206.22 359.82V350.62H204.76ZM198.38 355.84C199.4 356.88 200.48 358.38 200.92 359.36L202.22 358.56C201.74 357.58 200.62 356.16 199.58 355.12L198.38 355.84ZM191.72 344.52V345.88H195.32V356.3H191.72V357.66H196.72V344.52H191.72ZM191.78 350.34V351.68H195.98V350.34H191.78ZM191 344.52V359.3H192.42V344.52H191ZM222.24 351.44V359.4H223.64V351.44H222.24ZM227.2 345.82V356.78H228.5V345.82H227.2ZM219.4 344.36V345.64H226.68V344.36H219.4ZM219.36 353.82V355.14H226.4V353.82H219.36ZM218.92 349.8L219.06 351.16C220.92 350.98 223.38 350.78 225.82 350.56L225.8 349.32C223.22 349.52 220.68 349.7 218.92 349.8ZM218.76 359.28L219 360.68C221.18 360.32 224.1 359.82 226.94 359.3L226.86 358.04C223.9 358.52 220.82 359.02 218.76 359.28ZM223.8 347.42C224.64 348.78 225.46 350.62 225.74 351.76L226.9 351.3C226.6 350.16 225.76 348.38 224.88 347.04L223.8 347.42ZM221.72 344.84C221.38 346.42 220.7 348.7 220.1 350.08L221.24 350.42C221.88 349.1 222.66 346.92 223.24 345.2L221.72 344.84ZM230.66 343.56V359.8C230.66 360.1 230.56 360.18 230.3 360.18C230.02 360.18 229.16 360.2 228.2 360.16C228.4 360.6 228.62 361.26 228.68 361.64C229.92 361.64 230.78 361.6 231.3 361.34C231.82 361.1 232.02 360.68 232.02 359.78V343.56H230.66ZM218.14 343.32C217.18 346.38 215.6 349.44 213.84 351.44C214.1 351.82 214.5 352.62 214.64 352.96C216.62 350.64 218.4 347.14 219.54 343.7L218.14 343.32ZM216.54 348.22V361.6H217.92V346.9L217.88 346.86L216.54 348.22ZM250.24 346.92V348.32H256.7V346.92H250.24ZM250.64 343.2C250.18 346.66 249.34 350.06 247.92 352.24C248.26 352.48 248.84 353.02 249.06 353.28C250.56 350.9 251.52 347.22 252.1 343.42L250.64 343.2ZM254.18 347.66C253.5 353.76 251.9 358.02 247.84 360.42C248.1 360.72 248.54 361.34 248.68 361.66C253.02 358.86 254.78 354.44 255.6 347.8L254.18 347.66ZM250.98 348.18L249.7 348.38C250.56 354.36 252.22 359.3 255.76 361.62C256 361.26 256.46 360.72 256.8 360.44C253.4 358.42 251.74 353.66 250.98 348.18ZM242.92 343.2V353.7H244.26V343.2H242.92ZM240.94 345.48H246.4V348.82H240.94V345.48ZM239.66 344.42V349.88H247.72V344.42H239.66ZM240.46 351.82H246.86V353.12H240.46V351.82ZM239.16 350.8V354.14H248.2V350.8H239.16ZM238.3 355.42L238.34 356.62C241.08 356.58 245.22 356.52 249.2 356.42L249.26 355.28C245.2 355.36 241 355.42 238.3 355.42ZM242.3 353.82C241.52 355.36 240.38 357.4 239.56 358.68L240.8 359.04C241.6 357.74 242.74 355.74 243.58 354.12L242.3 353.82ZM240.7 358.32C243.02 359.16 245.36 360.3 246.74 361.28L247.7 360.34C246.24 359.36 243.78 358.22 241.44 357.42L240.7 358.32ZM245.9 355.9C245.16 358.72 242.92 360 238.78 360.5C239.02 360.8 239.28 361.3 239.36 361.68C243.92 360.9 246.4 359.38 247.2 356.12L245.9 355.9ZM238.28 346.56V347.72H240.2V347.64H247.1V347.72H249.14V346.56H247.1V346.64H240.2V346.56H238.28ZM263.42 346.78V356.3H264.92V348.26H277.98V356.2H279.54V346.78H263.42ZM264.22 353.58V355.04H278.88V353.58H264.22ZM270.66 343.2V361.58H272.22V343.2H270.66Z" fill="#51A9AE"/>
<path d="M146.396 138.056V139.456H155.804V138.056H146.396ZM146.396 141.108V142.508H155.804V141.108H146.396ZM146.368 144.16V145.728H156.56V144.16H146.368ZM143.176 123.412V125.036H157.204V123.412H143.176ZM150.372 136.012V144.972H152.164V136.012H150.372ZM146.508 121.508V126.744H148.384V121.508H146.508ZM151.94 121.508V126.744H153.816V121.508H151.94ZM145.556 128.704H147.936V131.14H145.556V128.704ZM144.044 127.304V132.54H149.504V127.304H144.044ZM152.22 128.704H154.796V131.14H152.22V128.704ZM150.708 127.304V132.54H156.364V127.304H150.708ZM147.124 134.892H146.956L145.304 136.656V147.184H147.124V136.404H156.532V134.892H147.124ZM151.24 132.652C150.988 133.52 150.484 134.78 150.036 135.648L151.52 136.096C151.968 135.34 152.556 134.22 153.116 133.156L151.24 132.652ZM146.508 132.512C145.696 135.06 144.296 137.552 142.672 139.26C143.008 139.624 143.624 140.464 143.876 140.856C145.668 138.896 147.292 135.928 148.3 132.988L146.508 132.512ZM159.024 126.548V128.48H167.34V126.548H159.024ZM162.412 127.36H161.404V132.344C161.432 134.584 160.704 141.78 155.328 145.56C155.664 145.952 156.28 146.792 156.504 147.24C160.704 144.244 162.132 139.008 162.412 136.712C162.636 138.952 163.924 144.356 167.732 147.24C168.04 146.736 168.628 145.896 169.02 145.448C164.12 141.808 163.392 134.5 163.42 132.344V127.36H162.412ZM159.276 121.452C158.744 125.848 157.764 130.16 155.972 132.904C156.476 133.184 157.372 133.8 157.736 134.108C159.556 131.112 160.676 126.548 161.348 121.76L159.276 121.452ZM166.64 126.548V126.94C166.472 129.04 166.108 131.728 165.688 133.38L167.228 134.136C167.844 132.288 168.348 129.376 168.656 126.912L167.284 126.408L166.976 126.548H166.64ZM180.22 132.904V134.36H200.968V132.904H180.22ZM185.596 124.952V130.888H187.472V124.952H185.596ZM192.204 124.952V130.888H194.108V124.952H192.204ZM180.5 126.828V128.172H198.896V130.216H180.5V131.588H200.828V126.828H180.5ZM188.032 138.252C186.52 139.764 183.748 141.388 180.192 142.536C180.584 142.816 181.116 143.404 181.368 143.796C185.12 142.396 187.976 140.66 189.964 138.672L188.032 138.252ZM187.22 139.988L185.904 141.304H196.908V139.988H187.22ZM196.46 139.988V140.268C193.576 143.46 186.492 145.112 180.192 145.672C180.5 146.092 180.864 146.764 181.032 147.212C187.696 146.456 195.032 144.636 198.42 140.716L197.188 139.904L196.852 139.988H196.46ZM186.436 140.912L184.84 141.612C188.172 144.916 194.64 146.624 201.276 147.212C201.528 146.708 201.976 145.952 202.368 145.56C195.816 145.112 189.432 143.684 186.436 140.912ZM186.072 135.088V136.852C186.072 138.448 186.632 138.812 188.984 138.812C189.432 138.812 192.904 138.812 193.408 138.812C195.004 138.812 195.536 138.364 195.676 136.544C195.228 136.432 194.584 136.236 194.22 136.012C194.108 137.272 193.968 137.468 193.156 137.468C192.484 137.468 189.628 137.468 189.124 137.468C188.004 137.468 187.808 137.384 187.808 136.852V135.088H186.072ZM200.548 132.904V133.156C200.156 134.304 199.484 135.592 198.952 136.432L200.632 136.852C201.248 135.928 201.976 134.5 202.592 133.184L201.192 132.848L200.884 132.904H200.548ZM183.748 134.892C183.16 136.124 182.04 137.44 180.612 138.168L182.04 139.12C183.552 138.28 184.56 136.88 185.232 135.536L183.748 134.892ZM188.536 134.752C189.628 135.256 191 136.208 191.7 136.908L192.876 135.872C192.176 135.256 190.804 134.388 189.656 133.828L188.536 134.752ZM195.032 135.48C196.348 136.488 197.804 137.944 198.448 138.952L199.904 138.14C199.204 137.104 197.72 135.676 196.404 134.724L195.032 135.48ZM189.32 121.508V124.644H191.476V121.508H189.32ZM179.856 123.384V125.064H202.004V123.384H179.856ZM178.904 123.384V131.952C178.904 136.124 178.708 141.948 176.412 146.092C176.86 146.288 177.7 146.876 178.036 147.24C180.472 142.9 180.836 136.404 180.836 131.952V123.384H178.904ZM216.62 122.852V124.784H231.516V122.852H216.62ZM214.156 140.632V142.564H235.436V140.632H214.156ZM210.236 131.644V133.604H236.164V131.644H210.236ZM230.844 122.852V123.412C230.284 138.196 229.64 143.712 228.52 144.916C228.212 145.336 227.876 145.448 227.344 145.448C226.644 145.448 225.216 145.42 223.564 145.252C223.872 145.784 224.124 146.624 224.152 147.184C225.692 147.24 227.26 147.296 228.212 147.184C229.164 147.1 229.808 146.848 230.48 145.924C231.684 144.356 232.328 139.344 232.916 124.056C232.916 123.748 232.944 122.852 232.944 122.852H230.844ZM215.528 122.852C214.8 129.572 213.372 138.98 212.252 144.384L214.436 144.608C215.444 139.232 216.844 129.768 217.712 122.852H215.528ZM220.204 127.164C222.164 128.172 224.544 129.684 225.692 130.832L226.98 129.404C225.776 128.284 223.396 126.8 221.436 125.876L220.204 127.164ZM219.14 135.928C221.324 137.048 223.872 138.812 225.076 140.128L226.476 138.728C225.216 137.384 222.64 135.704 220.484 134.668L219.14 135.928ZM244.48 124.42V126.24H256.212V124.42H244.48ZM243.92 130.972V132.764H256.52V130.972H243.92ZM249.408 121.564V125.596H251.424V121.564H249.408ZM249.464 132.652V147.24H251.48V132.652H249.464ZM249.436 136.348C248.288 139.176 245.88 142.2 243.64 143.712C244.088 144.104 244.592 144.832 244.872 145.336C247.196 143.488 249.66 140.212 250.92 137.216L249.436 136.348ZM251.228 137.916L250.108 138.84C251.228 139.82 254.028 142.536 254.98 143.684L256.296 142.088C255.54 141.388 252.208 138.588 251.228 137.916ZM246.188 126.716C246.748 128.032 247.196 129.824 247.28 130.944L249.044 130.524C248.932 129.376 248.428 127.64 247.84 126.352L246.188 126.716ZM252.936 126.296C252.684 127.528 252.124 129.376 251.704 130.524L253.328 130.944C253.804 129.852 254.336 128.2 254.84 126.744L252.936 126.296ZM259.376 129.18H266.404V132.092H259.376V129.18ZM259.376 133.8H266.404V136.74H259.376V133.8ZM259.376 124.588H266.404V127.472H259.376V124.588ZM257.472 122.712V138.616H268.392V122.712H257.472ZM263.492 138V144.356C263.492 146.288 263.884 146.904 265.704 146.904C266.068 146.904 267.356 146.904 267.748 146.904C269.288 146.904 269.82 145.98 269.96 142.116C269.428 141.976 268.616 141.668 268.196 141.304C268.14 144.664 268.056 145.028 267.496 145.028C267.216 145.028 266.208 145.028 266.012 145.028C265.48 145.028 265.396 144.944 265.396 144.328V138H263.492ZM259.348 138.112C259.04 141.948 258.2 144.412 254.308 145.784C254.728 146.148 255.288 146.876 255.484 147.324C259.852 145.644 260.916 142.648 261.28 138.112H259.348ZM244.2 135.62V137.44H256.268V135.62H244.2ZM280.852 133.436V135.032H288.468V133.436H280.852ZM280.88 129.6V131.252H287.656V137.3H280.88V138.98H289.644V129.6H280.88ZM279.732 129.6V144.832L281.72 144.524V129.6H279.732ZM277.576 144.216L277.884 146.12C280.796 145.672 284.8 145.028 288.664 144.44L288.552 142.62C284.52 143.264 280.348 143.852 277.576 144.216ZM285.08 140.324C286.76 142.172 288.468 144.776 289.14 146.484L290.904 145.588C290.176 143.88 288.44 141.36 286.704 139.54L285.08 140.324ZM292.024 129.572V147.1H293.984V131.504H300.872V129.572H292.024ZM299.92 129.572V141.472C299.92 141.864 299.836 141.976 299.36 141.976C298.912 142.004 297.4 142.004 295.72 141.976C296.028 142.508 296.308 143.348 296.392 143.936C298.604 143.936 300.004 143.908 300.844 143.572C301.712 143.236 301.964 142.648 301.964 141.5V129.572H299.92ZM280.964 123.972V125.624H290.008V123.972H280.964ZM291.772 123.972V125.624H302.944V123.972H291.772ZM281.552 121.368C280.656 123.832 279.144 126.296 277.408 127.92C277.912 128.2 278.752 128.76 279.144 129.068C280.796 127.304 282.476 124.616 283.512 121.872L281.552 121.368ZM292.584 121.368C291.66 123.916 289.952 126.268 287.964 127.808C288.496 128.088 289.336 128.676 289.7 129.012C291.632 127.304 293.508 124.672 294.572 121.872L292.584 121.368ZM282.532 125.204C283.204 126.436 283.876 128.032 284.1 129.04L285.892 128.34C285.64 127.332 284.912 125.764 284.24 124.588L282.532 125.204ZM294.236 125.204C295.272 126.436 296.308 128.088 296.728 129.18L298.548 128.452C298.1 127.304 297.008 125.708 295.972 124.532L294.236 125.204Z" fill="#51A9AE"/>
</g>
<defs>
<filter id="filter0_d_223_6952" x="0.850586" y="0" width="431.792" height="474.209" filterUnits="userSpaceOnUse" color-interpolation-filters="sRGB">
<feFlood flood-opacity="0" result="BackgroundImageFix"/>
<feColorMatrix in="SourceAlpha" type="matrix" values="0 0 0 0 0 0 0 0 0 0 0 0 0 0 0 0 0 0 127 0" result="hardAlpha"/>
<feOffset dy="4"/>
<feGaussianBlur stdDeviation="8"/>
<feComposite in2="hardAlpha" operator="out"/>
<feColorMatrix type="matrix" values="0 0 0 0 0.05625 0 0 0 0 0.286895 0 0 0 0 0.3 0 0 0 0.25 0"/>
<feBlend mode="normal" in2="BackgroundImageFix" result="effect1_dropShadow_223_6952"/>
<feBlend mode="normal" in="SourceGraphic" in2="effect1_dropShadow_223_6952" result="shape"/>
</filter>
</defs>
</svg>
