<svg width="49" height="32" viewBox="0 0 49 32" fill="none" xmlns="http://www.w3.org/2000/svg">
<path d="M19.6527 9.24899L13.9102 22.8739H10.1636L7.33775 12.0015C7.16619 11.3318 7.01793 11.0864 6.49524 10.8043C5.64336 10.3447 4.23658 9.91349 3 9.64564L3.08407 9.24967H9.11507C9.8838 9.24967 10.5748 9.75855 10.7494 10.6389L12.2418 18.522L15.9303 9.24853H19.654L19.6527 9.24899ZM34.3322 18.4255C34.3473 14.8294 29.332 14.6316 29.3664 13.0249C29.3772 12.5361 29.8462 12.0163 30.8699 11.8836C31.3777 11.8175 32.7769 11.767 34.3651 12.4933L34.9876 9.60407C34.1348 9.29624 33.0376 9 31.6724 9C28.1692 9 25.7038 10.852 25.683 13.5038C25.6601 15.4653 27.442 16.5599 28.7855 17.2116C30.1669 17.8791 30.6304 18.308 30.6252 18.905C30.6154 19.819 29.5234 20.2227 28.5029 20.2383C26.721 20.2656 25.6878 19.759 24.8638 19.378L24.2214 22.3629C25.0495 22.7407 26.578 23.0704 28.1628 23.087C31.8864 23.087 34.3219 21.2579 34.3333 18.4255H34.3322ZM43.5841 22.8739H46.8621L43.9992 9.24899H40.9741C40.651 9.24622 40.3345 9.34003 40.0657 9.51826C39.7968 9.6965 39.588 9.95093 39.4663 10.2486L34.1478 22.8739H37.8695L38.6078 20.8388H43.1551L43.5841 22.8739ZM39.6294 18.0463L41.4949 12.9307L42.5686 18.0463H39.6294ZM24.7166 9.24899L21.7859 22.8739H18.2418L21.1737 9.24899H24.7166Z" fill="#1434CB"/>
<rect x="0.5" y="0.5" width="48" height="31" rx="2.5" stroke="#BDBDBD"/>
</svg>
