<svg width="49" height="32" viewBox="0 0 49 32" fill="none" xmlns="http://www.w3.org/2000/svg">
<path d="M29.2669 8.43115H21.293V22.5973H29.2669V8.43115Z" fill="#FF5F00"/>
<path d="M21.7983 15.5131C21.7968 14.149 22.1095 12.8024 22.7125 11.5754C23.3156 10.3484 24.1933 9.27321 25.279 8.43126C23.9347 7.3864 22.3201 6.73653 20.6198 6.55595C18.9195 6.37536 17.2022 6.67135 15.664 7.41006C14.1259 8.14878 12.829 9.30042 11.9217 10.7333C11.0144 12.1662 10.5332 13.8226 10.5332 15.5131C10.5332 17.2036 11.0144 18.8599 11.9217 20.2929C12.829 21.7258 14.1259 22.8774 15.664 23.6161C17.2022 24.3548 18.9195 24.6508 20.6198 24.4702C22.3201 24.2897 23.9347 23.6398 25.279 22.5949C24.1933 21.753 23.3156 20.6778 22.7125 19.4508C22.1095 18.2238 21.7968 16.8772 21.7983 15.5131Z" fill="#EB001B"/>
<path d="M40.0248 15.513C40.0248 17.2034 39.5436 18.8598 38.6363 20.2926C37.729 21.7255 36.4322 22.8771 34.8941 23.6158C33.356 24.3545 31.6386 24.6505 29.9384 24.47C28.2382 24.2894 26.6236 23.6396 25.2793 22.5948C26.2195 21.8627 27.0046 20.9547 27.5897 19.9226C28.1749 18.8905 28.5486 17.7546 28.6897 16.5797C28.8307 15.4048 28.7363 14.214 28.4117 13.0752C28.0872 11.9364 27.5389 10.8719 26.7981 9.94263C26.3528 9.38531 25.8431 8.88141 25.2793 8.44119C26.6229 7.39693 28.2365 6.74725 29.9359 6.56633C31.6352 6.38541 33.3518 6.68054 34.8895 7.41804C36.4273 8.15553 37.7242 9.30564 38.6323 10.737C39.5403 12.1684 40.0229 13.8234 40.0248 15.513Z" fill="#F79E1B"/>
<path d="M39.1608 21.0959V20.8057H39.2798V20.7456H38.9785V20.8057H39.0975V21.0959H39.1608ZM39.7455 21.0959V20.7456H39.6544L39.5481 20.9958L39.4418 20.7456H39.3481V21.0959H39.4139V20.8307L39.5126 21.0584H39.581L39.6823 20.8307V21.0959H39.7455Z" fill="#F79E1B"/>
<rect x="0.5" y="0.5" width="48" height="31" rx="2.5" stroke="#BDBDBD"/>
</svg>
