<svg width="49" height="32" viewBox="0 0 49 32" fill="none" xmlns="http://www.w3.org/2000/svg">
<path d="M40.0734 23.1077C40.0715 24.3867 39.5625 25.6127 38.6581 26.5169C37.7536 27.4211 36.5275 27.9298 35.2486 27.9314H9V8.82488C9.00193 7.54583 9.51088 6.31973 10.4153 5.4153C11.3197 4.51088 12.5458 4.00193 13.8249 4H40.0734V23.1077Z" fill="white"/>
<path d="M31.5273 18.2076H33.5204C33.5775 18.2076 33.711 18.1882 33.7632 18.1882C33.9659 18.1447 34.1471 18.0318 34.2754 17.8689C34.4038 17.706 34.4711 17.5034 34.466 17.2961C34.4654 17.0901 34.3959 16.8902 34.2685 16.7283C34.1411 16.5664 33.9632 16.4518 33.7632 16.4027C33.6834 16.3862 33.6018 16.3797 33.5204 16.3833H31.5273V18.2076Z" fill="url(#paint0_linear_482_2790)"/>
<path d="M33.2927 5.61438C32.376 5.6147 31.4969 5.97901 30.8487 6.62724C30.2005 7.27547 29.8361 8.15457 29.8358 9.0713V12.6605H34.7165C34.831 12.6567 34.9455 12.6632 35.0588 12.6799C36.161 12.737 36.9767 13.3063 36.9767 14.2943C36.9767 15.0736 36.4268 15.7375 35.3987 15.8723V15.9099C36.519 15.9864 37.3736 16.6127 37.3736 17.5813C37.3736 18.6264 36.4244 19.3098 35.1705 19.3098H29.8164V26.3341H34.8877C35.8044 26.3337 36.6835 25.9694 37.3317 25.3212C37.98 24.673 38.3443 23.7939 38.3446 22.8771V5.61438H33.2927Z" fill="url(#paint1_linear_482_2790)"/>
<path d="M34.2244 14.5225C34.227 14.3244 34.1567 14.1322 34.0269 13.9826C33.8971 13.8329 33.7169 13.736 33.5204 13.7105C33.4828 13.7105 33.3881 13.691 33.3311 13.691H31.5273V15.3576H33.3323C33.396 15.3627 33.4601 15.3565 33.5216 15.3394C33.7187 15.3135 33.8993 15.2158 34.029 15.0651C34.1586 14.9144 34.2282 14.7212 34.2244 14.5225Z" fill="url(#paint2_linear_482_2790)"/>
<path d="M14.1873 5.61438C13.2705 5.6147 12.3915 5.97902 11.7432 6.62724C11.095 7.27547 10.7307 8.15457 10.7304 9.0713V17.5946C11.7014 18.0692 12.7052 18.3727 13.7127 18.3727C14.9095 18.3727 15.5552 17.6517 15.5552 16.6637V12.6423H18.5181V16.6479C18.5181 18.2052 17.5471 19.4773 14.2625 19.4773C13.0652 19.478 11.8724 19.3313 10.7109 19.0403V26.3146H15.7822C16.2362 26.3146 16.6857 26.2252 17.1051 26.0515C17.5245 25.8778 17.9056 25.6231 18.2266 25.3021C18.5476 24.9811 18.8023 24.6 18.976 24.1806C19.1497 23.7612 19.2391 23.3117 19.2391 22.8577V5.61438H14.1873Z" fill="url(#paint3_linear_482_2790)"/>
<path d="M23.7399 5.61438C22.8242 5.61631 21.9467 5.98133 21.2998 6.62939C20.6529 7.27744 20.2894 8.15562 20.2891 9.0713V13.5891C21.163 12.8487 22.6827 12.3753 25.1321 12.4882C26.0483 12.5463 26.9574 12.686 27.8486 12.9057V14.3623C27.0377 13.9278 26.1444 13.6689 25.2268 13.6024C23.3661 13.4689 22.2457 14.3805 22.2457 15.9766C22.2457 17.591 23.3661 18.5026 25.2268 18.3509C26.1426 18.2746 27.034 18.0163 27.8486 17.591V19.0476C26.9577 19.2691 26.0485 19.4089 25.1321 19.4651C22.6827 19.5792 21.163 19.101 20.2891 18.363V26.3413H25.3603C26.2771 26.341 27.1562 25.9767 27.8044 25.3285C28.4526 24.6802 28.8169 23.8012 28.8173 22.8844V5.61438H23.7399Z" fill="url(#paint4_linear_482_2790)"/>
<rect x="0.5" y="0.5" width="48" height="31" rx="2.5" stroke="#BDBDBD"/>
<defs>
<linearGradient id="paint0_linear_482_2790" x1="29.9115" y1="17.4248" x2="38.4476" y2="17.4248" gradientUnits="userSpaceOnUse">
<stop stop-color="#007940"/>
<stop offset="0.23" stop-color="#00873F"/>
<stop offset="0.74" stop-color="#40A737"/>
<stop offset="1" stop-color="#5CB531"/>
</linearGradient>
<linearGradient id="paint1_linear_482_2790" x1="29.8391" y1="15.9815" x2="38.3673" y2="15.9815" gradientUnits="userSpaceOnUse">
<stop stop-color="#007940"/>
<stop offset="0.23" stop-color="#00873F"/>
<stop offset="0.74" stop-color="#40A737"/>
<stop offset="1" stop-color="#5CB531"/>
</linearGradient>
<linearGradient id="paint2_linear_482_2790" x1="29.8408" y1="14.5264" x2="38.3636" y2="14.5264" gradientUnits="userSpaceOnUse">
<stop stop-color="#007940"/>
<stop offset="0.23" stop-color="#00873F"/>
<stop offset="0.74" stop-color="#40A737"/>
<stop offset="1" stop-color="#5CB531"/>
</linearGradient>
<linearGradient id="paint3_linear_482_2790" x1="10.7336" y1="16.1575" x2="19.3471" y2="16.1575" gradientUnits="userSpaceOnUse">
<stop stop-color="#1F286F"/>
<stop offset="0.48" stop-color="#004E94"/>
<stop offset="0.83" stop-color="#0066B1"/>
<stop offset="1" stop-color="#006FBC"/>
</linearGradient>
<linearGradient id="paint4_linear_482_2790" x1="20.2204" y1="15.5981" x2="28.6633" y2="15.5981" gradientUnits="userSpaceOnUse">
<stop stop-color="#6C2C2F"/>
<stop offset="0.17" stop-color="#882730"/>
<stop offset="0.57" stop-color="#BE1833"/>
<stop offset="0.86" stop-color="#DC0436"/>
<stop offset="1" stop-color="#E60039"/>
</linearGradient>
</defs>
</svg>
